<?xml version="1.0" encoding="UTF-8"?>
<?xml-stylesheet href="https://cdnjs.cloudflare.com/ajax/libs/font-awesome/6.7.2/css/all.min.css" type="text/css"?>
<svg xmlns="http://www.w3.org/2000/svg" xmlns:xlink="http://www.w3.org/1999/xlink" width="100%" height="100%" stroke-linecap="round" id="graph-div" viewBox="0 0 776 1097" style="max-width: 100%; background-color: rgb(255, 255, 255);"><g><path d="M576.333 1023.662 C576.333 1023.662, 576.333 1023.662, 576.333 1023.662 M576.333 1023.662 C576.333 1023.662, 576.333 1023.662, 576.333 1023.662 M575.669 1030.031 C577.472 1027.406, 580.042 1025.58, 581.99 1023.624 M575.669 1030.031 C577.664 1028.008, 580.009 1026.051, 581.99 1023.624 M575.708 1035.688 C578.901 1032.328, 584.004 1026.909, 587.647 1023.585 M575.708 1035.688 C578.06 1033.116, 581.988 1029.609, 587.647 1023.585 M575.746 1041.344 C579.947 1038.453, 586.122 1034.108, 593.303 1023.547 M575.746 1041.344 C579.148 1036.271, 583.932 1032.373, 593.303 1023.547 M575.785 1047.001 C584.208 1040.46, 590.303 1029.153, 598.96 1023.508 M575.785 1047.001 C584.983 1038.221, 592.633 1028.418, 598.96 1023.508 M575.823 1052.658 C584.205 1044.014, 590.315 1037.416, 603.914 1024.182 M575.823 1052.658 C582.604 1045.049, 590.882 1038.034, 603.914 1024.182 M575.862 1058.315 C585.321 1049.921, 597.308 1037.824, 609.571 1024.143 M575.862 1058.315 C588.059 1047.194, 600.237 1035.521, 609.571 1024.143 M575.9 1063.971 C585.092 1055.343, 595.643 1043.816, 615.228 1024.105 M575.9 1063.971 C587.402 1052.991, 599.723 1039.81, 615.228 1024.105 M575.939 1069.628 C586.148 1059.523, 595.671 1050.731, 620.885 1024.066 M575.939 1069.628 C586.621 1059.528, 597.738 1046.936, 620.885 1024.066 M575.977 1075.285 C585.466 1063.33, 595.138 1055.174, 626.541 1024.028 M575.977 1075.285 C596.103 1054.832, 615.907 1035.357, 626.541 1024.028 M576.016 1080.941 C594.084 1064.486, 611.071 1047.613, 632.198 1023.989 M576.016 1080.941 C597.968 1058.041, 620.685 1035.987, 632.198 1023.989 M578.161 1084.462 C597.886 1064.228, 617.509 1044.514, 637.855 1023.951 M578.161 1084.462 C596.664 1066.161, 614.929 1046.609, 637.855 1023.951 M580.306 1087.984 C597.177 1069.325, 619.028 1051.288, 643.511 1023.912 M580.306 1087.984 C604.062 1064.535, 627.866 1040.727, 643.511 1023.912 M585.963 1087.945 C601.947 1069.283, 619.328 1053.642, 649.168 1023.874 M585.963 1087.945 C602.329 1072.727, 617.279 1056.607, 649.168 1023.874 M591.62 1087.907 C612.293 1067.371, 633.129 1046.755, 654.825 1023.835 M591.62 1087.907 C609.134 1070.282, 624.125 1055.285, 654.825 1023.835 M597.277 1087.868 C612.596 1073.201, 626.864 1057.166, 660.482 1023.797 M597.277 1087.868 C614.772 1070.73, 630.713 1052.816, 660.482 1023.797 M602.933 1087.83 C619.63 1071.014, 639.23 1050.539, 666.138 1023.758 M602.933 1087.83 C619.716 1071.385, 635.328 1054.387, 666.138 1023.758 M608.59 1087.791 C625.612 1074.031, 638.663 1056.172, 671.795 1023.72 M608.59 1087.791 C633.514 1063.39, 658.836 1036.357, 671.795 1023.72 M613.544 1088.464 C637.809 1064.024, 663.54 1037.222, 677.452 1023.681 M613.544 1088.464 C638.786 1063.427, 664.486 1039.119, 677.452 1023.681 M619.201 1088.426 C641.481 1063.335, 664.625 1042.237, 683.109 1023.643 M619.201 1088.426 C631.34 1075.335, 644.952 1062.572, 683.109 1023.643 M624.858 1088.388 C639.725 1074.287, 649.918 1063.758, 688.063 1024.316 M624.858 1088.388 C643.577 1068.839, 664.293 1048.494, 688.063 1024.316 M630.515 1088.349 C654.629 1066.646, 678.501 1042.098, 693.72 1024.278 M630.515 1088.349 C655.382 1064.005, 679.452 1037.997, 693.72 1024.278 M636.171 1088.311 C648.558 1076.185, 663.145 1063.85, 699.376 1024.239 M636.171 1088.311 C652.04 1071.566, 666.18 1057.312, 699.376 1024.239 M641.828 1088.272 C666.346 1063.788, 687.666 1040.194, 705.033 1024.201 M641.828 1088.272 C665.885 1064.296, 688.844 1040.47, 705.033 1024.201 M647.485 1088.234 C672.252 1063.989, 695.745 1040.142, 710.69 1024.162 M647.485 1088.234 C662.469 1074.156, 676.402 1058.169, 710.69 1024.162 M653.141 1088.195 C667.241 1072.029, 681.591 1059.083, 716.347 1024.124 M653.141 1088.195 C673.278 1068.311, 691.678 1047.273, 716.347 1024.124 M658.798 1088.157 C677.917 1069.635, 695.037 1050.793, 724.812 1021.238 M658.798 1088.157 C674.66 1070.792, 692.589 1051.935, 724.812 1021.238 M664.455 1088.118 C685.175 1065.844, 711.1 1041.878, 726.958 1024.759 M664.455 1088.118 C684.79 1065.812, 706.624 1043.261, 726.958 1024.759 M670.112 1088.08 C689.938 1069.005, 706.838 1049.491, 726.996 1030.416 M670.112 1088.08 C686.56 1069.919, 703.609 1054.259, 726.996 1030.416 M675.768 1088.041 C697.473 1066.065, 718.474 1047.31, 727.035 1036.072 M675.768 1088.041 C690.412 1073.007, 705.582 1056.556, 727.035 1036.072 M681.425 1088.003 C697.998 1071.763, 711.777 1056.128, 727.073 1041.729 M681.425 1088.003 C696.931 1072.558, 711.583 1058.545, 727.073 1041.729 M687.082 1087.964 C693.986 1079.382, 703.891 1073.02, 726.409 1048.098 M687.082 1087.964 C696.417 1077.838, 705.91 1069.236, 726.409 1048.098 M692.036 1088.638 C699.102 1079.833, 710.306 1071.315, 726.448 1053.754 M692.036 1088.638 C702.285 1077.194, 712.034 1067.455, 726.448 1053.754 M697.693 1088.599 C706.927 1081.264, 715.54 1070, 726.486 1059.411 M697.693 1088.599 C708.04 1076.277, 719.89 1066.635, 726.486 1059.411 M703.35 1088.561 C709.049 1082.231, 718.005 1074.846, 726.525 1065.068 M703.35 1088.561 C710.423 1081.785, 716.119 1074.926, 726.525 1065.068 M709.006 1088.522 C715.819 1084.859, 718.461 1076.419, 726.563 1070.725 M709.006 1088.522 C716.288 1082.872, 721.905 1075.37, 726.563 1070.725 M714.663 1088.484 C718.227 1084.5, 719.773 1084.575, 726.602 1076.381 M714.663 1088.484 C719.363 1083.785, 722.843 1079.622, 726.602 1076.381 M720.32 1088.445 C720.912 1087.687, 722.575 1084.859, 726.64 1082.038 M720.32 1088.445 C722.474 1086.231, 724.258 1084.916, 726.64 1082.038" stroke="rgb(236, 236, 255)" stroke-width="2.016" fill="none"></path><path d="M579 1021 C634.768 1019.036, 694.782 1019.231, 723 1021 M579 1021 C622.844 1021.864, 666.145 1021.712, 723 1021 M723 1021 C725.645 1021.195, 724.022 1021.042, 726 1024 M723 1021 C726.834 1019.246, 724.256 1020.967, 726 1024 M726 1024 C725.889 1049.407, 726.247 1071.999, 726 1083 M726 1024 C725.86 1044.287, 726.232 1064.749, 726 1083 M726 1083 C724.677 1086.636, 725.448 1086.141, 723 1086 M726 1083 C727.902 1083.882, 722.922 1083.891, 723 1086 M723 1086 C668.686 1084.255, 613.566 1085.294, 579 1086 M723 1086 C681.663 1087.464, 641.984 1087.5, 579 1086 M579 1086 C575.944 1085.41, 575.302 1084.825, 576 1083 M579 1086 C577.547 1087.13, 576.52 1082.391, 576 1083 M576 1083 C575.503 1063.332, 576.402 1047.545, 576 1024 M576 1083 C574.776 1060.899, 576.275 1041.091, 576 1024 M576 1024 C575.287 1022.94, 576.706 1019.357, 579 1021 M576 1024 C576.37 1023.177, 578.245 1018.822, 579 1021 M579 1021 C579 1021, 579 1021, 579 1021 M579 1021 C579 1021, 579 1021, 579 1021" stroke="rgb(218, 206, 243)" stroke-width="1" fill="none"></path></g><g class="text-container" transform="matrix(1 0 0 1 79 10)"><text x="572" y="1043.5" dominant-baseline="central" alignment-baseline="central" class="actor actor-box" style="text-anchor: middle; font-size: 16px; font-weight: 400;font-style: normal;font-weight: 400;font-size: 16px;font-family: Comic Sans MS, cursive;" stroke="rgb(218, 206, 243)" stroke-width="1px" fill="rgb(236, 236, 255)" text-anchor="middle"><tspan x="572" dy="0" stroke="none" stroke-width="1px" fill="rgb(0, 0, 0)" text-anchor="middle" dominant-baseline="central">通道</tspan></text></g><g><path d="M279.168 1023.811 C279.168 1023.811, 279.168 1023.811, 279.168 1023.811 M279.168 1023.811 C279.168 1023.811, 279.168 1023.811, 279.168 1023.811 M278.837 1030.206 C280.282 1029.139, 283.172 1025.164, 286.807 1021.235 M278.837 1030.206 C282.092 1027.029, 284.841 1023.72, 286.807 1021.235 M279.171 1035.853 C281.031 1033.936, 285.617 1027.761, 291.79 1021.648 M279.171 1035.853 C283.09 1032.231, 286.693 1028.928, 291.79 1021.648 M278.841 1042.247 C285.75 1037.443, 290.275 1032.164, 297.437 1021.314 M278.841 1042.247 C284.38 1037.546, 288.984 1032.465, 297.437 1021.314 M279.175 1047.894 C289.091 1038.173, 296.002 1029.898, 302.42 1021.728 M279.175 1047.894 C286.894 1039.82, 294.634 1030.311, 302.42 1021.728 M278.845 1054.289 C285.895 1044.782, 293.373 1035.209, 308.067 1021.394 M278.845 1054.289 C285.862 1046.666, 292.079 1037.864, 308.067 1021.394 M279.178 1059.936 C291.218 1045.994, 300.836 1036.831, 313.05 1021.808 M279.178 1059.936 C291.516 1045.328, 305.638 1031.204, 313.05 1021.808 M278.848 1066.331 C288.234 1054.357, 298.217 1044.421, 318.697 1021.474 M278.848 1066.331 C290.398 1052.205, 303.899 1038.534, 318.697 1021.474 M279.182 1071.978 C288.158 1061.336, 300.238 1049.7, 323.68 1021.888 M279.182 1071.978 C294.683 1054.01, 308.37 1038.032, 323.68 1021.888 M278.852 1078.372 C290.487 1066.499, 302.395 1051.39, 329.327 1021.554 M278.852 1078.372 C294.394 1061.444, 308.489 1043.501, 329.327 1021.554 M279.85 1083.272 C294.715 1067.967, 308.249 1052.69, 334.309 1021.968 M279.85 1083.272 C299.391 1060.258, 320.376 1036.478, 334.309 1021.968 M282.84 1085.928 C297.435 1067.778, 313.4 1053.842, 339.956 1021.634 M282.84 1085.928 C296.674 1069.622, 310.394 1055.527, 339.956 1021.634 M287.823 1086.342 C302.846 1068.118, 320.23 1049.916, 345.603 1021.3 M287.823 1086.342 C305.279 1064.858, 324.838 1044.09, 345.603 1021.3 M293.47 1086.008 C314.33 1064.085, 333.716 1041.008, 350.586 1021.714 M293.47 1086.008 C310.997 1065.067, 330.127 1044.988, 350.586 1021.714 M298.453 1086.422 C309.975 1072.328, 323.746 1056.022, 356.233 1021.38 M298.453 1086.422 C316.11 1067.234, 334.982 1045.078, 356.233 1021.38 M304.1 1086.088 C322.536 1062.507, 342.475 1043.259, 361.216 1021.794 M304.1 1086.088 C317.719 1070.107, 332.99 1053.684, 361.216 1021.794 M309.083 1086.502 C322.664 1069.726, 339.562 1053.143, 366.863 1021.46 M309.083 1086.502 C331.07 1063.01, 351.135 1037.902, 366.863 1021.46 M314.73 1086.168 C329.724 1066.665, 346.204 1045.661, 371.846 1021.874 M314.73 1086.168 C337.099 1061.693, 357.258 1036.756, 371.846 1021.874 M319.712 1086.582 C331.973 1071.631, 347.204 1056.737, 377.493 1021.54 M319.712 1086.582 C340.314 1063.577, 361.886 1039.345, 377.493 1021.54 M325.359 1086.248 C345.927 1064.554, 362.689 1044.364, 382.476 1021.954 M325.359 1086.248 C343.288 1065.132, 364.349 1043.441, 382.476 1021.954 M331.006 1085.914 C347.362 1068.081, 363.137 1047.859, 388.123 1021.62 M331.006 1085.914 C343.783 1070.359, 356.966 1054.71, 388.123 1021.62 M335.989 1086.328 C353.363 1068.807, 367.394 1047.5, 393.106 1022.034 M335.989 1086.328 C355.527 1063.874, 376.033 1040.552, 393.106 1022.034 M341.636 1085.994 C351.525 1071.751, 364.93 1059.258, 398.753 1021.7 M341.636 1085.994 C359.143 1068.394, 374.484 1050.04, 398.753 1021.7 M346.619 1086.408 C367.662 1066.27, 386.62 1044.851, 404.4 1021.366 M346.619 1086.408 C362.017 1070.832, 377.272 1053.315, 404.4 1021.366 M352.266 1086.074 C364.31 1069.085, 381.421 1056.049, 409.382 1021.78 M352.266 1086.074 C363.656 1072.996, 377.292 1058.76, 409.382 1021.78 M357.249 1086.487 C376.554 1063.798, 395.991 1041.555, 415.029 1021.446 M357.249 1086.487 C369.282 1071.521, 382.655 1058.173, 415.029 1021.446 M362.896 1086.154 C382.503 1062.2, 405.608 1041.152, 420.012 1021.86 M362.896 1086.154 C383.113 1062.801, 404.884 1038.884, 420.012 1021.86 M367.879 1086.567 C379.768 1072.422, 391.154 1059.067, 425.659 1021.526 M367.879 1086.567 C385.514 1065.859, 404.056 1045.73, 425.659 1021.526 M373.526 1086.234 C390.796 1069.479, 407.098 1049.188, 428.65 1024.182 M373.526 1086.234 C394.53 1061.747, 415.631 1037.439, 428.65 1024.182 M378.509 1086.647 C388.15 1071.891, 402.911 1061.795, 429.648 1029.082 M378.509 1086.647 C389.832 1073.729, 403.586 1059.39, 429.648 1029.082 M384.156 1086.313 C402.507 1064.151, 420.174 1047.789, 429.317 1035.476 M384.156 1086.313 C396.983 1072.426, 409.743 1056.672, 429.317 1035.476 M389.803 1085.98 C402.154 1075.473, 410.352 1063.65, 429.651 1041.123 M389.803 1085.98 C405.036 1069.511, 418.931 1053.895, 429.651 1041.123 M394.786 1086.393 C401.306 1077.534, 409.711 1067.948, 429.321 1047.518 M394.786 1086.393 C407.201 1070.919, 421.164 1056.398, 429.321 1047.518 M400.433 1086.059 C407.513 1078.218, 416.786 1070.736, 429.655 1053.165 M400.433 1086.059 C408.579 1075.455, 417.32 1066.261, 429.655 1053.165 M405.415 1086.473 C409.704 1078.556, 417.672 1073.203, 429.325 1059.559 M405.415 1086.473 C410.62 1080.082, 414.271 1075.699, 429.325 1059.559 M411.062 1086.139 C414.977 1079.456, 421.359 1077.849, 429.658 1065.206 M411.062 1086.139 C414.535 1081.357, 419.397 1077.4, 429.658 1065.206 M416.045 1086.553 C419.193 1080.185, 426.543 1076.04, 429.328 1071.601 M416.045 1086.553 C421.986 1080.781, 425.364 1075.951, 429.328 1071.601 M421.692 1086.219 C424.719 1083.661, 426.444 1080.489, 429.662 1077.248 M421.692 1086.219 C423.828 1084.204, 425.725 1082.508, 429.662 1077.248" stroke="rgb(236, 236, 255)" stroke-width="1.124" fill="none"></path><path d="M282 1021 C335.502 1020.239, 385.307 1019.617, 426 1021 M426 1021 C426.212 1021.899, 428.888 1023.708, 429 1024 M429 1024 C429.101 1045.103, 430.198 1070.407, 429 1083 M429 1083 C429.648 1084.571, 426.341 1086.494, 426 1086 M426 1086 C397.401 1088.129, 367.286 1086.463, 282 1086 M282 1086 C279.039 1085.601, 280.721 1085.654, 279 1083 M279 1083 C279.327 1063.903, 280.252 1040.517, 279 1024 M279 1024 C278.041 1024.034, 279.694 1022.672, 282 1021 M282 1021 C282 1021, 282 1021, 282 1021" stroke="rgb(218, 206, 243)" stroke-width="1" fill="none"></path></g><g class="text-container" transform="matrix(1 0 0 1 79 10)"><text x="275" y="1043.5" dominant-baseline="central" alignment-baseline="central" class="actor actor-box" style="text-anchor: middle; font-size: 16px; font-weight: 400;font-style: normal;font-weight: 400;font-size: 16px;font-family: Comic Sans MS, cursive;" stroke="rgb(218, 206, 243)" stroke-width="1px" fill="rgb(236, 236, 255)" text-anchor="middle"><tspan x="275" dy="0" stroke="none" stroke-width="1px" fill="rgb(0, 0, 0)" text-anchor="middle" dominant-baseline="central">子线程</tspan></text></g><g><path d="M82.146 1020.865 C82.146 1020.865, 82.146 1020.865, 82.146 1020.865 M82.146 1020.865 C82.146 1020.865, 82.146 1020.865, 82.146 1020.865 M82.597 1027.253 C85.138 1025.525, 87.321 1022.527, 89.211 1021.149 M82.597 1027.253 C84.403 1025.632, 87.324 1023.102, 89.211 1021.149 M82.314 1034.318 C87.761 1032.347, 91.724 1025.083, 97.011 1020.754 M82.314 1034.318 C85.429 1032.359, 88.186 1029.75, 97.011 1020.754 M82.031 1041.383 C90.225 1033.533, 97.399 1027.393, 104.077 1021.037 M82.031 1041.383 C88.011 1034.603, 96.754 1027.508, 104.077 1021.037 M82.483 1047.771 C90.651 1040.44, 97.579 1033.374, 111.142 1021.32 M82.483 1047.771 C92.83 1037.107, 103.325 1028.653, 111.142 1021.32 M82.199 1054.836 C92.88 1044.788, 101.993 1035.379, 118.942 1020.925 M82.199 1054.836 C93.73 1043.733, 106.053 1032.941, 118.942 1020.925 M81.916 1061.901 C96.664 1047.319, 112.453 1033.969, 126.008 1021.208 M81.916 1061.901 C94.875 1050.315, 105.956 1040.221, 126.008 1021.208 M82.368 1068.289 C99.696 1052.037, 116.346 1036.136, 133.808 1020.814 M82.368 1068.289 C95.99 1055.778, 108.653 1044.436, 133.808 1020.814 M82.084 1075.354 C95.505 1059.537, 111.116 1048.9, 140.874 1021.097 M82.084 1075.354 C94.713 1062.926, 108.128 1052.333, 140.874 1021.097 M80.331 1083.776 C97.454 1067.615, 111.158 1056.213, 147.939 1021.38 M80.331 1083.776 C103.018 1061.783, 126.717 1041.275, 147.939 1021.38 M82.988 1088.128 C111.366 1063.735, 141.582 1036.588, 155.739 1020.985 M82.988 1088.128 C107.737 1065.153, 133.15 1042.94, 155.739 1020.985 M90.053 1088.412 C108.014 1069.563, 131.064 1052.578, 162.805 1021.268 M90.053 1088.412 C112.002 1067.051, 135.86 1044.595, 162.805 1021.268 M97.853 1088.017 C125.129 1064.324, 150.471 1037.885, 170.605 1020.873 M97.853 1088.017 C119.89 1066.818, 141.826 1046.601, 170.605 1020.873 M104.919 1088.3 C122.066 1072.096, 144.186 1054.723, 177.67 1021.157 M104.919 1088.3 C123.798 1072.812, 141.219 1055.77, 177.67 1021.157 M112.719 1087.905 C131.406 1069.362, 152.91 1048.475, 184.736 1021.44 M112.719 1087.905 C128.667 1074.229, 142.246 1060.678, 184.736 1021.44 M119.784 1088.188 C135.116 1072.758, 153.069 1057.624, 192.536 1021.045 M119.784 1088.188 C138.339 1070.975, 156.831 1053.835, 192.536 1021.045 M126.85 1088.471 C154.199 1061.744, 181.688 1038.382, 199.601 1021.328 M126.85 1088.471 C142.054 1073.668, 158.081 1059.326, 199.601 1021.328 M134.65 1088.076 C151.14 1073.226, 167.375 1059.274, 207.402 1020.933 M134.65 1088.076 C161.071 1065.532, 184.948 1042.311, 207.402 1020.933 M141.715 1088.36 C157.791 1074.844, 173.558 1058.891, 214.467 1021.216 M141.715 1088.36 C169.306 1063.647, 197.583 1037.86, 214.467 1021.216 M149.516 1087.965 C167.573 1072.811, 183.49 1057.255, 221.532 1021.5 M149.516 1087.965 C168.316 1069.667, 185.682 1052.975, 221.532 1021.5 M156.581 1088.248 C174.181 1071.736, 189.797 1054.15, 227.863 1022.461 M156.581 1088.248 C180.67 1065.136, 207.419 1042.221, 227.863 1022.461 M163.646 1088.531 C183.823 1067.963, 205.641 1047.764, 231.254 1026.135 M163.646 1088.531 C185.644 1067.466, 208.482 1046.813, 231.254 1026.135 M171.447 1088.136 C194.877 1066.694, 219.585 1045.198, 230.971 1033.201 M171.447 1088.136 C191.35 1068.733, 213.133 1050.171, 230.971 1033.201 M178.512 1088.419 C194.644 1074.206, 209.024 1058.009, 230.687 1040.266 M178.512 1088.419 C190.028 1077.584, 199.837 1068.576, 230.687 1040.266 M186.312 1088.024 C199.981 1076.865, 211.14 1063.709, 231.139 1046.653 M186.312 1088.024 C200.483 1074.646, 213.004 1062.943, 231.139 1046.653 M193.378 1088.308 C206.407 1075.717, 215.831 1067.384, 230.856 1053.719 M193.378 1088.308 C201.542 1080.656, 208.672 1073.105, 230.856 1053.719 M200.443 1088.591 C210.802 1080.68, 220.29 1070.747, 231.307 1060.106 M200.443 1088.591 C207.71 1081.779, 214.561 1074.742, 231.307 1060.106 M208.243 1088.196 C212.854 1081.442, 218.219 1078.425, 231.024 1067.171 M208.243 1088.196 C212.483 1082.404, 217.903 1079.591, 231.024 1067.171 M215.309 1088.479 C220.18 1083.839, 220.684 1080.397, 230.741 1074.237 M215.309 1088.479 C220.253 1084.053, 225.223 1079.268, 230.741 1074.237 M223.109 1088.084 C225.679 1084.287, 229.284 1081.55, 231.193 1080.624 M223.109 1088.084 C224.8 1086.746, 227.331 1084.157, 231.193 1080.624" stroke="rgb(236, 236, 255)" stroke-width="1.878" fill="none"></path><path d="M82 1021 C134.452 1023.332, 182.047 1020.092, 226 1021 M226 1021 C228.155 1020.877, 227.577 1024.622, 229 1024 M229 1024 C230.762 1044.437, 229.099 1062.979, 229 1083 M229 1083 C227.647 1083.226, 226.49 1085.373, 226 1086 M226 1086 C191.239 1085.667, 155.435 1086.66, 82 1086 M82 1086 C78.698 1087.228, 77.783 1085.209, 79 1083 M79 1083 C79.589 1070.572, 81.047 1054.994, 79 1024 M79 1024 C78.321 1022.666, 78.98 1020.943, 82 1021 M82 1021 C82 1021, 82 1021, 82 1021" stroke="rgb(218, 206, 243)" stroke-width="1" fill="none"></path></g><g class="text-container" transform="matrix(1 0 0 1 79 10)"><text x="75" y="1043.5" dominant-baseline="central" alignment-baseline="central" class="actor actor-box" style="text-anchor: middle; font-size: 16px; font-weight: 400;font-style: normal;font-weight: 400;font-size: 16px;font-family: Comic Sans MS, cursive;" stroke="rgb(218, 206, 243)" stroke-width="1px" fill="rgb(236, 236, 255)" text-anchor="middle"><tspan x="75" dy="0" stroke="none" stroke-width="1px" fill="rgb(0, 0, 0)" text-anchor="middle" dominant-baseline="central">主线程</tspan></text></g><g><path d="M650.745 75.622 C647.871 338.495, 647.515 601.849, 650.357 1020.841" stroke="rgb(218, 206, 243)" stroke-width="2" fill="none"></path></g><g><path d="M579.203 9.823 C579.203 9.823, 579.203 9.823, 579.203 9.823 M579.203 9.823 C579.203 9.823, 579.203 9.823, 579.203 9.823 M576.654 16.028 C578.079 14.093, 580.714 11.677, 583.436 10.112 M576.654 16.028 C578.34 14.085, 580.088 12.698, 583.436 10.112 M576.365 20.261 C578.647 19.022, 581.366 13.769, 588.422 9.743 M576.365 20.261 C579.98 16.868, 582.443 14.27, 588.422 9.743 M576.83 23.836 C581.536 20.256, 585.012 18.071, 592.655 10.031 M576.83 23.836 C580.665 21.414, 584.918 18.314, 592.655 10.031 M576.542 28.069 C582.755 23.435, 590.959 16.704, 596.888 10.32 M576.542 28.069 C582.683 23.365, 589.097 16.018, 596.888 10.32 M576.253 32.302 C586.657 23.039, 594.394 14.617, 601.874 9.951 M576.253 32.302 C584.771 25.195, 590.873 18.607, 601.874 9.951 M576.718 35.877 C584.339 27.72, 591.248 20.531, 606.107 10.239 M576.718 35.877 C585.807 27.947, 596.245 17.487, 606.107 10.239 M576.43 40.11 C587.299 30.497, 592.983 24.613, 611.093 9.87 M576.43 40.11 C590.699 28.222, 602.64 16.283, 611.093 9.87 M576.141 44.343 C589.721 31.384, 605.976 17.636, 615.326 10.159 M576.141 44.343 C585.029 34.975, 594.73 27.434, 615.326 10.159 M576.607 47.918 C591.794 35.864, 608.102 21.744, 620.312 9.79 M576.607 47.918 C590.315 36.888, 603.663 25.335, 620.312 9.79 M576.318 52.151 C585.454 41.278, 596.977 33.207, 624.545 10.078 M576.318 52.151 C587.264 42.559, 596.904 33.207, 624.545 10.078 M576.783 55.727 C594.436 41.889, 611.865 23.741, 628.778 10.367 M576.783 55.727 C589.507 43.738, 603.318 33.189, 628.778 10.367 M576.495 59.96 C589.999 47.206, 603.985 36.693, 633.764 9.998 M576.495 59.96 C591.395 45.289, 607.184 33.956, 633.764 9.998 M576.206 64.192 C597.097 44.797, 619.332 27.861, 637.997 10.286 M576.206 64.192 C588.507 54.34, 601.178 42.302, 637.997 10.286 M576.671 67.768 C592.167 52.699, 608.075 42.925, 642.984 9.917 M576.671 67.768 C591.444 56.576, 605.305 43.126, 642.984 9.917 M576.383 72.001 C597.714 53.248, 620 35.935, 647.216 10.206 M576.383 72.001 C595.12 55.932, 612.906 39.609, 647.216 10.206 M577.601 74.919 C603.782 52.05, 631.663 24.835, 652.203 9.837 M577.601 74.919 C592.594 62.791, 609.289 49.215, 652.203 9.837 M581.834 75.207 C601.948 56.775, 625.154 37.561, 656.436 10.125 M581.834 75.207 C601.786 58.306, 622.388 41.55, 656.436 10.125 M586.067 75.496 C614.685 50.783, 642.319 25.11, 660.668 10.414 M586.067 75.496 C612.694 53.997, 637.459 30.281, 660.668 10.414 M590.3 75.784 C615.293 56.615, 637.53 35.765, 665.655 10.045 M590.3 75.784 C608.378 59.379, 626.159 44.5, 665.655 10.045 M595.286 75.415 C613.833 57.988, 636.309 41.048, 669.888 10.333 M595.286 75.415 C611.994 60.983, 629.075 45.522, 669.888 10.333 M599.519 75.704 C618.366 61.829, 632.272 45.819, 674.874 9.964 M599.519 75.704 C627.252 51.507, 655.209 27.177, 674.874 9.964 M604.505 75.335 C630.77 52.408, 654.993 31.028, 679.107 10.253 M604.505 75.335 C620.788 61.378, 638.393 47.463, 679.107 10.253 M608.738 75.623 C636.872 51.18, 669.094 25.382, 684.093 9.884 M608.738 75.623 C625.298 60.782, 642.024 45.995, 684.093 9.884 M613.725 75.254 C639.536 53.507, 663.684 31.344, 688.326 10.172 M613.725 75.254 C633.255 58.628, 652.041 42.065, 688.326 10.172 M617.957 75.543 C638.96 54.79, 661.843 37.076, 692.559 10.461 M617.957 75.543 C635.956 60.869, 653.509 45.15, 692.559 10.461 M622.19 75.831 C636.584 60.213, 655.798 45.364, 697.545 10.092 M622.19 75.831 C644.588 56.309, 667.624 35.577, 697.545 10.092 M627.177 75.462 C654.443 53.116, 680.069 26.745, 701.778 10.38 M627.177 75.462 C652.579 52.931, 676.886 30.674, 701.778 10.38 M631.41 75.751 C658.315 48.963, 688.577 25.383, 706.764 10.012 M631.41 75.751 C655.403 55.318, 679.85 33.278, 706.764 10.012 M636.396 75.382 C654.055 62.368, 671.333 45.788, 710.997 10.3 M636.396 75.382 C659.995 55.464, 682.716 35.985, 710.997 10.3 M640.629 75.67 C668.998 51.325, 698.489 23.62, 715.23 10.589 M640.629 75.67 C662.502 57.002, 681.961 38.101, 715.23 10.589 M645.615 75.301 C665.206 58.923, 686.731 41.383, 720.216 10.22 M645.615 75.301 C673.758 51.045, 703.383 26.577, 720.216 10.22 M649.848 75.59 C671.703 56.894, 697.676 36.834, 724.449 10.508 M649.848 75.59 C671.431 57.099, 694.944 36.181, 724.449 10.508 M654.081 75.878 C675.195 54.399, 697.15 35.392, 726.421 12.769 M654.081 75.878 C677.203 56.114, 699.167 38.175, 726.421 12.769 M659.067 75.509 C682.637 52.265, 708.007 29.72, 726.133 17.002 M659.067 75.509 C685.517 53.134, 711.187 28.585, 726.133 17.002 M663.3 75.798 C681.432 58.992, 701.832 43.647, 725.844 21.234 M663.3 75.798 C683.193 56.768, 704.877 38.407, 725.844 21.234 M668.286 75.429 C682.846 63.099, 696.38 51.833, 726.31 24.81 M668.286 75.429 C686.996 59.709, 705.074 44.561, 726.31 24.81 M672.519 75.717 C687.306 61.786, 704.794 45.327, 726.021 29.043 M672.519 75.717 C690.432 61.124, 706.671 47.419, 726.021 29.043 M677.505 75.349 C690.696 65.376, 701.462 52.919, 725.733 33.275 M677.505 75.349 C688.296 65.598, 697.094 56.618, 725.733 33.275 M681.738 75.637 C698.152 60.01, 713.599 48.1, 726.198 36.851 M681.738 75.637 C691.116 66.716, 700.126 60.367, 726.198 36.851 M685.971 75.925 C698.252 65.097, 712.227 53.452, 725.909 41.084 M685.971 75.925 C697.327 66.113, 707.786 57.879, 725.909 41.084 M690.957 75.557 C702.435 64.376, 715 56.502, 725.621 45.317 M690.957 75.557 C701.574 65.974, 713.168 56.53, 725.621 45.317 M695.19 75.845 C702.445 69.834, 709.844 62.878, 726.086 48.892 M695.19 75.845 C703.526 68.692, 709.154 62.066, 726.086 48.892 M700.177 75.476 C707.137 68.814, 714.206 64.189, 725.797 53.125 M700.177 75.476 C706.85 69.135, 713.767 63.577, 725.797 53.125 M704.41 75.765 C709.602 69.503, 716.912 65.431, 725.509 57.358 M704.41 75.765 C708.637 72.031, 714.461 66.931, 725.509 57.358 M709.396 75.396 C713.51 73.518, 716.492 69.734, 725.974 60.933 M709.396 75.396 C713.971 71.47, 717.787 68.456, 725.974 60.933 M713.629 75.684 C716.574 73.813, 719.514 69.307, 725.685 65.166 M713.629 75.684 C716.482 73.808, 719.781 70.545, 725.685 65.166 M717.862 75.973 C720.552 73.187, 721.811 71.186, 726.151 68.741 M717.862 75.973 C720.138 73.573, 723.446 71.111, 726.151 68.741 M723.601 74.946 C724.128 74.336, 725.124 73.51, 725.862 72.974 M723.601 74.946 C724.342 74.226, 724.95 73.866, 725.862 72.974" stroke="rgb(236, 236, 255)" stroke-width="2.9" fill="none"></path><path d="M579 10 C627.754 9.721, 676.083 11.477, 723 10 M723 10 C724.25 8.988, 725.404 12.634, 726 13 M726 13 C726.096 32.8, 727.114 55.258, 726 72 M726 72 C727.312 74.74, 725.071 74.669, 723 75 M723 75 C687.708 73.738, 652.714 73.765, 579 75 M579 75 C578.227 74.679, 575.2 73.275, 576 72 M576 72 C578.388 51.407, 577.307 33.11, 576 13 M576 13 C575.786 10.422, 577.937 8.535, 579 10 M579 10 C579 10, 579 10, 579 10" stroke="rgb(218, 206, 243)" stroke-width="1" fill="none"></path></g><g class="text-container" transform="matrix(1 0 0 1 79 10)"><text x="572" y="32.5" dominant-baseline="central" alignment-baseline="central" class="actor actor-box" style="text-anchor: middle; font-size: 16px; font-weight: 400;font-style: normal;font-weight: 400;font-size: 16px;font-family: Comic Sans MS, cursive;" stroke="rgb(218, 206, 243)" stroke-width="1px" fill="rgb(236, 236, 255)" text-anchor="middle"><tspan x="572" dy="0" stroke="none" stroke-width="1px" fill="rgb(0, 0, 0)" text-anchor="middle" dominant-baseline="central">通道</tspan></text></g><g><path d="M353.973 74.93 C354.603 380.363, 354.881 684.697, 353.245 1021.649 M354.384 74.931 C357.149 349.434, 357.107 623.829, 353.651 1021.314" stroke="rgb(218, 206, 243)" stroke-width="2" fill="none"></path></g><g><path d="M278.965 13.048 C278.965 13.048, 278.965 13.048, 278.965 13.048 M278.965 13.048 C278.965 13.048, 278.965 13.048, 278.965 13.048 M279.007 18.048 C280.432 14.993, 281.731 12.912, 283.753 11.608 M279.007 18.048 C280.693 16.156, 281.518 14.413, 283.753 11.608 M279.049 23.047 C282.38 20.219, 283.882 17.473, 287.354 11.778 M279.049 23.047 C281.375 18.674, 284.766 15.656, 287.354 11.778 M279.09 28.047 C281.67 23.908, 288.441 16.482, 291.549 11.142 M279.09 28.047 C283.217 21.107, 288.72 14.249, 291.549 11.142 M279.132 33.047 C284.969 24.971, 291.285 16.804, 295.151 11.312 M279.132 33.047 C284.452 25.841, 290.363 17.759, 295.151 11.312 M279.174 38.047 C288.004 30.111, 291.563 18.327, 298.752 11.482 M279.174 38.047 C284.86 31.454, 290.625 22.662, 298.752 11.482 M279.216 43.047 C282.465 35.812, 287.248 30.26, 302.354 11.652 M279.216 43.047 C284.598 35.504, 291.573 25.578, 302.354 11.652 M279.258 48.047 C288.368 36.332, 298.881 20.295, 305.955 11.822 M279.258 48.047 C284.565 40.828, 289.266 33.076, 305.955 11.822 M278.707 53.851 C289.302 42.529, 300.186 25.779, 310.15 11.187 M278.707 53.851 C284.673 44.572, 293.01 36.307, 310.15 11.187 M278.748 58.851 C288.723 46.263, 296.271 34.073, 313.752 11.356 M278.748 58.851 C288.895 42.435, 300.871 27.687, 313.752 11.356 M278.79 63.851 C287.461 49.693, 298.531 37.648, 317.353 11.526 M278.79 63.851 C286.404 53.388, 295.748 42.75, 317.353 11.526 M278.832 68.851 C288.321 54.061, 298.579 41.595, 320.955 11.696 M278.832 68.851 C294.668 48.903, 309.259 26.877, 320.955 11.696 M280.061 72.241 C295.673 48.631, 315.274 27.042, 324.556 11.866 M280.061 72.241 C294.43 52.58, 308.182 32.505, 324.556 11.866 M281.289 75.631 C302.282 50.822, 321.607 24.621, 328.751 11.231 M281.289 75.631 C292.736 60.652, 303.986 45.028, 328.751 11.231 M285.484 74.995 C299.149 53.432, 318.466 31.862, 332.353 11.401 M285.484 74.995 C303.636 49.302, 322.409 23.539, 332.353 11.401 M289.085 75.165 C303.749 53.731, 319.476 31.478, 335.954 11.57 M289.085 75.165 C299.545 60.923, 309.41 47.902, 335.954 11.57 M292.687 75.335 C309.764 51.935, 323.49 32.906, 339.556 11.74 M292.687 75.335 C310.663 50.433, 329.729 25.004, 339.556 11.74 M296.289 75.505 C312.05 52.242, 329.588 32.144, 343.157 11.91 M296.289 75.505 C307.459 59.441, 318.998 43.555, 343.157 11.91 M299.89 75.675 C319.901 51.565, 334.85 26.11, 347.352 11.275 M299.89 75.675 C312.935 57.062, 328.369 38.513, 347.352 11.275 M304.085 75.04 C318.641 57.104, 331.126 39.24, 350.954 11.445 M304.085 75.04 C322.03 50.28, 339.235 26.683, 350.954 11.445 M307.686 75.209 C320.82 53.84, 337.903 34.591, 354.555 11.615 M307.686 75.209 C319.046 59.05, 330.313 43.571, 354.555 11.615 M311.288 75.379 C321.657 62.088, 331.477 48.769, 358.157 11.784 M311.288 75.379 C323.371 60.464, 333.849 44.643, 358.157 11.784 M314.89 75.549 C328.536 58.172, 340.801 38.533, 361.758 11.954 M314.89 75.549 C328.897 56.548, 342.668 39.294, 361.758 11.954 M318.491 75.719 C334.242 53.023, 354.464 26.577, 365.953 11.319 M318.491 75.719 C328.555 61.171, 339.723 48.603, 365.953 11.319 M322.686 75.084 C334.325 59.461, 346.167 44.045, 369.555 11.489 M322.686 75.084 C334.295 61.484, 343.828 47.084, 369.555 11.489 M326.288 75.254 C343.563 50.194, 362.075 27.991, 373.156 11.659 M326.288 75.254 C337.102 60.346, 349.097 46.484, 373.156 11.659 M329.889 75.423 C345.52 58.054, 358.482 35.639, 376.758 11.829 M329.889 75.423 C345.9 54.069, 362.29 31.041, 376.758 11.829 M333.491 75.593 C345.29 59.869, 355.764 45.547, 380.953 11.193 M333.491 75.593 C350.99 52.234, 366.929 30.226, 380.953 11.193 M337.092 75.763 C355.426 51.612, 375.363 26.535, 384.554 11.363 M337.092 75.763 C350.519 57.835, 363.706 41.19, 384.554 11.363 M341.287 75.128 C352.696 60.406, 363.28 44.471, 388.156 11.533 M341.287 75.128 C357.282 53.935, 371.812 34.932, 388.156 11.533 M344.889 75.298 C361.207 52.768, 376.856 31.922, 391.757 11.703 M344.889 75.298 C359.196 55.716, 374.116 34.314, 391.757 11.703 M348.49 75.468 C366.397 52.103, 382.989 30.511, 395.359 11.873 M348.49 75.468 C364.078 55.899, 378.478 35.663, 395.359 11.873 M352.092 75.637 C363.37 61.2, 370.694 51.524, 399.554 11.238 M352.092 75.637 C368.183 54.111, 384.472 32.5, 399.554 11.238 M356.286 75.002 C374.775 48.733, 391.233 23.909, 403.155 11.407 M356.286 75.002 C370.108 56.98, 383.147 39.887, 403.155 11.407 M359.888 75.172 C371.476 56.936, 386.241 41.515, 406.757 11.577 M359.888 75.172 C373.425 57.591, 385.414 39.768, 406.757 11.577 M363.49 75.342 C379.449 52.213, 394.614 32.233, 410.358 11.747 M363.49 75.342 C377.48 56.425, 390.638 38.117, 410.358 11.747 M367.091 75.512 C386.027 49.731, 402.644 27.193, 413.96 11.917 M367.091 75.512 C380.581 57.627, 393.96 39.97, 413.96 11.917 M370.693 75.682 C386.933 57.22, 399.554 36.525, 418.155 11.282 M370.693 75.682 C383.988 57.116, 398.767 37.933, 418.155 11.282 M374.887 75.046 C388.272 53.225, 404.01 33.264, 421.756 11.452 M374.887 75.046 C387.133 56.341, 400.752 38.064, 421.756 11.452 M378.489 75.216 C392.103 56.356, 406.852 32.799, 425.358 11.621 M378.489 75.216 C397.726 49.99, 414.507 27.017, 425.358 11.621 M382.091 75.386 C395.385 57.308, 405.472 42.061, 428.959 11.791 M382.091 75.386 C398.378 54.716, 413.626 33.28, 428.959 11.791 M385.692 75.556 C397.374 61.647, 406.117 46.136, 430.781 14.376 M385.692 75.556 C403.29 51.078, 421.597 26.685, 430.781 14.376 M389.294 75.726 C398.662 61.355, 410.313 46.29, 430.823 19.376 M389.294 75.726 C397.29 64.317, 406.879 51.223, 430.823 19.376 M393.488 75.091 C404.348 64.117, 412.413 52.381, 430.865 24.376 M393.488 75.091 C405.589 58.33, 418.683 40.195, 430.865 24.376 M397.09 75.26 C407.05 65.266, 416.384 50.773, 430.907 29.376 M397.09 75.26 C405.572 64.184, 414.791 52.513, 430.907 29.376 M400.692 75.43 C412.433 59.127, 425.214 44.376, 430.949 34.375 M400.692 75.43 C407.204 67.303, 412.725 58.434, 430.949 34.375 M404.293 75.6 C414.173 63.225, 423.046 51.46, 430.397 40.18 M404.293 75.6 C413.841 62.456, 422.963 51.276, 430.397 40.18 M407.895 75.77 C416.265 65.826, 424.345 53.168, 430.439 45.18 M407.895 75.77 C412.971 67.445, 418.16 60.913, 430.439 45.18 M412.09 75.135 C415.411 66.49, 423.662 61.617, 430.481 50.18 M412.09 75.135 C418.374 68.186, 422.444 59.595, 430.481 50.18 M415.691 75.305 C419.982 71.435, 425.316 63.572, 430.523 55.18 M415.691 75.305 C420.209 68.322, 425.962 62.605, 430.523 55.18 M419.293 75.475 C423.33 71.384, 429.68 64.761, 430.565 60.18 M419.293 75.475 C422.655 71.679, 425.505 66.757, 430.565 60.18 M422.894 75.644 C424.85 71.277, 428.927 69.292, 430.607 65.179 M422.894 75.644 C424.38 72.362, 427.34 70.594, 430.607 65.179 M426.496 75.814 C427.153 74.181, 428.058 72.872, 430.649 70.179 M426.496 75.814 C428.192 73.812, 429.595 71.902, 430.649 70.179" stroke="rgb(236, 236, 255)" stroke-width="1.639" fill="none"></path><path d="M282 10 C318.703 7.701, 354.292 11.415, 426 10 M426 10 C427.675 10.151, 429.525 10.813, 429 13 M429 13 C430.333 28.973, 429.39 44.83, 429 72 M429 72 C427.45 72.328, 429.237 73.775, 426 75 M426 75 C373.281 75.079, 319.926 73.094, 282 75 M282 75 C280.214 74.403, 280.433 72.012, 279 72 M279 72 C279.338 58.879, 280.896 43.812, 279 13 M279 13 C278.065 13.185, 282.153 9.243, 282 10 M282 10 C282 10, 282 10, 282 10" stroke="rgb(218, 206, 243)" stroke-width="1" fill="none"></path></g><g class="text-container" transform="matrix(1 0 0 1 79 10)"><text x="275" y="32.5" dominant-baseline="central" alignment-baseline="central" class="actor actor-box" style="text-anchor: middle; font-size: 16px; font-weight: 400;font-style: normal;font-weight: 400;font-size: 16px;font-family: Comic Sans MS, cursive;" stroke="rgb(218, 206, 243)" stroke-width="1px" fill="rgb(236, 236, 255)" text-anchor="middle"><tspan x="275" dy="0" stroke="none" stroke-width="1px" fill="rgb(0, 0, 0)" text-anchor="middle" dominant-baseline="central">子线程</tspan></text></g><g><path d="M153.989 74.661 C155.558 277.422, 155.895 481.507, 153.496 1021.196" stroke="rgb(218, 206, 243)" stroke-width="2" fill="none"></path></g><g><path d="M78.833 13.208 C78.833 13.208, 78.833 13.208, 78.833 13.208 M78.833 13.208 C78.833 13.208, 78.833 13.208, 78.833 13.208 M79.298 17.425 C79.744 16.656, 81.656 15.355, 83.676 11.963 M79.298 17.425 C81.04 15.309, 82.244 13.675, 83.676 11.963 M79.137 22.422 C81.889 19.507, 84.396 16.452, 87.893 11.499 M79.137 22.422 C81.579 19.285, 83.876 16.609, 87.893 11.499 M78.976 27.42 C83.141 22.562, 86.687 19.488, 91.485 11.814 M78.976 27.42 C83.363 21.927, 88.405 14.795, 91.485 11.814 M78.815 32.417 C83.138 25.267, 91.2 16.034, 95.702 11.35 M78.815 32.417 C84.545 24.229, 91.312 17.039, 95.702 11.35 M79.279 36.634 C85.168 30.313, 87.808 23.59, 99.294 11.666 M79.279 36.634 C83.32 30.816, 88.596 26.478, 99.294 11.666 M79.118 41.632 C84.105 34.308, 89.597 25.015, 102.885 11.982 M79.118 41.632 C86.626 31.369, 94.83 20.123, 102.885 11.982 M78.957 46.629 C85.413 40.865, 90.795 33.641, 107.102 11.517 M78.957 46.629 C90.392 34.831, 98.882 22.295, 107.102 11.517 M78.797 51.627 C86.655 39.958, 94.944 29.728, 110.694 11.833 M78.797 51.627 C88.973 38.686, 100.738 24.38, 110.694 11.833 M79.261 55.844 C91.903 38.888, 105.042 24.238, 114.911 11.368 M79.261 55.844 C90.666 42.753, 100.484 29.673, 114.911 11.368 M79.1 60.841 C90.913 43.169, 103.272 27.288, 118.503 11.684 M79.1 60.841 C90.873 44.082, 105.115 27.925, 118.503 11.684 M78.939 65.839 C97.112 44.431, 113.564 24.927, 122.095 12 M78.939 65.839 C90.609 50.525, 104.077 35.037, 122.095 12 M78.778 70.836 C88.359 57.991, 100.744 44.775, 126.312 11.535 M78.778 70.836 C94.397 50.918, 110.502 31.143, 126.312 11.535 M80.494 73.493 C95.307 54.838, 114.412 31.2, 129.903 11.851 M80.494 73.493 C96.773 51.645, 113.536 31.459, 129.903 11.851 M82.209 76.149 C99.952 52.638, 118.601 32.93, 134.121 11.387 M82.209 76.149 C103.221 52.032, 123.57 25.15, 134.121 11.387 M86.426 75.685 C103.023 55.64, 120.199 34.994, 137.712 11.703 M86.426 75.685 C103.122 54.572, 120.6 35.281, 137.712 11.703 M90.018 76.001 C106.834 55.917, 120.971 35.015, 141.304 12.018 M90.018 76.001 C103.904 58.114, 118.021 40.228, 141.304 12.018 M93.609 76.316 C107.234 57.538, 123.745 37.92, 145.521 11.554 M93.609 76.316 C113.124 51.015, 133.424 26.821, 145.521 11.554 M97.827 75.852 C109.13 60.495, 121.247 44.5, 149.113 11.87 M97.827 75.852 C108.44 62.224, 118.274 49.116, 149.113 11.87 M101.418 76.168 C117.935 56.161, 135.258 36.833, 153.33 11.405 M101.418 76.168 C116.597 56.882, 132.826 35.16, 153.33 11.405 M105.635 75.703 C115.222 63.705, 127.502 49.417, 156.922 11.721 M105.635 75.703 C123.328 53.172, 140.433 31.795, 156.922 11.721 M109.227 76.019 C127.477 55.445, 140.505 35.753, 160.513 12.037 M109.227 76.019 C121.35 61.182, 133.106 45.3, 160.513 12.037 M112.819 76.335 C130.617 56.37, 149.239 33.963, 164.731 11.572 M112.819 76.335 C126.983 60.417, 139.517 43.854, 164.731 11.572 M117.036 75.87 C137.605 51.819, 155.871 27.162, 168.322 11.888 M117.036 75.87 C131.052 59.02, 143.923 41.31, 168.322 11.888 M120.628 76.186 C131.777 61.66, 143.795 45.442, 172.539 11.424 M120.628 76.186 C140.613 51.772, 160.409 28.074, 172.539 11.424 M124.845 75.722 C139.854 58.635, 152.151 43.174, 176.131 11.739 M124.845 75.722 C142.215 54.315, 158.992 32.749, 176.131 11.739 M128.436 76.037 C139.75 63.275, 152.996 46.425, 179.723 12.055 M128.436 76.037 C148.637 51.307, 168.845 26.992, 179.723 12.055 M132.028 76.353 C147.607 57.067, 162.159 34.547, 183.94 11.591 M132.028 76.353 C154.006 50.656, 173.209 24.694, 183.94 11.591 M136.245 75.889 C149.603 63.269, 158.889 45.947, 187.532 11.906 M136.245 75.889 C156.421 52.03, 175.256 27.524, 187.532 11.906 M139.837 76.204 C157.146 53.054, 177.937 30.292, 191.749 11.442 M139.837 76.204 C152.849 59.799, 166.777 41.686, 191.749 11.442 M144.054 75.74 C153.309 62.724, 168.024 49.223, 195.34 11.758 M144.054 75.74 C157.09 59.189, 171.726 40.717, 195.34 11.758 M147.646 76.056 C166.047 52.324, 186.454 30.425, 198.932 12.074 M147.646 76.056 C167.036 52.633, 185.412 28.077, 198.932 12.074 M151.237 76.372 C165.264 56.179, 179.291 40.745, 203.149 11.609 M151.237 76.372 C170.483 53.507, 190.016 29.445, 203.149 11.609 M155.455 75.907 C171.919 57.187, 186.195 35.479, 206.741 11.925 M155.455 75.907 C173.96 50.283, 194.831 25.446, 206.741 11.925 M159.046 76.223 C170.79 60.964, 182.476 47.693, 210.958 11.46 M159.046 76.223 C171.611 60.284, 183.436 46.738, 210.958 11.46 M163.263 75.758 C181.691 52.628, 197.908 31.502, 214.55 11.776 M163.263 75.758 C175.645 59.197, 186.552 43.974, 214.55 11.776 M166.855 76.074 C182.338 55.821, 199.551 33.344, 218.141 12.092 M166.855 76.074 C185.296 54.873, 201.668 33.236, 218.141 12.092 M170.447 76.39 C189.09 55.046, 206.06 31.608, 222.359 11.627 M170.447 76.39 C190.072 52.929, 207.73 30.648, 222.359 11.627 M174.664 75.925 C195.564 49.129, 213.553 25.083, 227.201 10.383 M174.664 75.925 C192.736 52.529, 209.831 29.699, 227.201 10.383 M178.256 76.241 C199.636 49.002, 219.078 24.375, 228.917 13.039 M178.256 76.241 C195.377 53.644, 213.099 32.038, 228.917 13.039 M182.473 75.777 C200.495 54.023, 215.454 33.052, 231.257 14.916 M182.473 75.777 C193.562 61.513, 206.118 45.793, 231.257 14.916 M186.065 76.093 C201.601 61.176, 212.165 42.412, 231.096 19.913 M186.065 76.093 C201.452 56.911, 216.413 38.284, 231.096 19.913 M189.656 76.408 C206.772 58.252, 219.639 38.203, 231.561 24.13 M189.656 76.408 C201.035 61.967, 213.266 47.26, 231.561 24.13 M193.873 75.944 C206.639 62.222, 218.882 48.146, 231.4 29.128 M193.873 75.944 C207.423 58.114, 222.99 39.99, 231.4 29.128 M197.465 76.26 C203.94 66.929, 214.383 55.226, 231.239 34.125 M197.465 76.26 C210.402 58.987, 223.539 42.846, 231.239 34.125 M201.682 75.795 C211.686 63.36, 222.547 46.751, 231.078 39.122 M201.682 75.795 C208.339 66.914, 217.913 55.872, 231.078 39.122 M205.274 76.111 C213.128 66.583, 222.658 54.953, 230.917 44.12 M205.274 76.111 C215.019 64.259, 224.549 52.227, 230.917 44.12 M208.866 76.427 C217.221 66.976, 224.521 57.728, 231.382 48.337 M208.866 76.427 C214.111 71.053, 217.589 65.386, 231.382 48.337 M213.083 75.962 C221.299 69.935, 227.073 60.51, 231.221 53.334 M213.083 75.962 C217.382 69.79, 223.201 63.501, 231.221 53.334 M216.674 76.278 C221.933 72.972, 223.601 66.695, 231.06 58.332 M216.674 76.278 C222.069 70.443, 226.316 64.92, 231.06 58.332 M220.266 76.594 C221.415 74.852, 224.495 71.045, 230.899 63.329 M220.266 76.594 C223.283 72.825, 225.665 69.244, 230.899 63.329 M224.483 76.129 C226.171 74.109, 227.763 73.746, 231.363 67.546 M224.483 76.129 C227.047 73.117, 229.012 70.021, 231.363 67.546" stroke="rgb(236, 236, 255)" stroke-width="1.009" fill="none"></path><path d="M82 10 C131.064 8.154, 178.703 9.624, 226 10 M82 10 C128.075 10.47, 173.651 10.24, 226 10 M226 10 C228.793 10.866, 227.558 11.344, 229 13 M226 10 C227.569 9.358, 228.411 10.849, 229 13 M229 13 C227.576 32.554, 229.617 52.003, 229 72 M229 13 C228.37 28.142, 228.137 44.315, 229 72 M229 72 C230.581 73.731, 226.058 76.001, 226 75 M229 72 C229.11 74.009, 226.729 73.644, 226 75 M226 75 C168.014 75.308, 115.456 76.098, 82 75 M226 75 C190.939 75.368, 158.366 76.977, 82 75 M82 75 C81.618 74.201, 78.253 75.139, 79 72 M82 75 C80.4 76.175, 79.929 72.858, 79 72 M79 72 C78.136 48.884, 78.277 28.127, 79 13 M79 72 C79.494 52.393, 78.706 30.319, 79 13 M79 13 C79.481 11.82, 79.251 11.139, 82 10 M79 13 C77.783 12.21, 82.215 9.854, 82 10 M82 10 C82 10, 82 10, 82 10 M82 10 C82 10, 82 10, 82 10" stroke="rgb(218, 206, 243)" stroke-width="1" fill="none"></path></g><g class="text-container" transform="matrix(1 0 0 1 79 10)"><text x="75" y="32.5" dominant-baseline="central" alignment-baseline="central" class="actor actor-box" style="text-anchor: middle; font-size: 16px; font-weight: 400;font-style: normal;font-weight: 400;font-size: 16px;font-family: Comic Sans MS, cursive;" stroke="rgb(218, 206, 243)" stroke-width="1px" fill="rgb(236, 236, 255)" text-anchor="middle"><tspan x="75" dy="0" stroke="none" stroke-width="1px" fill="rgb(0, 0, 0)" text-anchor="middle" dominant-baseline="central">主线程</tspan></text></g><g><path d="M70.688 367.471 C274.91 369.522, 480.069 368.681, 661.456 366.503" stroke="rgb(218, 206, 243)" stroke-width="2" fill="none" stroke-dasharray="2 2"></path></g><g><path d="M662.878 366.717 C663.327 490.321, 663.406 616.634, 662.085 749.301 M662.221 367.314 C661.722 504.493, 661.536 642.475, 661.605 748.997" stroke="rgb(218, 206, 243)" stroke-width="2" fill="none" stroke-dasharray="2 2"></path></g><g><path d="M70.464 749.038 C214.745 748.272, 358.199 748.212, 661.45 749.706" stroke="rgb(218, 206, 243)" stroke-width="2" fill="none" stroke-dasharray="2 2"></path></g><g><path d="M70.84 367.56 C68.139 491.208, 68.257 617.709, 70.83 749.087" stroke="rgb(218, 206, 243)" stroke-width="2" fill="none" stroke-dasharray="2 2"></path></g><g><path d="M70.576 620.422 C302.696 622.287, 536.672 621.628, 661.493 621.224 M70.133 621.275 C267.156 619.47, 465.223 619.386, 661.936 620.849" stroke="rgb(218, 206, 243)" stroke-width="2" fill="none" stroke-dasharray="3 3"></path></g><g><path d="M70.243 366.712 C70.243 366.712, 70.243 366.712, 70.243 366.712 M70.243 366.712 C70.243 366.712, 70.243 366.712, 70.243 366.712 M70.021 369.939 C70.183 369.639, 71.152 368.948, 72.34 367.332 M69.982 370.183 C70.785 369.272, 71.545 368.231, 72.236 367.239 M69.429 372.693 C71.046 371.149, 73.108 369.561, 75.016 367.235 M70.245 373.276 C71.492 371.443, 72.55 370.498, 75.433 367.374 M69.302 375.485 C72.967 372.44, 77.181 367.954, 78.943 366.41 M69.897 376.444 C72.056 373.294, 74.494 371.426, 77.674 366.212 M70.489 380.796 C73.638 376.809, 78.193 370.806, 80.762 368.813 M69.981 379.298 C72.131 375.879, 75.666 373.71, 80.499 367.925 M71.081 382.452 C75.559 378.218, 77.855 372.195, 85.015 365.201 M70.654 383.039 C73.369 376.251, 78.323 372.83, 83.591 367.032 M68.794 384.18 C73.028 380.498, 80.415 372.215, 85.079 368.696 M70.274 386.848 C75.843 377.91, 82.388 371.528, 85.584 366.344 M72.515 389.333 C74.411 381.765, 80.23 379.967, 87.376 365.383 M69.66 386.996 C75.082 380.51, 81.956 375.967, 87.944 367.743 M72.615 388.6 C79.033 382.217, 83.703 377.796, 88.979 366.709 M73.764 387.269 C77.957 381.346, 83.376 375.928, 90.911 366.925 M74.683 386.781 C82.853 381.915, 86.024 375.21, 95.104 367.808 M76.102 386.92 C83.314 378.842, 88.973 372.02, 93.038 366.343 M76.898 389.958 C83.43 380.961, 89.44 376.122, 94.814 368.327 M77.683 388.04 C85.802 380.017, 92.495 371.97, 95.286 367.444 M81.24 388.258 C84.917 384.242, 90.784 377.804, 100.533 365.306 M82.207 388.528 C87.802 379.17, 95.713 370.758, 98.422 367.085 M85.386 387.879 C89.743 382.978, 91.925 378.269, 99.879 367.371 M83.813 387.213 C89.105 380.777, 93.949 375.318, 101.884 367.317 M85.698 387.273 C93.792 380.835, 100.279 371.042, 104.753 367.244 M86.017 387.557 C89.971 383.805, 94.489 379.928, 104.933 367.259 M87.761 389.096 C95.463 382.46, 98.187 377.617, 106.095 365.56 M89.205 387.911 C94.742 381.171, 98.226 377.021, 107.011 366.626 M92.293 386.45 C96.747 382.956, 99.827 376.062, 107.748 366.893 M91.447 387.161 C95.523 384.335, 98.642 379.241, 108.833 366.588 M95.957 388.77 C101.964 381.735, 104.097 374.72, 112.999 365.023 M95.033 386.533 C98.737 382.429, 101.998 379.258, 112.596 365.771 M96.343 386.592 C102.287 378.794, 107.393 373.166, 114.551 367.13 M97.747 387.423 C101.923 382.849, 105.642 376.526, 115.091 367.884 M101.27 386.535 C104.726 380.531, 112.566 372.64, 116.5 366.959 M98.721 387.982 C103.271 383.54, 108.584 378.243, 117.868 367.439 M103.038 387.753 C105.093 384.131, 108.188 378.165, 118.405 368.662 M101.634 387.611 C108.428 380.949, 112.229 375.142, 120.141 366.219 M105.149 387.284 C109.234 381.811, 114.472 377.294, 122.665 369.37 M104.346 388.804 C107.579 383.709, 110.617 379.23, 120.767 368.644 M108.757 388.067 C109.891 383.178, 112.373 379.303, 122.465 370.678 M107.149 387.321 C111.779 381.671, 116.359 375.226, 120.868 371.702 M111.519 386.808 C113.602 381.387, 118.369 378.943, 120.918 374.422 M109.488 386.74 C111.847 385.237, 114.681 382.123, 120.898 373.843 M111.943 386.775 C116.153 384.917, 120.903 380.094, 122.886 376.277 M112.62 387.305 C115.758 383.968, 117.628 381.435, 121.034 377.458" stroke="rgb(236, 236, 255)" stroke-width="0.759" fill="none"></path><path d="M70.378 367.391 C86.203 367.562, 104.723 364.599, 121.926 367.744 M69.024 366.489 C88.52 366.618, 104.598 367.532, 119.738 366.917 M120.654 367.671 C120.052 370.878, 118.888 375.399, 118.971 378.731 M120.555 366.722 C119.557 370.417, 119.899 373.435, 120.493 380.278 M120.637 380.556 C117.301 382.703, 116.771 384.53, 112.175 388.034 M119.591 379.838 C116.846 382.321, 113.461 385.149, 111.339 387.255 M112.776 386.163 C99.514 387.727, 86.577 388.228, 70.274 388.372 M111.221 387.788 C101.849 387.144, 89.844 385.973, 70.786 386.618 M69.085 388.437 C69.076 380.092, 69.256 373.568, 69.136 367.845 M69.473 386.6 C69.779 382.222, 69.887 377.959, 69.749 367.413" stroke="rgb(218, 206, 243)" stroke-width="1" fill="none"></path></g><g class="text-container" transform="matrix(1 0 0 1 79 10)"><text x="16" y="370" text-anchor="middle" dominant-baseline="middle" alignment-baseline="middle" class="labelText" style="font-size: 16px; font-weight: 400;font-style: normal;font-weight: 400;font-size: 16px;font-family: Comic Sans MS, cursive;" stroke="none" stroke-width="1px" fill="rgb(0, 0, 0)">par</text></g><g class="text-container" transform="matrix(1 0 0 1 79 10)"><text x="312" y="375" text-anchor="middle" class="loopText" style="font-size: 16px; font-weight: 400;font-style: normal;font-weight: 400;font-size: 16px;font-family: Comic Sans MS, cursive;" stroke="none" stroke-width="1px" fill="rgb(0, 0, 0)" dominant-baseline="auto"><tspan x="312" stroke="none" stroke-width="1px" fill="rgb(0, 0, 0)" text-anchor="middle" dominant-baseline="auto">[并行执行]</tspan></text></g><g class="text-container" transform="matrix(1 0 0 1 79 10)"><text x="76" y="80" text-anchor="middle" dominant-baseline="middle" alignment-baseline="middle" class="messageText" dy="1em" style="font-size: 16px; font-weight: 400;font-style: normal;font-weight: 400;font-size: 16px;font-family: Comic Sans MS, cursive;" stroke="none" stroke-width="1px" fill="rgb(51, 51, 51)">创建通道 (sender, receiver)</text></g><g><path d="M155 123 C216.837 111.788, 216.142 154.667, 155 143" stroke="rgb(51, 51, 51)" stroke-width="1.5" fill="none"></path></g><g><path d="M150.005 135.093 C150.005 135.093, 150.005 135.093, 150.005 135.093 M150.005 135.093 C150.005 135.093, 150.005 135.093, 150.005 135.093 M151.152 137.229 C151.221 136.217, 152.16 135.999, 152.698 134.862 M151.075 137.056 C151.422 136.444, 151.99 135.675, 152.773 134.779 M151.686 138.889 C153.071 138.36, 153.867 137.106, 156.142 134.561 M151.856 139.383 C153.068 137.044, 154.698 135.852, 155.79 134.504 M152.812 140.869 C154.111 140.176, 155.415 138.68, 158.774 133.689 M152.664 140.679 C154.965 138.935, 156.35 136.344, 158.096 134.053 M153.905 142.105 C154.569 140.865, 157.04 139.33, 159.635 135.384 M153.444 143.071 C155.519 140.909, 157.075 138.648, 161.105 134.529 M154.739 144.969 C155.338 144.731, 156.017 143.639, 156.712 142.941 M155.025 145.146 C155.419 144.369, 156.192 143.59, 156.616 142.781" stroke="rgb(51, 51, 51)" stroke-width="1.629" fill="none"></path><path d="M158.861 135.157 C159.363 138.249, 156.345 141.601, 154.349 144.955 M154.355 144.024 C152.609 143.148, 152.81 139.804, 150.935 134.144 M150.808 134.294 C151.925 134.498, 153.713 134.16, 160.488 134.617" stroke="rgb(51, 51, 51)" stroke-width="1" fill="none"></path></g><g class="text-container" transform="matrix(1 0 0 1 79 10)"><text x="174" y="158" text-anchor="middle" dominant-baseline="middle" alignment-baseline="middle" class="messageText" dy="1em" style="font-size: 16px; font-weight: 400;font-style: normal;font-weight: 400;font-size: 16px;font-family: Comic Sans MS, cursive;" stroke="none" stroke-width="1px" fill="rgb(51, 51, 51)">启动子线程</text></g><g><path d="M154.477 200.69 C206.942 201.948, 256.88 198.617, 348.772 202.311" stroke="rgb(51, 51, 51)" stroke-width="1.5" fill="none"></path></g><g><path d="M341.054 196.056 C341.054 196.056, 341.054 196.056, 341.054 196.056 M341.054 196.056 C341.054 196.056, 341.054 196.056, 341.054 196.056 M341.107 197.529 C341.282 197.253, 341.64 197.101, 341.792 196.691 M341.203 197.43 C341.376 197.244, 341.505 197.058, 341.821 196.681 M341.585 199.107 C342.39 197.921, 343.017 197.208, 343.032 196.289 M341.386 198.866 C341.69 198.538, 342.248 197.929, 343.367 196.592 M341.617 200.179 C342.422 199.124, 343.303 197.883, 344.237 197.038 M341.592 200.247 C342.007 199.552, 342.621 199.038, 344.09 197.058 M341.499 202.023 C343.079 200.289, 343.877 198.602, 345.004 197.525 M341.422 201.699 C342.701 200.441, 343.664 198.93, 344.631 197.559 M342.088 203.482 C342.454 201.307, 344.18 200.093, 345.778 198.76 M341.563 203.285 C342.536 201.913, 343.678 201.15, 345.713 198.175 M341.565 204.042 C343.323 202.491, 345.218 201.105, 346.517 198.969 M342.13 204.794 C343.486 202.528, 346.045 200.162, 346.746 198.571 M341.277 206.712 C343.863 202.893, 345.297 200.64, 348.025 198.03 M342.245 205.552 C343.83 203.33, 345.297 201.829, 347.539 198.57 M343.456 207.364 C345.089 203.216, 346.555 202.278, 347.901 199.639 M342.82 206.981 C345.087 203.95, 346.294 202.03, 348.88 199.34 M344.241 205.628 C346.221 203.627, 346.984 202.937, 348.743 199.97 M345.101 205.313 C346.207 204.511, 346.776 203.182, 349.127 200.384 M347.418 205.289 C347.973 203.385, 349.323 202.114, 350.176 200.094 M346.81 204.711 C348.013 203.205, 348.857 202.209, 350.635 199.86 M349.566 202.707 C350.262 202.378, 350.999 201.141, 351.744 200.402 M349.441 202.985 C350.426 202.027, 351.04 201.17, 351.385 200.667" stroke="rgb(51, 51, 51)" stroke-width="0.85" fill="none"></path><path d="M341.971 196.401 C345.516 196.837, 347.464 198.167, 351.437 202.146 M351.878 202.07 C349.006 203.546, 344.052 204.435, 343.169 204.965 M342.098 206.247 C342.835 203.325, 341.891 201.323, 341.384 195.121" stroke="rgb(51, 51, 51)" stroke-width="1" fill="none"></path></g><g class="text-container" transform="matrix(1 0 0 1 79 10)"><text x="76" y="206" text-anchor="middle" dominant-baseline="middle" alignment-baseline="middle" class="messageText" dy="1em" style="font-size: 16px; font-weight: 400;font-style: normal;font-weight: 400;font-size: 16px;font-family: Comic Sans MS, cursive;" stroke="none" stroke-width="1px" fill="rgb(51, 51, 51)">打印 "睡眠前"</text></g><g><path d="M155 249 C215.916 238.717, 216.271 278.579, 155 269" stroke="rgb(51, 51, 51)" stroke-width="1.5" fill="none"></path></g><g><path d="M150.164 260.954 C150.164 260.954, 150.164 260.954, 150.164 260.954 M150.164 260.954 C150.164 260.954, 150.164 260.954, 150.164 260.954 M150.661 263.27 C151.78 261.798, 153.021 261.588, 153.56 260.266 M150.649 263.202 C151.885 261.937, 153.063 261.003, 153.798 260.629 M152.061 264.141 C153.271 263.967, 154.085 263.328, 157.102 260.593 M152.301 264.84 C153.223 263.138, 154.883 261.914, 156.313 260.688 M151.945 265.795 C155.201 264.641, 155.606 264.172, 159.133 259.986 M152.302 266.956 C154.079 265.694, 156.332 263.191, 159.849 259.831 M154.035 267.814 C154.812 266.732, 156.05 266.225, 157.441 264.72 M153.829 268.376 C155.006 266.948, 156.333 265.901, 157.927 265.034 M154.544 270.462 C155.066 270.156, 155.343 269.797, 156.112 269.079 M154.599 270.432 C154.931 270.021, 155.27 269.842, 156.164 269.155" stroke="rgb(51, 51, 51)" stroke-width="1.688" fill="none"></path><path d="M159.045 260.068 C157.565 264.402, 155.607 267.381, 154.57 270.592 M159.828 260.305 C159.142 262.831, 156.917 265.373, 154.938 271.674 M154.443 269.989 C153.945 266.402, 151.558 264.057, 149.027 261.443 M155.237 271.173 C154.019 268.422, 151.8 265.836, 150.26 260.944 M150.402 260.453 C152.46 261.115, 156.204 259.93, 160.189 259.987 M149.611 260.602 C152.826 261.114, 156.696 260.042, 160.405 259.772" stroke="rgb(51, 51, 51)" stroke-width="1" fill="none"></path></g><g class="text-container" transform="matrix(1 0 0 1 79 10)"><text x="76" y="284" text-anchor="middle" dominant-baseline="middle" alignment-baseline="middle" class="messageText" dy="1em" style="font-size: 16px; font-weight: 400;font-style: normal;font-weight: 400;font-size: 16px;font-family: Comic Sans MS, cursive;" stroke="none" stroke-width="1px" fill="rgb(51, 51, 51)">睡眠 1000ms</text></g><g><path d="M155 327 C213.707 317.755, 213.415 356.274, 155 347" stroke="rgb(51, 51, 51)" stroke-width="1.5" fill="none"></path></g><g><path d="M149.928 339.173 C149.928 339.173, 149.928 339.173, 149.928 339.173 M149.928 339.173 C149.928 339.173, 149.928 339.173, 149.928 339.173 M150.578 341.433 C151.069 340.875, 151.616 340.62, 152.791 338.86 M150.777 341.194 C151.366 340.573, 151.739 339.953, 152.788 339.034 M152.035 342.88 C152.55 341.888, 154.464 340.952, 156.674 338.15 M151.853 342.89 C153.542 341.313, 154.668 339.902, 156.109 338.139 M152.517 344.011 C154.866 343.516, 156.58 341.674, 158.328 337.463 M152.398 345.199 C153.879 343.434, 155.672 341.87, 159.367 338.117 M153.875 346.854 C155.113 344.225, 156.649 343.486, 158.953 341.056 M153.912 346.893 C155.503 345.228, 157.225 343.466, 159.161 340.898 M155.106 348.143 C155.436 347.893, 155.525 347.654, 156.329 346.936 M154.927 348.296 C155.451 347.807, 156.03 347.233, 156.326 346.891" stroke="rgb(51, 51, 51)" stroke-width="0.756" fill="none"></path><path d="M159.338 337.405 C158.562 342.672, 155.152 347.173, 155.543 348.001 M155.967 348.432 C152.634 344.701, 151.053 342.582, 151.013 338.701 M150.247 339.675 C152.583 338.807, 155.35 338.697, 160.738 337.229" stroke="rgb(51, 51, 51)" stroke-width="1" fill="none"></path></g><g class="text-container" transform="matrix(1 0 0 1 79 10)"><text x="276" y="407" text-anchor="middle" dominant-baseline="middle" alignment-baseline="middle" class="messageText" dy="1em" style="font-size: 16px; font-weight: 400;font-style: normal;font-weight: 400;font-size: 16px;font-family: Comic Sans MS, cursive;" stroke="none" stroke-width="1px" fill="rgb(51, 51, 51)">打印 "发送前"</text></g><g><path d="M355 450 C414.38 440.235, 415.849 478.07, 355 470" stroke="rgb(51, 51, 51)" stroke-width="1.5" fill="none"></path></g><g><path d="M350.12 461.95 C350.12 461.95, 350.12 461.95, 350.12 461.95 M350.12 461.95 C350.12 461.95, 350.12 461.95, 350.12 461.95 M350.876 465.338 C351.554 464.606, 352.618 463.603, 354.684 461.385 M351.015 465.552 C352.441 463.938, 353.541 462.42, 354.271 461.658 M353.745 468.765 C355.148 466.355, 355.983 464.877, 359.093 461.099 M352.93 467.729 C354.724 466.07, 356.802 463.755, 358.724 460.787 M355.095 470.761 C355.769 468.768, 356.838 467.456, 359.233 465.897 M354.717 471.031 C356.331 468.364, 358.147 466.417, 359.138 465.12" stroke="rgb(51, 51, 51)" stroke-width="1.468" fill="none"></path><path d="M358.907 460.903 C359.542 463.649, 356.871 465.566, 353.903 473.217 M360.604 461.136 C358.449 463.124, 358.105 466.787, 354.526 471.602 M356.041 473.171 C354.699 469.286, 353.047 466.138, 349.486 461.063 M354.53 471.997 C353.528 469.588, 352.051 465.942, 349.82 461.776 M350.154 462.475 C352.766 462.039, 353.959 461.32, 360.914 462.001 M349.858 462.298 C353.321 461.982, 356.351 461.422, 359.907 461.187" stroke="rgb(51, 51, 51)" stroke-width="1" fill="none"></path></g><g class="text-container" transform="matrix(1 0 0 1 79 10)"><text x="422" y="485" text-anchor="middle" dominant-baseline="middle" alignment-baseline="middle" class="messageText" dy="1em" style="font-size: 16px; font-weight: 400;font-style: normal;font-weight: 400;font-size: 16px;font-family: Comic Sans MS, cursive;" stroke="none" stroke-width="1px" fill="rgb(51, 51, 51)">sender.send("Hello, world!")</text></g><g><path d="M353.745 527.278 C436.728 528.521, 518.614 527.815, 648.257 528.641" stroke="rgb(51, 51, 51)" stroke-width="1.5" fill="none"></path></g><g><path d="M638.016 523.12 C638.016 523.12, 638.016 523.12, 638.016 523.12 M638.016 523.12 C638.016 523.12, 638.016 523.12, 638.016 523.12 M638.22 525.713 C638.922 525.082, 639.475 523.967, 640.262 523.489 M638.422 525.948 C639.025 525.41, 639.457 524.748, 640.116 523.53 M638.759 529.478 C639.185 528.511, 639.743 527.195, 641.283 524.859 M638.691 529.416 C639.546 528.086, 639.933 527.317, 641.633 524.719 M639.371 532.441 C640.61 530.213, 642.018 528.696, 642.774 525.696 M639.108 532.426 C640.67 530.277, 641.756 527.609, 643.377 525.652 M641.402 532.949 C641.832 531.222, 643.16 528.764, 645.346 526.082 M641.321 532.824 C642.315 530.273, 644.284 528.696, 645.748 525.985 M644.948 530.578 C645.75 529.124, 646.801 528.35, 647.356 526.968 M644.92 530.37 C645.798 529.359, 646.79 528.29, 647.444 527.02" stroke="rgb(51, 51, 51)" stroke-width="1.645" fill="none"></path><path d="M638.853 523.412 C641.791 524.209, 643.341 525.496, 649.831 527.881 M649.017 527.816 C646.002 530.258, 645.597 529.204, 639.495 533.547 M638.452 532.644 C639.51 529.257, 637.461 524.98, 638.345 523.583" stroke="rgb(51, 51, 51)" stroke-width="1" fill="none"></path></g><g class="text-container" transform="matrix(1 0 0 1 79 10)"><text x="276" y="533" text-anchor="middle" dominant-baseline="middle" alignment-baseline="middle" class="messageText" dy="1em" style="font-size: 16px; font-weight: 400;font-style: normal;font-weight: 400;font-size: 16px;font-family: Comic Sans MS, cursive;" stroke="none" stroke-width="1px" fill="rgb(51, 51, 51)">打印 "发送后"</text></g><g><path d="M355 576 C414.009 564.698, 414.542 604.907, 355 596" stroke="rgb(51, 51, 51)" stroke-width="1.5" fill="none"></path></g><g><path d="M350.279 587.705 C350.279 587.705, 350.279 587.705, 350.279 587.705 M350.279 587.705 C350.279 587.705, 350.279 587.705, 350.279 587.705 M350.49 590.4 C351.159 589.35, 352.056 588.727, 352.264 588.183 M350.762 590.589 C351.122 589.716, 351.834 589.066, 352.451 587.976 M352.37 592.404 C353.371 590.435, 353.626 589.661, 355.492 587.603 M352.071 592.303 C353.174 590.874, 354.601 588.859, 355.127 587.752 M353.327 594.953 C354.662 592.947, 355.483 590.148, 357.374 587.96 M352.769 594.787 C353.564 592.623, 354.927 591.736, 358.226 587.284 M354.416 595.775 C356.59 593.753, 357.507 590.615, 360.046 587.048 M354.359 596.827 C355.534 594.245, 356.858 592.876, 360.28 587.582" stroke="rgb(51, 51, 51)" stroke-width="1.239" fill="none"></path><path d="M360.715 586.373 C358.9 589.242, 358.626 591.57, 355.209 597.426 M354.819 597.022 C353.051 596.346, 352.792 592.971, 351.039 587.431 M349.852 587.197 C352.26 588.8, 356.652 586.633, 359.134 587.717" stroke="rgb(51, 51, 51)" stroke-width="1" fill="none"></path></g><g class="text-container" transform="matrix(1 0 0 1 79 10)"><text x="76" y="636" text-anchor="middle" dominant-baseline="middle" alignment-baseline="middle" class="messageText" dy="1em" style="font-size: 16px; font-weight: 400;font-style: normal;font-weight: 400;font-size: 16px;font-family: Comic Sans MS, cursive;" stroke="none" stroke-width="1px" fill="rgb(51, 51, 51)">等待睡眠结束</text></g><g><path d="M155 679 C215.078 669.824, 213.934 709.743, 155 699" stroke="rgb(51, 51, 51)" stroke-width="1.5" fill="none"></path></g><g><path d="M150.223 690.776 C150.223 690.776, 150.223 690.776, 150.223 690.776 M150.223 690.776 C150.223 690.776, 150.223 690.776, 150.223 690.776 M150.504 692.21 C150.595 691.93, 150.833 691.627, 150.985 691.246 M150.445 692.2 C150.716 691.881, 150.874 691.54, 151.015 691.376 M151.17 692.733 C151.802 692.333, 151.94 691.628, 152.359 690.958 M151.391 692.782 C151.684 692.314, 151.833 691.988, 152.467 691.034 M151.617 694.268 C152.57 693.222, 153.451 691.758, 154.111 690.499 M151.473 694.219 C152.104 693.042, 152.966 692.04, 153.967 690.95 M152.306 695.015 C153.11 694.486, 153.157 693.546, 155.425 690.042 M152.09 695.652 C152.94 693.715, 153.833 692.73, 155.332 690.427 M152.529 696.598 C153.929 694.661, 155.008 693.255, 156.621 690.383 M152.367 696.314 C153.639 694.349, 154.936 693.041, 156.32 689.998 M152.941 697.453 C154.377 694.971, 156.532 693.706, 158.151 690.739 M152.535 697.35 C154.865 694.586, 157.096 691.997, 158.368 690.254 M153.841 698.121 C154.897 696.196, 156.582 693.416, 159.074 690.523 M153.706 698.333 C155.476 695.122, 157.038 692.809, 159.071 689.875 M153.324 700.228 C155.391 696.485, 157.336 693.001, 161.155 690.087 M153.756 699.456 C155.576 695.916, 158.461 692.895, 160.218 690.438 M154.493 699.933 C155.8 698.842, 156.966 697.706, 157.926 695.983 M154.662 699.891 C155.914 698.559, 156.92 697.027, 157.754 695.63" stroke="rgb(51, 51, 51)" stroke-width="0.989" fill="none"></path><path d="M159.744 690.469 C159.45 693.85, 156.7 695.716, 154.321 701.692 M155.545 701.912 C152.893 697.923, 151.953 696.112, 150.888 692.146 M149.232 691.439 C152.776 689.975, 155.7 690.615, 160.321 690.157" stroke="rgb(51, 51, 51)" stroke-width="1" fill="none"></path></g><g class="text-container" transform="matrix(1 0 0 1 79 10)"><text x="76" y="754" text-anchor="middle" dominant-baseline="middle" alignment-baseline="middle" class="messageText" dy="1em" style="font-size: 16px; font-weight: 400;font-style: normal;font-weight: 400;font-size: 16px;font-family: Comic Sans MS, cursive;" stroke="none" stroke-width="1px" fill="rgb(51, 51, 51)">打印 "睡眠后"</text></g><g><path d="M155 797 C215.964 788.716, 214.446 825.615, 155 817" stroke="rgb(51, 51, 51)" stroke-width="1.5" fill="none"></path></g><g><path d="M149.902 809.23 C149.902 809.23, 149.902 809.23, 149.902 809.23 M149.902 809.23 C149.902 809.23, 149.902 809.23, 149.902 809.23 M150.875 811.335 C151.177 810.534, 151.982 809.742, 152.994 809.019 M151.013 811.371 C151.563 810.184, 152.259 809.404, 152.663 808.982 M151.943 813.348 C152.798 812.231, 153.4 810.847, 155.017 808.99 M152.115 813.073 C153.17 811.563, 154.618 809.673, 155.617 808.535 M152.088 815.288 C153.148 813.305, 154.732 811.948, 158.259 807.4 M153.043 815.019 C154.684 813.106, 155.858 810.763, 158.157 808.416 M154.408 816.223 C155.502 814.08, 157.912 812.228, 161.2 809.106 M154.246 816.763 C155.93 814.335, 157.893 811.383, 160.305 808.855 M154.836 819.257 C155.084 818.692, 155.455 817.992, 156.939 816.853 M154.919 819.188 C155.279 818.463, 155.946 817.857, 156.627 816.986" stroke="rgb(51, 51, 51)" stroke-width="0.708" fill="none"></path><path d="M158.903 808.863 C157.962 812.45, 155.36 817.556, 155.165 819.717 M155.067 819.458 C152.589 814.206, 150.235 810.324, 149.497 809.581 M150.512 809.41 C152.377 809.681, 155.492 807.884, 159.476 807.691" stroke="rgb(51, 51, 51)" stroke-width="1" fill="none"></path></g><g class="text-container" transform="matrix(1 0 0 1 79 10)"><text x="322" y="832" text-anchor="middle" dominant-baseline="middle" alignment-baseline="middle" class="messageText" dy="1em" style="font-size: 16px; font-weight: 400;font-style: normal;font-weight: 400;font-size: 16px;font-family: Comic Sans MS, cursive;" stroke="none" stroke-width="1px" fill="rgb(51, 51, 51)">receiver.recv()</text></g><g><path d="M154.273 874.508 C263.672 875.642, 371.605 875.736, 646.989 875.481" stroke="rgb(51, 51, 51)" stroke-width="1.5" fill="none"></path></g><g><path d="M638.021 870.111 C638.021 870.111, 638.021 870.111, 638.021 870.111 M638.021 870.111 C638.021 870.111, 638.021 870.111, 638.021 870.111 M638.409 874.178 C639.438 872.768, 640.378 872.018, 641.138 871.27 M638.729 874.13 C639.223 873.467, 639.668 872.505, 641.031 871.028 M639.426 879.295 C640.288 878.308, 641.171 876.051, 642.777 873.016 M638.656 879.436 C640.685 876.766, 642.126 874.131, 643.619 872.607 M642.718 879.158 C644.946 876.921, 645.394 874.279, 646.062 873.779 M642.77 878.661 C643.98 876.975, 645.346 875.393, 646.715 873.84" stroke="rgb(51, 51, 51)" stroke-width="1.533" fill="none"></path><path d="M638.412 869.478 C640.447 871.131, 643.888 873.311, 650.131 874.982 M648.759 874.619 C647.562 877.264, 644.766 878.072, 639.116 879.066 M638.999 879.204 C639.208 877.31, 637.74 873.77, 637.545 870.536" stroke="rgb(51, 51, 51)" stroke-width="1" fill="none"></path></g><g class="text-container" transform="matrix(1 0 0 1 79 10)"><text x="325" y="880" text-anchor="middle" dominant-baseline="middle" alignment-baseline="middle" class="messageText" dy="1em" style="font-size: 16px; font-weight: 400;font-style: normal;font-weight: 400;font-size: 16px;font-family: Comic Sans MS, cursive;" stroke="none" stroke-width="1px" fill="rgb(51, 51, 51)">返回 "Hello, world!"</text></g><g><path d="M650.456 922.348 C528.857 922.009, 408.988 921.534, 157.333 922.751" stroke="rgb(51, 51, 51)" stroke-width="1.5" fill="none" stroke-dasharray="3 3"></path></g><g><path d="M155.624 923.237 C155.624 923.237, 155.624 923.237, 155.624 923.237 M155.624 923.237 C155.624 923.237, 155.624 923.237, 155.624 923.237 M157.05 924.222 C159.217 922.989, 161.217 921.403, 163.26 919.716 M157.553 924.214 C158.663 923.007, 160.086 922.173, 163.133 919.608 M159.363 925.005 C161.673 923.636, 165.414 919.862, 167.107 919.657 M159.87 924.668 C161.336 923.214, 163.204 922.092, 166.966 919.296 M161.373 926.418 C163.422 924.764, 164.743 922.841, 166.799 921.581 M161.59 926.112 C162.906 925.033, 164.42 924.053, 167.12 921.112 M164.234 926.715 C164.72 925.35, 165.93 924.916, 166.715 923.906 M163.711 926.796 C165.115 925.887, 166.026 924.745, 166.979 923.926 M165.763 927.394 C166.182 927.432, 166.76 927.07, 167.33 926.343 M165.841 927.543 C166.504 927.048, 167.062 926.499, 167.466 926.298" stroke="rgb(51, 51, 51)" stroke-width="1.252" fill="none"></path><path d="M166.22 927.869 C164.458 926.139, 160.585 925.992, 156.417 922.004 M166.668 927.428 C164.128 926.612, 161.177 925.149, 156.261 922.689 M155.38 922.506 C159.398 920.728, 162.434 919.723, 165.587 918.918 M156.194 923.557 C158.033 922.058, 159.862 920.597, 165.45 917.835 M166.157 918.32 C165.829 922.08, 166.902 926.811, 167.832 928.818 M165.472 917.709 C166.076 922.181, 167.018 925.772, 166.556 927.593" stroke="rgb(51, 51, 51)" stroke-width="1" fill="none"></path></g><g class="text-container" transform="matrix(1 0 0 1 79 10)"><text x="76" y="928" text-anchor="middle" dominant-baseline="middle" alignment-baseline="middle" class="messageText" dy="1em" style="font-size: 16px; font-weight: 400;font-style: normal;font-weight: 400;font-size: 16px;font-family: Comic Sans MS, cursive;" stroke="none" stroke-width="1px" fill="rgb(51, 51, 51)">打印 "Hello, world!"</text></g><g><path d="M155 971 C213.017 961.552, 216.499 1002.332, 155 991" stroke="rgb(51, 51, 51)" stroke-width="1.5" fill="none"></path></g><g><path d="M149.924 983.203 C149.924 983.203, 149.924 983.203, 149.924 983.203 M149.924 983.203 C149.924 983.203, 149.924 983.203, 149.924 983.203 M150.94 985.276 C151.698 984.498, 152.02 983.181, 152.452 982.95 M150.883 985.342 C151.184 984.681, 151.684 984.242, 152.689 982.676 M151.423 987.255 C152.376 985.481, 153.186 984.438, 155.504 982.754 M151.733 987.241 C153.135 985.347, 154.634 983.375, 155.811 982.088 M153.737 988.836 C155.039 987.349, 156.06 985.226, 157.802 981.533 M153.263 988.733 C154.275 987.197, 156.44 984.854, 158.362 981.535 M154.506 991.658 C156.514 988.548, 158.229 987.041, 160.583 981.947 M154.461 991.593 C155.384 989.45, 156.83 986.8, 160.564 982.527" stroke="rgb(51, 51, 51)" stroke-width="1.33" fill="none"></path><path d="M159.457 982.919 C157.479 987.091, 156.544 991.433, 154.671 994.266 M160.079 982.23 C158.223 985.27, 157.757 988.087, 154.475 993.572 M156.03 992.794 C152.714 990.97, 151.992 987.146, 149.545 982.904 M154.462 993.499 C153.938 990.348, 152.474 987.472, 150.218 983.223 M149.448 983.179 C153.094 982.341, 155.274 982.792, 160.869 982.88 M150.341 983.357 C151.869 983.252, 154.226 983.095, 160.439 982.196" stroke="rgb(51, 51, 51)" stroke-width="1" fill="none"></path></g></svg>