<?xml version="1.0" encoding="UTF-8"?>
<?xml-stylesheet href="https://cdnjs.cloudflare.com/ajax/libs/font-awesome/6.7.2/css/all.min.css" type="text/css"?>
<svg xmlns="http://www.w3.org/2000/svg" xmlns:xlink="http://www.w3.org/1999/xlink" width="100%" height="100%" stroke-linecap="round" id="graph-div" viewBox="0 0 875 1194" style="max-width: 100%; background-color: rgb(255, 255, 255);"><g><path d="M674.97 1121.033 C674.97 1121.033, 674.97 1121.033, 674.97 1121.033 M674.97 1121.033 C674.97 1121.033, 674.97 1121.033, 674.97 1121.033 M675.081 1123.859 C676.095 1121.95, 678.109 1121.369, 679.832 1118.719 M675.081 1123.859 C676.543 1121.966, 678.652 1120.082, 679.832 1118.719 M675.192 1126.685 C677.575 1122.892, 680.471 1120.31, 682.659 1118.608 M675.192 1126.685 C677.668 1123.596, 680.299 1121.068, 682.659 1118.608 M675.303 1129.511 C678.155 1127.137, 679.737 1123.439, 685.485 1118.497 M675.303 1129.511 C677.004 1126.339, 679.369 1123.63, 685.485 1118.497 M674.735 1133.072 C678.459 1131.12, 681.592 1127.533, 688.311 1118.386 M674.735 1133.072 C679.574 1129.127, 682.619 1124.012, 688.311 1118.386 M674.846 1135.898 C681.211 1129.338, 686.412 1124.716, 691.137 1118.275 M674.846 1135.898 C677.592 1133.09, 681.046 1127.909, 691.137 1118.275 M674.957 1138.725 C680.107 1135.595, 685.17 1129.578, 693.285 1118.898 M674.957 1138.725 C677.936 1133.902, 682.704 1130.928, 693.285 1118.898 M675.068 1141.551 C682.443 1133.445, 689.09 1129.324, 696.111 1118.787 M675.068 1141.551 C681.378 1133.209, 689.822 1126.971, 696.111 1118.787 M675.179 1144.377 C680.414 1136.912, 686.625 1131.735, 698.937 1118.676 M675.179 1144.377 C680.195 1139.696, 684.629 1132.816, 698.937 1118.676 M675.29 1147.203 C679.633 1142.846, 686.495 1133.543, 701.764 1118.565 M675.29 1147.203 C684.289 1137.097, 694.751 1126.05, 701.764 1118.565 M674.722 1150.764 C681.864 1140.252, 690.518 1133.301, 704.59 1118.454 M674.722 1150.764 C681.081 1143.246, 688.863 1135.981, 704.59 1118.454 M674.833 1153.59 C682.466 1142.649, 691.37 1133.396, 707.416 1118.343 M674.833 1153.59 C686.956 1140.055, 698.96 1127.461, 707.416 1118.343 M674.944 1156.416 C684.611 1143.796, 697.919 1133.895, 709.564 1118.967 M674.944 1156.416 C687.023 1143.309, 701.129 1129.778, 709.564 1118.967 M675.055 1159.243 C686.296 1144.908, 697.887 1131.529, 712.39 1118.856 M675.055 1159.243 C683.494 1149.253, 693.11 1138.945, 712.39 1118.856 M675.166 1162.069 C685.523 1152.796, 692.6 1142.827, 715.216 1118.745 M675.166 1162.069 C689.935 1145.347, 706.867 1127.816, 715.216 1118.745 M675.277 1164.895 C690.214 1147.284, 704.622 1130.931, 718.042 1118.634 M675.277 1164.895 C691.352 1146.625, 708.059 1127.381, 718.042 1118.634 M674.709 1168.456 C683.704 1158.205, 695.186 1148.448, 720.869 1118.523 M674.709 1168.456 C683.624 1156.916, 694.104 1146.469, 720.869 1118.523 M674.82 1171.282 C691.366 1153.112, 709.228 1131.247, 723.695 1118.412 M674.82 1171.282 C688.724 1154.693, 704.215 1140.433, 723.695 1118.412 M674.931 1174.108 C686.321 1160.969, 699.228 1150.452, 726.521 1118.301 M674.931 1174.108 C686.44 1161.519, 696.23 1151.225, 726.521 1118.301 M675.042 1176.934 C695.866 1156.302, 716.736 1133.07, 728.668 1118.924 M675.042 1176.934 C696.374 1154.326, 717.623 1130.151, 728.668 1118.924 M675.153 1179.761 C694.864 1160.132, 711.424 1137.838, 731.495 1118.813 M675.153 1179.761 C691.768 1161.433, 709.594 1142.513, 731.495 1118.813 M675.943 1181.853 C690.506 1163.265, 708.942 1148.874, 734.321 1118.702 M675.943 1181.853 C689.242 1167.493, 704.334 1151.043, 734.321 1118.702 M677.411 1183.21 C692.634 1166.187, 710.827 1148.746, 737.147 1118.591 M677.411 1183.21 C699.604 1159.523, 720.908 1136.365, 737.147 1118.591 M680.237 1183.099 C693.093 1165.636, 708.033 1150.905, 739.973 1118.48 M680.237 1183.099 C701.861 1159.444, 723.209 1136.674, 739.973 1118.48 M683.064 1182.988 C696.655 1167.316, 711.918 1148.712, 742.8 1118.369 M683.064 1182.988 C705.228 1158.922, 725.456 1135.874, 742.8 1118.369 M685.211 1183.612 C702.069 1164.644, 719.309 1149.659, 744.947 1118.993 M685.211 1183.612 C708.76 1159.385, 731.226 1134.269, 744.947 1118.993 M688.037 1183.501 C702.349 1170.642, 715.238 1155.359, 747.773 1118.882 M688.037 1183.501 C704.156 1165.165, 721.471 1147.671, 747.773 1118.882 M690.864 1183.39 C711.159 1161.227, 732.971 1136.128, 750.6 1118.771 M690.864 1183.39 C711.049 1161.495, 729.972 1140.609, 750.6 1118.771 M693.69 1183.279 C711.843 1162.027, 731.327 1145.388, 753.426 1118.66 M693.69 1183.279 C715.352 1159.179, 738.554 1134.977, 753.426 1118.66 M696.516 1183.168 C714.558 1163.456, 728.589 1146.734, 756.252 1118.549 M696.516 1183.168 C719.648 1158.79, 743.076 1132.419, 756.252 1118.549 M699.342 1183.057 C722.031 1157.442, 745.845 1133.635, 759.078 1118.438 M699.342 1183.057 C715.852 1166.452, 730.662 1148.801, 759.078 1118.438 M702.169 1182.946 C721.388 1162.824, 737.216 1144.989, 761.226 1119.061 M702.169 1182.946 C715.36 1168.978, 729.321 1154.352, 761.226 1119.061 M704.316 1183.569 C727.858 1158.403, 752.42 1131.914, 764.052 1118.95 M704.316 1183.569 C726.654 1157.569, 750.248 1134.23, 764.052 1118.95 M707.142 1183.458 C725.455 1163.855, 745.107 1140.527, 766.878 1118.839 M707.142 1183.458 C720 1169.269, 731.54 1157.313, 766.878 1118.839 M709.969 1183.347 C724.922 1166.142, 743.118 1149.052, 769.705 1118.728 M709.969 1183.347 C720.867 1170.299, 733.925 1157.637, 769.705 1118.728 M712.795 1183.236 C730.708 1162.072, 749.312 1146.659, 772.531 1118.617 M712.795 1183.236 C725.802 1169.303, 738.129 1155.074, 772.531 1118.617 M715.621 1183.125 C737.907 1160.607, 758.435 1138.571, 775.357 1118.506 M715.621 1183.125 C732.379 1164.683, 747.069 1146.873, 775.357 1118.506 M718.447 1183.014 C738.24 1164.164, 758.251 1140.116, 778.183 1118.395 M718.447 1183.014 C739.818 1160.112, 762.4 1137.481, 778.183 1118.395 M720.595 1183.638 C737.068 1163.669, 755.711 1146.345, 780.331 1119.019 M720.595 1183.638 C740.073 1161.496, 761.392 1139.288, 780.331 1119.019 M723.421 1183.527 C736.097 1167.686, 751.371 1154.19, 783.157 1118.908 M723.421 1183.527 C746.462 1159.539, 769.14 1135.806, 783.157 1118.908 M726.247 1183.416 C738.739 1168.997, 754.977 1154.003, 785.983 1118.797 M726.247 1183.416 C745.197 1161.457, 765.379 1141.616, 785.983 1118.797 M729.074 1183.305 C749.95 1156.038, 774.776 1132.217, 788.809 1118.686 M729.074 1183.305 C741.288 1168.799, 756.297 1153.976, 788.809 1118.686 M731.9 1183.194 C751.903 1161.278, 770.261 1140.204, 791.636 1118.575 M731.9 1183.194 C748.599 1167.196, 762.72 1151.022, 791.636 1118.575 M734.726 1183.083 C755.921 1159.519, 781.035 1134.013, 794.462 1118.464 M734.726 1183.083 C753.743 1162.76, 771.236 1142.352, 794.462 1118.464 M736.873 1183.706 C750.497 1169.601, 765.477 1155.022, 796.609 1119.087 M736.873 1183.706 C756.916 1161.634, 778.925 1138.287, 796.609 1119.087 M739.7 1183.595 C756.875 1165.03, 771.819 1149.781, 799.436 1118.976 M739.7 1183.595 C761.822 1160.818, 783.18 1136.684, 799.436 1118.976 M742.526 1183.484 C759.103 1164.169, 779.234 1143.4, 802.262 1118.865 M742.526 1183.484 C757.291 1168.865, 770.254 1153.439, 802.262 1118.865 M745.352 1183.373 C759.82 1166.183, 774.782 1150.896, 805.088 1118.754 M745.352 1183.373 C767.339 1159.461, 787.67 1136.971, 805.088 1118.754 M748.178 1183.262 C768.949 1158.373, 793.648 1130.82, 807.914 1118.643 M748.178 1183.262 C766.439 1163.693, 783.867 1144.919, 807.914 1118.643 M751.005 1183.151 C771.283 1163.87, 786.358 1143.672, 810.741 1118.532 M751.005 1183.151 C768.736 1164.167, 785.369 1146.027, 810.741 1118.532 M753.831 1183.04 C774.547 1162.077, 794.965 1139.158, 812.888 1119.155 M753.831 1183.04 C769.996 1167.267, 785.262 1148.748, 812.888 1119.155 M755.978 1183.663 C772.034 1165.463, 789.823 1148.15, 815.714 1119.044 M755.978 1183.663 C778.9 1159.616, 800.2 1135.39, 815.714 1119.044 M758.805 1183.552 C779.754 1160.907, 802.382 1136.766, 818.541 1118.933 M758.805 1183.552 C774.688 1164.43, 791.896 1145.443, 818.541 1118.933 M761.631 1183.441 C781.574 1163.5, 800.107 1142.74, 821.367 1118.822 M761.631 1183.441 C773.593 1169.723, 786.256 1157.834, 821.367 1118.822 M764.457 1183.33 C786.655 1157.486, 810.046 1131.873, 823.514 1119.446 M764.457 1183.33 C783.223 1161.548, 804.022 1140.333, 823.514 1119.446 M767.283 1183.22 C778.745 1171.602, 790.937 1157.295, 824.983 1120.803 M767.283 1183.22 C789.501 1160.389, 811.675 1136.154, 824.983 1120.803 M770.11 1183.109 C789.124 1163.801, 808.101 1141.419, 825.773 1122.895 M770.11 1183.109 C784.46 1168.195, 798.816 1154.615, 825.773 1122.895 M772.257 1183.732 C785.909 1172.648, 796.43 1158.601, 825.884 1125.722 M772.257 1183.732 C789.427 1164.76, 805.611 1147.885, 825.884 1125.722 M775.083 1183.621 C791.337 1163.753, 809.477 1146.464, 825.316 1129.282 M775.083 1183.621 C792.81 1164.629, 811.225 1143.51, 825.316 1129.282 M777.91 1183.51 C790.691 1165.15, 808.028 1152.782, 825.427 1132.108 M777.91 1183.51 C794.177 1165.71, 810.313 1147.722, 825.427 1132.108 M780.736 1183.399 C797.414 1164.175, 813.301 1147.035, 825.538 1134.935 M780.736 1183.399 C790.405 1173.829, 799.384 1163.184, 825.538 1134.935 M783.562 1183.288 C795.266 1171.678, 801.657 1159.502, 825.649 1137.761 M783.562 1183.288 C795.065 1172.083, 807.114 1158.202, 825.649 1137.761 M786.388 1183.177 C802.623 1167.258, 818.241 1150.835, 825.76 1140.587 M786.388 1183.177 C800.462 1168.44, 812.738 1153.405, 825.76 1140.587 M788.536 1183.8 C799.899 1174.759, 808.846 1165.674, 825.192 1144.148 M788.536 1183.8 C799.268 1172.648, 808.881 1162.992, 825.192 1144.148 M791.362 1183.689 C802.506 1170.681, 815.795 1158.862, 825.303 1146.974 M791.362 1183.689 C805.503 1168.506, 817.448 1155.077, 825.303 1146.974 M794.188 1183.578 C803.294 1171.721, 817.689 1160.236, 825.414 1149.8 M794.188 1183.578 C806.983 1168.937, 819.517 1155.503, 825.414 1149.8 M797.014 1183.467 C808.016 1173.673, 819.323 1159.459, 825.525 1152.627 M797.014 1183.467 C802.487 1176.936, 809.657 1171.448, 825.525 1152.627 M799.841 1183.356 C807.359 1173.623, 815.626 1165.909, 825.636 1155.453 M799.841 1183.356 C806.661 1177.378, 810.985 1170.872, 825.636 1155.453 M802.667 1183.245 C809.758 1175.479, 815.061 1169.114, 825.747 1158.279 M802.667 1183.245 C811.356 1173.773, 820.465 1165.413, 825.747 1158.279 M805.493 1183.134 C813.858 1175.773, 816.622 1168.186, 825.179 1161.84 M805.493 1183.134 C809.243 1177.453, 813.872 1173.388, 825.179 1161.84 M807.641 1183.758 C810.819 1178.431, 816.09 1172.89, 825.29 1164.666 M807.641 1183.758 C811.34 1179.191, 815.116 1174.91, 825.29 1164.666 M810.467 1183.647 C815.874 1178.177, 821.414 1170.586, 825.401 1167.492 M810.467 1183.647 C813.424 1179.397, 816.169 1177.131, 825.401 1167.492 M813.293 1183.536 C818.099 1179.338, 820.392 1174.808, 825.512 1170.318 M813.293 1183.536 C817.44 1179.776, 821.336 1176.044, 825.512 1170.318 M816.119 1183.425 C819.782 1180.284, 823.446 1176.188, 825.623 1173.145 M816.119 1183.425 C818.598 1180.4, 820.829 1178.952, 825.623 1173.145 M818.946 1183.314 C821.491 1181.251, 824.076 1177.894, 825.055 1176.705 M818.946 1183.314 C820.796 1181.498, 822.297 1179.14, 825.055 1176.705 M821.772 1183.203 C822.706 1181.966, 823.378 1181.507, 825.166 1179.531 M821.772 1183.203 C823.032 1181.804, 824.053 1180.908, 825.166 1179.531" stroke="rgb(236, 236, 255)" stroke-width="1.637" fill="none"></path><path d="M678 1118 C726.353 1119.063, 771.564 1119.369, 822 1118 M822 1118 C822.993 1117.734, 826.369 1119.459, 825 1121 M825 1121 C824.65 1141.694, 827 1163.316, 825 1180 M825 1180 C824.304 1181.539, 825.173 1184.329, 822 1183 M822 1183 C770.011 1181.953, 717.731 1181.08, 678 1183 M678 1183 C678.307 1183.029, 676.742 1180.975, 675 1180 M675 1180 C675.947 1156.607, 672.619 1135.695, 675 1121 M675 1121 C674.636 1118.38, 675.197 1118.258, 678 1118 M678 1118 C678 1118, 678 1118, 678 1118" stroke="rgb(218, 206, 243)" stroke-width="1" fill="none"></path></g><g class="text-container" transform="matrix(1 0 0 1 95 10)"><text x="655" y="1140.5" dominant-baseline="central" alignment-baseline="central" class="actor actor-box" style="text-anchor: middle; font-size: 16px; font-weight: 400;font-style: normal;font-weight: 400;font-size: 16px;font-family: Comic Sans MS, cursive;" stroke="rgb(218, 206, 243)" stroke-width="1px" fill="rgb(236, 236, 255)" text-anchor="middle"><tspan x="655" dy="0" stroke="none" stroke-width="1px" fill="rgb(0, 0, 0)" text-anchor="middle" dominant-baseline="central">同步通道(缓存=0)</tspan></text></g><g><path d="M294.974 1121.037 C294.974 1121.037, 294.974 1121.037, 294.974 1121.037 M294.974 1121.037 C294.974 1121.037, 294.974 1121.037, 294.974 1121.037 M295.063 1126.036 C297.091 1124.441, 297.742 1121.574, 300.919 1117.93 M295.063 1126.036 C296.969 1123.637, 298.362 1121.658, 300.919 1117.93 M295.153 1131.035 C297.776 1128.375, 300.853 1123.899, 304.522 1118.065 M295.153 1131.035 C297.775 1125.986, 301.696 1120.862, 304.522 1118.065 M295.242 1136.034 C298.142 1128.847, 303.788 1123.842, 308.125 1118.201 M295.242 1136.034 C300.239 1129.655, 303.877 1124.146, 308.125 1118.201 M294.746 1141.844 C296.283 1138.883, 301.574 1134.201, 311.728 1118.336 M294.746 1141.844 C299.479 1133.587, 306.891 1125.766, 311.728 1118.336 M294.836 1146.843 C302.471 1138.171, 308.537 1130.994, 315.331 1118.472 M294.836 1146.843 C303.355 1137.13, 310.999 1126.136, 315.331 1118.472 M294.925 1151.842 C298.649 1144.26, 304.01 1136.26, 318.934 1118.607 M294.925 1151.842 C300.238 1143.376, 305.423 1136.302, 318.934 1118.607 M295.015 1156.842 C303.655 1144.283, 314.574 1129.657, 323.122 1117.932 M295.015 1156.842 C302.101 1147.641, 308.812 1136.202, 323.122 1117.932 M295.104 1161.841 C306.591 1149.206, 314.476 1131.281, 326.725 1118.068 M295.104 1161.841 C301.437 1153.292, 309.899 1143.446, 326.725 1118.068 M295.194 1166.84 C304.547 1154.09, 315.331 1142.691, 330.328 1118.203 M295.194 1166.84 C306.939 1149.543, 320.253 1130.39, 330.328 1118.203 M295.283 1171.839 C305.962 1159.994, 314.309 1146.503, 333.931 1118.339 M295.283 1171.839 C304.828 1158.629, 315.835 1145.403, 333.931 1118.339 M294.787 1177.649 C304.912 1165.899, 310.463 1154.233, 337.534 1118.474 M294.787 1177.649 C303.963 1164.06, 313.251 1152.946, 337.534 1118.474 M296.048 1181.027 C307.814 1165.713, 317.128 1153.416, 341.137 1118.61 M296.048 1181.027 C310.732 1158.204, 328.178 1136.093, 341.137 1118.61 M298.48 1182.784 C316.881 1158.506, 333.598 1134.914, 345.326 1117.934 M298.48 1182.784 C312.405 1163.986, 326.014 1145.424, 345.326 1117.934 M302.083 1182.919 C318.952 1160.313, 334.408 1138.458, 348.929 1118.07 M302.083 1182.919 C317.973 1160.922, 334.007 1139.79, 348.929 1118.07 M305.686 1183.055 C319.177 1165.854, 328.361 1150.765, 352.532 1118.205 M305.686 1183.055 C325.045 1157.93, 341.585 1132.387, 352.532 1118.205 M309.289 1183.19 C323.297 1162.5, 337.838 1145.144, 356.135 1118.341 M309.289 1183.19 C324.972 1161.031, 341.236 1138.632, 356.135 1118.341 M312.892 1183.326 C325.049 1166.968, 333.778 1150, 359.738 1118.476 M312.892 1183.326 C322.605 1170.409, 332.419 1157.037, 359.738 1118.476 M317.08 1182.651 C333.314 1161.125, 345.512 1143.409, 363.341 1118.612 M317.08 1182.651 C327.81 1168.403, 336.702 1155.891, 363.341 1118.612 M320.683 1182.786 C334.869 1162.181, 350.622 1139.691, 367.53 1117.937 M320.683 1182.786 C336.647 1159.991, 354.7 1136.001, 367.53 1117.937 M324.286 1182.922 C335.863 1164.772, 347.85 1148.721, 371.133 1118.072 M324.286 1182.922 C336.67 1167.122, 350.332 1149.004, 371.133 1118.072 M327.889 1183.057 C341.43 1166.688, 352.3 1148.912, 374.736 1118.208 M327.889 1183.057 C343.304 1162.523, 357.688 1142.27, 374.736 1118.208 M331.492 1183.193 C348.785 1161.569, 361.28 1141.414, 378.339 1118.343 M331.492 1183.193 C348.486 1161.436, 363.461 1139.723, 378.339 1118.343 M335.095 1183.328 C349.821 1166.831, 363.005 1147.254, 381.942 1118.479 M335.095 1183.328 C348.241 1167.29, 359.742 1149.204, 381.942 1118.479 M339.284 1182.653 C354.946 1164.933, 367.463 1144.312, 385.545 1118.614 M339.284 1182.653 C348.496 1169.86, 359.62 1155.683, 385.545 1118.614 M342.887 1182.789 C354.762 1164.397, 368.568 1143.041, 389.148 1118.75 M342.887 1182.789 C355.135 1165.431, 368.452 1147.15, 389.148 1118.75 M346.49 1182.924 C360.349 1163.285, 373.829 1147.681, 393.336 1118.075 M346.49 1182.924 C356.516 1168.508, 366.857 1152.971, 393.336 1118.075 M350.093 1183.06 C365.581 1165.836, 378.555 1143.645, 396.939 1118.21 M350.093 1183.06 C367.21 1158.358, 385.856 1132.439, 396.939 1118.21 M353.696 1183.195 C363.014 1169.554, 373.156 1156.985, 400.542 1118.346 M353.696 1183.195 C367.533 1163.572, 381.763 1143.84, 400.542 1118.346 M357.299 1183.331 C375.579 1158.764, 395.728 1133.4, 404.145 1118.481 M357.299 1183.331 C376.388 1158.141, 394.709 1132.651, 404.145 1118.481 M360.902 1183.466 C374.084 1167.291, 385.249 1150.819, 407.748 1118.617 M360.902 1183.466 C377.232 1160.442, 393.872 1137.835, 407.748 1118.617 M365.091 1182.791 C376.404 1168.615, 384.196 1158.604, 411.351 1118.752 M365.091 1182.791 C375.574 1167.001, 385.792 1153.65, 411.351 1118.752 M368.694 1182.926 C382.826 1164.837, 396.454 1145.144, 415.54 1118.077 M368.694 1182.926 C383.387 1162.882, 397.948 1143.007, 415.54 1118.077 M372.297 1183.062 C386.362 1162.721, 403.378 1141.784, 419.143 1118.213 M372.297 1183.062 C382.481 1169.586, 392.076 1154.751, 419.143 1118.213 M375.9 1183.197 C387.989 1165.552, 398.758 1149.977, 422.746 1118.348 M375.9 1183.197 C392.208 1160.142, 408.184 1137.441, 422.746 1118.348 M379.503 1183.333 C390.304 1171.122, 398.531 1156.737, 426.349 1118.484 M379.503 1183.333 C395.553 1162.06, 411.019 1139.032, 426.349 1118.484 M383.106 1183.468 C399.389 1156.754, 417.381 1132.821, 429.952 1118.619 M383.106 1183.468 C397.836 1163.134, 412.073 1143.196, 429.952 1118.619 M387.294 1182.793 C398.668 1167.03, 412.609 1151.721, 433.555 1118.755 M387.294 1182.793 C398.737 1166.433, 411.337 1149.08, 433.555 1118.755 M390.897 1182.929 C406.153 1160.369, 419.982 1141.379, 437.743 1118.08 M390.897 1182.929 C402.945 1167.484, 414.505 1150.649, 437.743 1118.08 M394.5 1183.064 C407.009 1166.666, 416.718 1153.838, 441.346 1118.215 M394.5 1183.064 C411.102 1160.414, 426.418 1137.996, 441.346 1118.215 M398.103 1183.2 C408.906 1164.045, 424.926 1147.334, 444.364 1119.161 M398.103 1183.2 C413.174 1160.536, 430.021 1138.427, 444.364 1119.161 M401.706 1183.335 C415.812 1163.721, 428.653 1146.473, 445.039 1123.35 M401.706 1183.335 C416.632 1161.546, 433.189 1139.872, 445.039 1123.35 M405.309 1183.471 C418.98 1164.959, 432.345 1145.366, 445.129 1128.349 M405.309 1183.471 C420.228 1161.478, 435.223 1141.709, 445.129 1128.349 M409.498 1182.796 C415.384 1172.986, 425.496 1161.757, 445.218 1133.348 M409.498 1182.796 C422.488 1165.161, 435.82 1146.287, 445.218 1133.348 M413.101 1182.931 C422.621 1171.841, 429.622 1156.458, 445.308 1138.347 M413.101 1182.931 C424.683 1166.268, 436.161 1150.727, 445.308 1138.347 M416.704 1183.067 C420.794 1173.125, 426.868 1164.784, 445.397 1143.347 M416.704 1183.067 C425.703 1171.603, 432.683 1160.772, 445.397 1143.347 M420.307 1183.202 C429.204 1175.101, 435.761 1165.306, 445.487 1148.346 M420.307 1183.202 C426.031 1176.163, 430.414 1168.986, 445.487 1148.346 M423.91 1183.338 C431.358 1172.595, 441.542 1162.901, 444.991 1154.156 M423.91 1183.338 C431.434 1171.728, 440.592 1160, 444.991 1154.156 M427.513 1183.473 C431.934 1176.527, 436.452 1173.971, 445.08 1159.155 M427.513 1183.473 C432.165 1176.793, 436.88 1168.528, 445.08 1159.155 M431.701 1182.798 C435.151 1178.608, 437.351 1175.484, 445.17 1164.154 M431.701 1182.798 C435.683 1177.182, 438.367 1173.659, 445.17 1164.154 M435.304 1182.934 C439.821 1176.728, 443.179 1173.807, 445.259 1169.153 M435.304 1182.934 C438.976 1177.907, 442.583 1174.073, 445.259 1169.153 M438.907 1183.069 C441.001 1178.471, 443.777 1176.379, 445.349 1174.152 M438.907 1183.069 C440.79 1180.684, 442.003 1177.609, 445.349 1174.152 M442.51 1183.205 C442.943 1182.307, 443.779 1181.087, 444.853 1179.962 M442.51 1183.205 C442.997 1182.458, 443.661 1181.595, 444.853 1179.962" stroke="rgb(236, 236, 255)" stroke-width="1.222" fill="none"></path><path d="M298 1118 C342.179 1116.614, 384.181 1117.18, 442 1118 M442 1118 C444.999 1117.671, 445.511 1117.736, 445 1121 M445 1121 C446.041 1143.498, 445.478 1163.258, 445 1180 M445 1180 C443.359 1182.994, 444.186 1181.847, 442 1183 M442 1183 C397.922 1181.3, 357.995 1183.842, 298 1183 M298 1183 C296.77 1183.362, 296.079 1179.709, 295 1180 M295 1180 C296.022 1160.325, 295.437 1141.122, 295 1121 M295 1121 C296.509 1119.931, 294.999 1118.679, 298 1118 M298 1118 C298 1118, 298 1118, 298 1118" stroke="rgb(218, 206, 243)" stroke-width="1" fill="none"></path></g><g class="text-container" transform="matrix(1 0 0 1 95 10)"><text x="275" y="1140.5" dominant-baseline="central" alignment-baseline="central" class="actor actor-box" style="text-anchor: middle; font-size: 16px; font-weight: 400;font-style: normal;font-weight: 400;font-size: 16px;font-family: Comic Sans MS, cursive;" stroke="rgb(218, 206, 243)" stroke-width="1px" fill="rgb(236, 236, 255)" text-anchor="middle"><tspan x="275" dy="0" stroke="none" stroke-width="1px" fill="rgb(0, 0, 0)" text-anchor="middle" dominant-baseline="central">子线程</tspan></text></g><g><path d="M98.166 1117.849 C98.166 1117.849, 98.166 1117.849, 98.166 1117.849 M98.166 1117.849 C98.166 1117.849, 98.166 1117.849, 98.166 1117.849 M95.815 1122.694 C97.715 1120.784, 98.205 1120.175, 100.991 1117.982 M95.815 1122.694 C97.855 1121.071, 100.001 1119.213, 100.991 1117.982 M95.683 1125.52 C98.472 1124.426, 101.168 1122.535, 103.816 1118.114 M95.683 1125.52 C98.987 1122.763, 101.63 1119.62, 103.816 1118.114 M95.55 1128.345 C99.399 1124.478, 102.926 1120.427, 106.642 1118.246 M95.55 1128.345 C98.67 1125.366, 101.494 1123.198, 106.642 1118.246 M95.418 1131.17 C100.338 1127.091, 103.678 1124.163, 110.206 1117.705 M95.418 1131.17 C101.237 1126.251, 106.361 1122.392, 110.206 1117.705 M95.286 1133.996 C104.19 1128.186, 109.797 1119.287, 113.032 1117.838 M95.286 1133.996 C101.018 1128.356, 107.393 1123.313, 113.032 1117.838 M95.893 1136.148 C102.29 1131.366, 111.481 1122.175, 115.857 1117.97 M95.893 1136.148 C99.453 1132.221, 104.888 1128.624, 115.857 1117.97 M95.76 1138.973 C99.646 1135.757, 108.619 1126.662, 118.682 1118.102 M95.76 1138.973 C101.363 1134.169, 104.211 1129.838, 118.682 1118.102 M95.628 1141.798 C101.473 1134.014, 108.159 1129.69, 121.508 1118.235 M95.628 1141.798 C104.06 1134.588, 112.12 1127.597, 121.508 1118.235 M95.496 1144.624 C104.096 1138.298, 108.923 1129.976, 124.333 1118.367 M95.496 1144.624 C104.695 1137.832, 111.56 1129.262, 124.333 1118.367 M95.363 1147.449 C104.495 1140.193, 113.619 1131.591, 127.898 1117.826 M95.363 1147.449 C108.12 1135.474, 120.494 1124.742, 127.898 1117.826 M95.231 1150.274 C110.522 1138.143, 123.916 1125.35, 130.723 1117.959 M95.231 1150.274 C109.006 1138.84, 121.732 1124.996, 130.723 1117.959 M95.838 1152.426 C106.067 1144.446, 114.406 1135.493, 133.548 1118.091 M95.838 1152.426 C107.266 1142.165, 117.263 1133.415, 133.548 1118.091 M95.706 1155.252 C111.412 1141.887, 123.981 1129.691, 136.374 1118.223 M95.706 1155.252 C110.713 1141.58, 124.202 1128.965, 136.374 1118.223 M95.573 1158.077 C107.583 1145.222, 120.89 1136.612, 139.199 1118.356 M95.573 1158.077 C107.339 1146.609, 119.614 1137.157, 139.199 1118.356 M95.441 1160.902 C110.952 1146.741, 125.783 1132.39, 142.764 1117.815 M95.441 1160.902 C113.281 1144.849, 130.815 1129.429, 142.764 1117.815 M95.308 1163.728 C114.221 1149.015, 129.043 1134.194, 145.589 1117.947 M95.308 1163.728 C107.823 1153.747, 118.864 1141.511, 145.589 1117.947 M95.176 1166.553 C113.667 1147.649, 137.539 1131.467, 148.414 1118.08 M95.176 1166.553 C106.613 1155.695, 118.515 1145.024, 148.414 1118.08 M95.783 1168.705 C110.815 1153.4, 128.425 1138.939, 151.24 1118.212 M95.783 1168.705 C112.47 1153.538, 128.831 1138.289, 151.24 1118.212 M95.651 1171.531 C108.409 1159.705, 126.092 1143.906, 154.065 1118.344 M95.651 1171.531 C116.533 1153.411, 137.926 1132.564, 154.065 1118.344 M95.519 1174.356 C108.453 1161.828, 121.623 1151.088, 157.63 1117.803 M95.519 1174.356 C116.897 1153.674, 138.465 1135.5, 157.63 1117.803 M95.386 1177.181 C116.406 1156.942, 137.523 1137.985, 160.455 1117.936 M95.386 1177.181 C109.023 1163.667, 122.598 1151.953, 160.455 1117.936 M95.254 1180.007 C119.859 1158.021, 147.285 1132.691, 163.28 1118.068 M95.254 1180.007 C117.883 1160.542, 139.814 1139.061, 163.28 1118.068 M96.6 1181.485 C113.164 1166.557, 127.994 1153.904, 166.106 1118.2 M96.6 1181.485 C119.157 1158.736, 143.858 1138.593, 166.106 1118.2 M97.207 1183.637 C111.738 1168.346, 126.114 1158.053, 168.931 1118.333 M97.207 1183.637 C117.267 1167.163, 135.898 1148.285, 168.931 1118.333 M100.772 1183.097 C122.674 1161.536, 143.519 1142.897, 171.756 1118.465 M100.772 1183.097 C121.476 1163.478, 143.815 1144.49, 171.756 1118.465 M103.597 1183.229 C128.991 1159.866, 154.075 1135.699, 175.321 1117.924 M103.597 1183.229 C131.239 1158.52, 160.581 1132.417, 175.321 1117.924 M106.423 1183.361 C127.098 1165.289, 144.016 1146.964, 178.147 1118.057 M106.423 1183.361 C134.039 1160.081, 160.072 1136.791, 178.147 1118.057 M109.248 1183.494 C129.525 1163.713, 150.29 1144.176, 180.972 1118.189 M109.248 1183.494 C124.331 1171.536, 138.01 1158.115, 180.972 1118.189 M112.073 1183.626 C139.664 1159.841, 165.921 1134.307, 183.797 1118.321 M112.073 1183.626 C140.334 1157.622, 170.458 1131.58, 183.797 1118.321 M114.899 1183.758 C134.035 1166.242, 151.92 1152.587, 186.623 1118.454 M114.899 1183.758 C134.186 1167.63, 150.912 1150.209, 186.623 1118.454 M118.463 1183.217 C145.969 1157.823, 170.923 1135.709, 190.187 1117.913 M118.463 1183.217 C139.542 1164.13, 159.667 1146.7, 190.187 1117.913 M121.289 1183.35 C135.778 1169.964, 153.821 1151.999, 193.013 1118.045 M121.289 1183.35 C141.541 1165.559, 161.337 1146.916, 193.013 1118.045 M124.114 1183.482 C146.095 1164.152, 165.722 1146.53, 195.838 1118.177 M124.114 1183.482 C146.089 1165.287, 165.816 1145.958, 195.838 1118.177 M126.939 1183.614 C149.039 1163.358, 174.588 1138.679, 198.663 1118.31 M126.939 1183.614 C151.773 1162.146, 176.339 1138.319, 198.663 1118.31 M129.765 1183.747 C145.583 1169.182, 161.79 1154.379, 201.489 1118.442 M129.765 1183.747 C145.709 1169.142, 160.999 1153.812, 201.489 1118.442 M133.33 1183.206 C149.918 1169.228, 163.612 1156.521, 205.053 1117.901 M133.33 1183.206 C155.868 1162.356, 178.658 1141.882, 205.053 1117.901 M136.155 1183.338 C155.195 1169.136, 173.243 1150.401, 207.879 1118.034 M136.155 1183.338 C155.119 1165.883, 175.259 1147.739, 207.879 1118.034 M138.98 1183.471 C160.168 1162.672, 179.606 1146.789, 210.704 1118.166 M138.98 1183.471 C157.838 1166.288, 177.136 1149.579, 210.704 1118.166 M141.806 1183.603 C157.355 1168.92, 172.282 1154.713, 213.529 1118.298 M141.806 1183.603 C164.344 1162.69, 189.397 1140.109, 213.529 1118.298 M144.631 1183.735 C163.601 1167.603, 179.158 1154.33, 216.355 1118.431 M144.631 1183.735 C163.08 1166.363, 180.073 1148.924, 216.355 1118.431 M148.196 1183.194 C163.313 1169.575, 182.245 1153.732, 219.18 1118.563 M148.196 1183.194 C175.616 1157.898, 202.981 1134.135, 219.18 1118.563 M151.021 1183.327 C174.401 1163.427, 196.977 1142.382, 222.745 1118.022 M151.021 1183.327 C171.583 1165.91, 190.082 1146.235, 222.745 1118.022 M153.846 1183.459 C169.56 1169.777, 187.413 1153.633, 225.57 1118.154 M153.846 1183.459 C172.448 1166.131, 191.373 1149.368, 225.57 1118.154 M156.672 1183.591 C184.645 1159.196, 213.903 1133.616, 228.395 1118.287 M156.672 1183.591 C177.862 1164.012, 198.48 1145.453, 228.395 1118.287 M159.497 1183.724 C175.226 1166.253, 193.161 1151.491, 231.221 1118.419 M159.497 1183.724 C181.486 1162.514, 205.809 1141.72, 231.221 1118.419 M162.322 1183.856 C180.981 1166.45, 198.327 1154.361, 234.046 1118.552 M162.322 1183.856 C183.902 1165.198, 206.125 1144.769, 234.046 1118.552 M165.887 1183.315 C189.063 1165.224, 207.351 1145.828, 237.611 1118.011 M165.887 1183.315 C191.9 1159.848, 217.468 1137.627, 237.611 1118.011 M168.712 1183.448 C197.677 1157.184, 224.505 1132.704, 240.436 1118.143 M168.712 1183.448 C193.953 1158.864, 220.112 1136.325, 240.436 1118.143 M171.538 1183.58 C191.036 1168.287, 209.987 1147.42, 243.261 1118.275 M171.538 1183.58 C195.19 1159.884, 220.72 1137.201, 243.261 1118.275 M174.363 1183.712 C199.345 1161.172, 227.366 1134.033, 244.608 1119.754 M174.363 1183.712 C192.017 1167.144, 210.147 1150.246, 244.608 1119.754 M177.188 1183.845 C202.96 1158.584, 229.551 1137.516, 245.215 1121.906 M177.188 1183.845 C202.65 1160.889, 226.467 1137.499, 245.215 1121.906 M180.753 1183.304 C206.8 1160.289, 230.736 1136.749, 245.822 1124.058 M180.753 1183.304 C200.442 1164.538, 218.972 1146.871, 245.822 1124.058 M183.578 1183.436 C197.935 1172.088, 209.745 1160.807, 245.69 1126.884 M183.578 1183.436 C204.576 1165.351, 225.118 1146.505, 245.69 1126.884 M186.404 1183.569 C199.676 1171.438, 214.801 1158.97, 245.557 1129.709 M186.404 1183.569 C203.948 1168.946, 221.291 1152.548, 245.557 1129.709 M189.229 1183.701 C205.789 1169.142, 223.779 1154.198, 245.425 1132.534 M189.229 1183.701 C210.58 1164.549, 234.221 1142.551, 245.425 1132.534 M192.054 1183.833 C210.296 1167.629, 229.684 1147.463, 245.293 1135.36 M192.054 1183.833 C210.713 1166.59, 229.368 1150.385, 245.293 1135.36 M195.619 1183.292 C212.746 1168.237, 230.813 1154.6, 245.16 1138.185 M195.619 1183.292 C213.279 1166.227, 230.647 1150.468, 245.16 1138.185 M198.444 1183.425 C208.043 1172.199, 218.778 1163.985, 245.767 1140.337 M198.444 1183.425 C212.057 1169.497, 226.827 1156.175, 245.767 1140.337 M201.27 1183.557 C215.204 1168.598, 233.797 1155.633, 245.635 1143.162 M201.27 1183.557 C211.801 1174.569, 222.583 1165.134, 245.635 1143.162 M204.095 1183.689 C212.675 1175.158, 221.447 1166.548, 245.503 1145.988 M204.095 1183.689 C216.78 1172.614, 227.282 1161.588, 245.503 1145.988 M206.92 1183.822 C213.765 1178.306, 222.506 1168.701, 245.37 1148.813 M206.92 1183.822 C220.415 1172.083, 232.189 1160.01, 245.37 1148.813 M209.746 1183.954 C219.488 1175.506, 230.745 1165.726, 245.238 1151.638 M209.746 1183.954 C219.132 1176.381, 227.521 1167.648, 245.238 1151.638 M213.311 1183.413 C224.723 1174.59, 233.153 1163.63, 245.106 1154.464 M213.311 1183.413 C220.617 1175.884, 227.282 1169.602, 245.106 1154.464 M216.136 1183.546 C222.564 1176.292, 229.612 1170.945, 245.713 1156.616 M216.136 1183.546 C222.072 1178.206, 229.374 1171.451, 245.713 1156.616 M218.961 1183.678 C226.688 1179.265, 229.626 1173.022, 245.58 1159.441 M218.961 1183.678 C228.844 1176.031, 237.073 1167.699, 245.58 1159.441 M221.787 1183.81 C229.205 1176.706, 240.545 1166.677, 245.448 1162.266 M221.787 1183.81 C229.248 1177.016, 236.84 1170.717, 245.448 1162.266 M224.612 1183.943 C232.075 1175.068, 242.436 1169.652, 245.316 1165.092 M224.612 1183.943 C228.362 1179.966, 232.52 1177.126, 245.316 1165.092 M228.177 1183.402 C233.383 1180.802, 237.366 1177.695, 245.183 1167.917 M228.177 1183.402 C232.844 1180.432, 234.999 1176.463, 245.183 1167.917 M231.002 1183.534 C234.239 1180.509, 242.22 1173.449, 245.051 1170.742 M231.002 1183.534 C235.402 1179.952, 239.197 1176.049, 245.051 1170.742 M233.827 1183.666 C236.197 1181.879, 240.076 1175.908, 245.658 1172.895 M233.827 1183.666 C237.066 1181.712, 239.016 1178.277, 245.658 1172.895 M236.653 1183.799 C238.542 1182.269, 242.183 1178.327, 245.526 1175.72 M236.653 1183.799 C238.629 1181.498, 239.712 1181.004, 245.526 1175.72 M239.478 1183.931 C241.85 1182.467, 243.181 1181.01, 245.393 1178.545 M239.478 1183.931 C241.638 1181.998, 244.076 1179.57, 245.393 1178.545" stroke="rgb(236, 236, 255)" stroke-width="2.44" fill="none"></path><path d="M98 1118 C142.777 1117.237, 192.072 1118.012, 242 1118 M242 1118 C243.237 1117.395, 243.764 1120.271, 245 1121 M245 1121 C247.208 1141.167, 243.771 1163.507, 245 1180 M245 1180 C245.993 1180.965, 241.965 1183.576, 242 1183 M242 1183 C198.357 1182.459, 152.293 1182.628, 98 1183 M98 1183 C95.605 1183.513, 95.366 1179.758, 95 1180 M95 1180 C94.676 1162.013, 92.636 1144.284, 95 1121 M95 1121 C94.95 1119.582, 95.99 1116.068, 98 1118 M98 1118 C98 1118, 98 1118, 98 1118" stroke="rgb(218, 206, 243)" stroke-width="1" fill="none"></path></g><g class="text-container" transform="matrix(1 0 0 1 95 10)"><text x="75" y="1140.5" dominant-baseline="central" alignment-baseline="central" class="actor actor-box" style="text-anchor: middle; font-size: 16px; font-weight: 400;font-style: normal;font-weight: 400;font-size: 16px;font-family: Comic Sans MS, cursive;" stroke="rgb(218, 206, 243)" stroke-width="1px" fill="rgb(236, 236, 255)" text-anchor="middle"><tspan x="75" dy="0" stroke="none" stroke-width="1px" fill="rgb(0, 0, 0)" text-anchor="middle" dominant-baseline="central">主线程</tspan></text></g><g><path d="M749.957 75.756 C751.974 390.645, 752.138 707.982, 749.488 1118.616" stroke="rgb(218, 206, 243)" stroke-width="2" fill="none"></path></g><g><path d="M674.986 13.015 C674.986 13.015, 674.986 13.015, 674.986 13.015 M674.986 13.015 C674.986 13.015, 674.986 13.015, 674.986 13.015 M675.204 18.667 C677.274 17.076, 677.49 15.701, 680.639 12.797 M675.204 18.667 C677.305 16.807, 678.988 14.787, 680.639 12.797 M674.743 25.054 C679.272 20.618, 681.339 20.081, 686.292 12.579 M674.743 25.054 C677.699 20.659, 681.208 16.886, 686.292 12.579 M674.961 30.706 C681.296 23.525, 687.248 18.223, 691.944 12.361 M674.961 30.706 C681.038 24.526, 686.88 17.665, 691.944 12.361 M675.179 36.359 C681.792 27.951, 689.146 21.475, 696.918 12.877 M675.179 36.359 C681.163 29.488, 687.059 22.581, 696.918 12.877 M674.717 42.746 C685.783 34.692, 693.173 23.367, 702.57 12.659 M674.717 42.746 C681.999 34.586, 689.671 25.03, 702.57 12.659 M674.935 48.398 C685.148 34.556, 701.2 23.599, 708.223 12.441 M674.935 48.398 C687.935 33.121, 701.501 18.775, 708.223 12.441 M675.153 54.051 C683.942 45.237, 689.378 38.114, 713.196 12.957 M675.153 54.051 C689.137 39.29, 700.995 25.501, 713.196 12.957 M674.691 60.437 C689.832 41.298, 708.362 24.33, 718.849 12.739 M674.691 60.437 C688.171 47.014, 700.614 32.798, 718.849 12.739 M674.909 66.09 C690.085 49.597, 707.605 31.67, 724.502 12.521 M674.909 66.09 C689.8 49.864, 705.688 32.271, 724.502 12.521 M675.127 71.743 C692.608 52.514, 713.607 29.891, 729.475 13.037 M675.127 71.743 C687.145 58.078, 700.606 46.021, 729.475 13.037 M677.383 75.194 C692.605 59.981, 706.003 45.826, 735.128 12.819 M677.383 75.194 C689.767 61.556, 701.253 49.775, 735.128 12.819 M683.036 74.976 C704.858 51.219, 726.427 24.689, 740.78 12.602 M683.036 74.976 C700.345 56.963, 715.852 40.941, 740.78 12.602 M688.009 75.492 C706.762 53.982, 726.661 33.653, 746.433 12.384 M688.009 75.492 C707.153 56.158, 726.322 34.968, 746.433 12.384 M693.662 75.274 C711.702 52.947, 731.145 35.53, 751.406 12.9 M693.662 75.274 C709.083 57.225, 726.183 39.752, 751.406 12.9 M699.314 75.056 C713.717 60.373, 728.513 43.705, 757.059 12.682 M699.314 75.056 C718.103 54.969, 737.409 35.323, 757.059 12.682 M704.288 75.572 C725.774 51.774, 747.405 28.858, 762.712 12.464 M704.288 75.572 C724.304 52.751, 745.105 31.906, 762.712 12.464 M709.94 75.354 C731.929 54.224, 750.186 31.405, 767.685 12.98 M709.94 75.354 C730.164 52.823, 749.922 31.116, 767.685 12.98 M715.593 75.136 C728.651 59.603, 740.909 45.576, 773.338 12.762 M715.593 75.136 C733.705 55.464, 752.598 34.257, 773.338 12.762 M720.566 75.652 C735.345 59.295, 751.038 41.573, 778.99 12.544 M720.566 75.652 C741.447 53.155, 761.754 31.273, 778.99 12.544 M726.219 75.434 C742.983 59.556, 755.201 40.359, 783.964 13.06 M726.219 75.434 C742.72 57.844, 759.454 39.674, 783.964 13.06 M731.872 75.217 C744.702 64.06, 758.588 49.294, 789.616 12.842 M731.872 75.217 C745.246 60.807, 758.107 46.279, 789.616 12.842 M737.524 74.999 C758.343 54.96, 777.551 32.638, 795.269 12.624 M737.524 74.999 C752.763 59.472, 768.1 43.348, 795.269 12.624 M742.498 75.515 C757.676 57.816, 773.864 39.53, 800.242 13.14 M742.498 75.515 C760.971 55.662, 777.959 36.507, 800.242 13.14 M748.15 75.297 C768.355 56.008, 788.476 32.745, 805.895 12.922 M748.15 75.297 C771.036 51.357, 793.873 27.083, 805.895 12.922 M753.803 75.079 C766.475 62.578, 778.17 48.75, 811.547 12.704 M753.803 75.079 C773.133 54.751, 792.226 33.418, 811.547 12.704 M758.776 75.595 C778.935 57.319, 794.747 35.673, 816.521 13.22 M758.776 75.595 C773.584 60.015, 789.233 43.7, 816.521 13.22 M764.429 75.377 C782.29 55.732, 802.815 34.374, 824.211 10.801 M764.429 75.377 C785.577 52.562, 805.403 29.015, 824.211 10.801 M770.082 75.159 C791.491 53.143, 815.432 27.946, 826.467 14.252 M770.082 75.159 C789.633 54.137, 808.486 32.794, 826.467 14.252 M775.055 75.675 C787.692 62.895, 797.198 48.015, 826.685 19.905 M775.055 75.675 C788.841 61.138, 804.076 44.449, 826.685 19.905 M780.708 75.457 C797.691 58.771, 814.783 39.582, 826.224 26.291 M780.708 75.457 C794.535 62.497, 806.382 49.006, 826.224 26.291 M786.36 75.239 C795.445 66.594, 804.234 59.083, 826.442 31.944 M786.36 75.239 C798.92 61.883, 810.303 48.611, 826.442 31.944 M791.333 75.755 C798.881 65.759, 808.182 59.888, 825.98 38.331 M791.333 75.755 C801.294 63.786, 812.481 53.571, 825.98 38.331 M796.986 75.537 C807.449 63.642, 819.504 50.809, 826.198 43.983 M796.986 75.537 C804.915 67.644, 812.563 60.448, 826.198 43.983 M802.639 75.319 C807.987 68.793, 816.597 60.669, 826.416 49.636 M802.639 75.319 C811.9 66.762, 820.574 55.845, 826.416 49.636 M808.291 75.102 C814.465 70.67, 819.618 62.521, 825.954 56.022 M808.291 75.102 C814.482 69.639, 820.634 61.802, 825.954 56.022 M813.265 75.617 C817.142 73.818, 819.515 67.738, 826.172 61.675 M813.265 75.617 C816.081 72.666, 818.669 68.53, 826.172 61.675 M818.917 75.4 C821.695 74.242, 822.577 71.414, 826.39 67.328 M818.917 75.4 C820.782 72.682, 823.067 70.485, 826.39 67.328" stroke="rgb(236, 236, 255)" stroke-width="2.94" fill="none"></path><path d="M678 10 C727.474 11.753, 774.671 9.483, 822 10 M822 10 C822.118 9.7, 825.708 9.95, 825 13 M825 13 C823.312 33.603, 824.965 49.665, 825 72 M825 72 C824.91 72.277, 824.134 73.863, 822 75 M822 75 C778.883 77.24, 740.247 76.91, 678 75 M678 75 C676.044 74.949, 673.4 73.147, 675 72 M675 72 C676.868 50.893, 677.134 33.914, 675 13 M675 13 C676.864 9.726, 674.731 9.218, 678 10 M678 10 C678 10, 678 10, 678 10" stroke="rgb(218, 206, 243)" stroke-width="1" fill="none"></path></g><g class="text-container" transform="matrix(1 0 0 1 95 10)"><text x="655" y="32.5" dominant-baseline="central" alignment-baseline="central" class="actor actor-box" style="text-anchor: middle; font-size: 16px; font-weight: 400;font-style: normal;font-weight: 400;font-size: 16px;font-family: Comic Sans MS, cursive;" stroke="rgb(218, 206, 243)" stroke-width="1px" fill="rgb(236, 236, 255)" text-anchor="middle"><tspan x="655" dy="0" stroke="none" stroke-width="1px" fill="rgb(0, 0, 0)" text-anchor="middle" dominant-baseline="central">同步通道(缓存=0)</tspan></text></g><g><path d="M369.91 75.232 C371.343 431.258, 370.54 787.68, 369.565 1117.934" stroke="rgb(218, 206, 243)" stroke-width="2" fill="none"></path></g><g><path d="M294.831 13.291 C294.831 13.291, 294.831 13.291, 294.831 13.291 M294.831 13.291 C294.831 13.291, 294.831 13.291, 294.831 13.291 M295.121 22.72 C295.522 20.084, 297.247 19.187, 301.165 12.353 M295.121 22.72 C297.003 20.07, 297.462 18.092, 301.165 12.353 M294.908 33.014 C298.196 25.597, 300.971 19.16, 306.995 12.279 M294.908 33.014 C298.275 26.708, 301.268 21.572, 306.995 12.279 M295.199 42.443 C300.547 33.325, 305.773 24.541, 312.826 12.206 M295.199 42.443 C299.961 33.529, 305.516 25.018, 312.826 12.206 M294.986 52.736 C300.677 43.853, 307.479 31.061, 318.656 12.132 M294.986 52.736 C302.389 41.397, 308.413 29.436, 318.656 12.132 M294.773 63.03 C306.849 43.26, 316.185 23.743, 324.487 12.058 M294.773 63.03 C300.898 51.903, 306.611 41.656, 324.487 12.058 M295.064 72.459 C305.947 54.666, 315.965 38.434, 330.317 11.985 M295.064 72.459 C305.015 55.593, 314.412 39.511, 330.317 11.985 M298.88 75.841 C306.354 58.299, 317.659 45.546, 336.148 11.911 M298.88 75.841 C314.3 51.126, 327.504 24.225, 336.148 11.911 M304.71 75.768 C313.389 61.299, 324.463 43.661, 341.978 11.837 M304.71 75.768 C315.076 59.938, 324.695 41.836, 341.978 11.837 M310.541 75.694 C321.116 56.709, 332.372 38.864, 347.809 11.763 M310.541 75.694 C322.615 55.381, 333.023 37.373, 347.809 11.763 M316.371 75.62 C327.789 55.172, 341.087 34.05, 353.639 11.69 M316.371 75.62 C326.646 55.693, 338.127 37.533, 353.639 11.69 M322.202 75.547 C333.434 52.648, 347.296 31.03, 358.966 12.48 M322.202 75.547 C331.279 60.713, 339.856 44.875, 358.966 12.48 M327.529 76.337 C333.894 63.281, 344.014 46.383, 364.796 12.406 M327.529 76.337 C342.76 51.414, 357.858 26.394, 364.796 12.406 M333.359 76.263 C345.85 51.485, 363.636 28.305, 370.627 12.333 M333.359 76.263 C342.728 58.779, 352.998 40.889, 370.627 12.333 M339.19 76.19 C349.099 58.962, 359.545 43.451, 376.457 12.259 M339.19 76.19 C351.525 57.462, 360.668 39.686, 376.457 12.259 M345.02 76.116 C359.591 56.192, 369.998 32.442, 382.288 12.185 M345.02 76.116 C355.679 57.49, 366.552 39.941, 382.288 12.185 M350.851 76.042 C364.771 51.108, 377.258 27.586, 388.118 12.112 M350.851 76.042 C366.319 49.774, 380.962 25.404, 388.118 12.112 M356.681 75.968 C367.076 61.921, 375.521 46.824, 393.949 12.038 M356.681 75.968 C365.535 63.569, 372.162 50.007, 393.949 12.038 M362.512 75.895 C372.812 61.954, 381.713 46.675, 399.779 11.964 M362.512 75.895 C373.392 57.697, 383.734 39.871, 399.779 11.964 M368.342 75.821 C377.312 58.816, 389.52 42.573, 405.61 11.891 M368.342 75.821 C382.398 52.388, 395.433 28.938, 405.61 11.891 M374.173 75.747 C387.155 53.836, 397.935 33.258, 411.44 11.817 M374.173 75.747 C386.042 52.352, 401.268 29.901, 411.44 11.817 M380.003 75.674 C390.094 58.973, 399.929 39.16, 416.767 12.607 M380.003 75.674 C392.505 53.417, 406.817 31.446, 416.767 12.607 M385.33 76.464 C398.691 53.451, 414.905 28.923, 422.598 12.533 M385.33 76.464 C397.259 56.821, 409.431 34.762, 422.598 12.533 M391.16 76.39 C404.103 53.525, 415.065 31.648, 428.428 12.46 M391.16 76.39 C400.476 61.42, 409.893 45.042, 428.428 12.46 M396.991 76.317 C405.394 61.949, 415.498 42.162, 434.259 12.386 M396.991 76.317 C405.697 63.26, 414.539 48.54, 434.259 12.386 M402.821 76.243 C418.094 51.796, 431.171 26.552, 440.089 12.312 M402.821 76.243 C417.521 51.199, 431.079 28.356, 440.089 12.312 M408.652 76.169 C420.659 55.133, 436.978 31.603, 445.416 13.103 M408.652 76.169 C417.644 59.264, 427.904 41.524, 445.416 13.103 M414.482 76.096 C427.838 53.621, 438.416 35.995, 445.203 23.396 M414.482 76.096 C424.371 60.024, 432.616 43.224, 445.203 23.396 M420.313 76.022 C425.593 63.372, 433.059 52.301, 445.494 32.826 M420.313 76.022 C426.848 66.689, 431.029 56.374, 445.494 32.826 M426.143 75.948 C434.284 64.262, 438.174 53.868, 445.281 43.119 M426.143 75.948 C432.612 63.636, 440.561 53.4, 445.281 43.119 M431.974 75.874 C434.141 71.021, 439.631 63.051, 445.068 53.412 M431.974 75.874 C435.906 68.125, 440.603 60.496, 445.068 53.412 M437.804 75.801 C438.321 72.477, 440.486 68.996, 445.359 62.842 M437.804 75.801 C440.47 71.27, 442.841 66.874, 445.359 62.842" stroke="rgb(236, 236, 255)" stroke-width="2.159" fill="none"></path><path d="M298 10 C353.368 10.617, 410.394 8.951, 442 10 M442 10 C443.468 10.554, 443.815 9.881, 445 13 M445 13 C445.98 30.326, 444.174 45.206, 445 72 M445 72 C443.551 73.348, 445.319 74.889, 442 75 M442 75 C407.823 74.183, 376.258 74.615, 298 75 M298 75 C295.691 76.882, 296.586 74.342, 295 72 M295 72 C293.736 54.667, 296.008 34.885, 295 13 M295 13 C294.262 10.912, 296.302 9.001, 298 10 M298 10 C298 10, 298 10, 298 10" stroke="rgb(218, 206, 243)" stroke-width="1" fill="none"></path></g><g class="text-container" transform="matrix(1 0 0 1 95 10)"><text x="275" y="32.5" dominant-baseline="central" alignment-baseline="central" class="actor actor-box" style="text-anchor: middle; font-size: 16px; font-weight: 400;font-style: normal;font-weight: 400;font-size: 16px;font-family: Comic Sans MS, cursive;" stroke="rgb(218, 206, 243)" stroke-width="1px" fill="rgb(236, 236, 255)" text-anchor="middle"><tspan x="275" dy="0" stroke="none" stroke-width="1px" fill="rgb(0, 0, 0)" text-anchor="middle" dominant-baseline="central">子线程</tspan></text></g><g><path d="M170.601 75.3 C172.354 391.442, 172.623 707.431, 169.227 1117.258" stroke="rgb(218, 206, 243)" stroke-width="2" fill="none"></path></g><g><path d="M98.306 9.728 C98.306 9.728, 98.306 9.728, 98.306 9.728 M98.306 9.728 C98.306 9.728, 98.306 9.728, 98.306 9.728 M97.892 16.787 C101.747 15.116, 104.242 12.446, 105.365 10.142 M97.892 16.787 C101.003 14.047, 103.176 11.514, 105.365 10.142 M98.225 23.181 C103.936 19.482, 107.466 13.93, 113.171 9.891 M98.225 23.181 C103.369 18.689, 108.48 14.056, 113.171 9.891 M97.811 30.24 C104.314 24.112, 109.176 19.865, 120.23 10.305 M97.811 30.24 C104.503 25.379, 109.43 19.723, 120.23 10.305 M98.145 36.635 C108.383 29.909, 115.374 22.02, 128.037 10.055 M98.145 36.635 C104.52 30.77, 111.35 24.566, 128.037 10.055 M98.478 43.029 C108.686 33.357, 119.392 25.482, 135.843 9.804 M98.478 43.029 C110.141 31.093, 122.774 21.757, 135.843 9.804 M98.064 50.088 C113.544 34.917, 128.633 22.631, 142.902 10.219 M98.064 50.088 C110.995 39.414, 122.797 29.715, 142.902 10.219 M98.397 56.482 C112.308 44.395, 127.728 32.325, 150.708 9.968 M98.397 56.482 C109.752 45.768, 122.242 34.935, 150.708 9.968 M97.983 63.541 C113.52 48.92, 130.238 35.387, 157.767 10.382 M97.983 63.541 C119.616 45.37, 141.014 24.919, 157.767 10.382 M95.327 72.594 C114.072 53.239, 134.181 37.04, 165.573 10.132 M95.327 72.594 C113.068 57.246, 129.635 41.109, 165.573 10.132 M98.65 76.33 C119.865 56.232, 139.347 38.445, 173.379 9.881 M98.65 76.33 C116.894 58.646, 135.247 43.36, 173.379 9.881 M105.708 76.744 C135.97 49.618, 164.549 24.854, 180.438 10.295 M105.708 76.744 C124.337 60.393, 141.489 45.088, 180.438 10.295 M113.515 76.494 C134.805 57.395, 160.637 35.799, 188.244 10.045 M113.515 76.494 C139.534 53.626, 163.255 31.018, 188.244 10.045 M121.321 76.243 C138.235 61.151, 155.102 45.679, 195.303 10.459 M121.321 76.243 C137.599 60.783, 156.354 44.216, 195.303 10.459 M128.38 76.657 C149.612 58.064, 171.818 36.939, 203.11 10.208 M128.38 76.657 C155.991 51.842, 185.588 26.19, 203.11 10.208 M136.186 76.407 C160.26 55.188, 184.364 34.449, 210.916 9.958 M136.186 76.407 C152.091 62.393, 166.897 48.964, 210.916 9.958 M143.245 76.821 C159.576 62.371, 178.031 46.819, 217.975 10.372 M143.245 76.821 C165.438 56.265, 188.762 36.78, 217.975 10.372 M151.051 76.57 C174.882 55.283, 198.892 34.334, 225.781 10.122 M151.051 76.57 C169.108 60.398, 185.662 46.052, 225.781 10.122 M158.858 76.32 C180.69 55.423, 203.786 39.029, 232.84 10.536 M158.858 76.32 C177.383 60.056, 198.758 43.266, 232.84 10.536 M165.916 76.734 C185.53 58.497, 205.588 40.952, 240.646 10.285 M165.916 76.734 C196.174 49.869, 225.392 24.413, 240.646 10.285 M173.723 76.484 C200.558 53.975, 229.249 27.128, 244.716 13.357 M173.723 76.484 C198.213 53.804, 222.849 31.883, 244.716 13.357 M180.782 76.898 C206.886 54.981, 229.937 34.166, 245.049 19.752 M180.782 76.898 C196.763 60.959, 214.376 47.16, 245.049 19.752 M188.588 76.647 C204.131 62.764, 217.648 50.93, 244.635 26.811 M188.588 76.647 C205.55 61.548, 223.798 44.323, 244.635 26.811 M196.394 76.397 C207.207 66.61, 221.26 58.028, 244.968 33.205 M196.394 76.397 C215.797 59.525, 235.163 42.09, 244.968 33.205 M203.453 76.811 C213.983 67.373, 220.482 60.381, 244.554 40.264 M203.453 76.811 C219.354 62.697, 234.084 49.236, 244.554 40.264 M211.259 76.56 C222.528 68.058, 234.823 55.092, 244.888 46.658 M211.259 76.56 C222.93 66.921, 232.53 56.271, 244.888 46.658 M218.318 76.974 C226.687 66.753, 239.508 58.286, 245.221 53.053 M218.318 76.974 C225.366 72.278, 231.404 65.879, 245.221 53.053 M226.124 76.724 C232.013 69.791, 239.073 64.37, 244.807 60.112 M226.124 76.724 C231.088 71.804, 236.973 67.094, 244.807 60.112 M233.931 76.474 C238.44 74.848, 240.652 71.411, 245.14 66.506 M233.931 76.474 C237.378 72.706, 241.123 69.251, 245.14 66.506" stroke="rgb(236, 236, 255)" stroke-width="1.143" fill="none"></path><path d="M98 10 C143.523 8.302, 192.088 10.403, 242 10 M98 10 C127.007 9.776, 155.499 10.289, 242 10 M242 10 C244.086 8.819, 244.119 12.309, 245 13 M242 10 C242.87 9.157, 244.624 10.836, 245 13 M245 13 C244.063 29.416, 246.364 42.566, 245 72 M245 13 C244.756 34.929, 245.975 58.875, 245 72 M245 72 C243.445 73.539, 241.728 76.858, 242 75 M245 72 C245.713 74.594, 243.707 74.158, 242 75 M242 75 C200.146 75.097, 158.64 73.924, 98 75 M242 75 C196.415 75.98, 149.026 77.084, 98 75 M98 75 C96.864 75.805, 95.992 73.502, 95 72 M98 75 C95.004 73.428, 96.754 72.879, 95 72 M95 72 C96.39 56.537, 94.714 39.15, 95 13 M95 72 C93.932 51.826, 95.102 33.139, 95 13 M95 13 C93.614 10.271, 98.543 9.64, 98 10 M95 13 C93.527 10.819, 96.455 10.441, 98 10 M98 10 C98 10, 98 10, 98 10 M98 10 C98 10, 98 10, 98 10" stroke="rgb(218, 206, 243)" stroke-width="1" fill="none"></path></g><g class="text-container" transform="matrix(1 0 0 1 95 10)"><text x="75" y="32.5" dominant-baseline="central" alignment-baseline="central" class="actor actor-box" style="text-anchor: middle; font-size: 16px; font-weight: 400;font-style: normal;font-weight: 400;font-size: 16px;font-family: Comic Sans MS, cursive;" stroke="rgb(218, 206, 243)" stroke-width="1px" fill="rgb(236, 236, 255)" text-anchor="middle"><tspan x="75" dy="0" stroke="none" stroke-width="1px" fill="rgb(0, 0, 0)" text-anchor="middle" dominant-baseline="central">主线程</tspan></text></g><g><path d="M345.142 537.652 C345.142 537.652, 345.142 537.652, 345.142 537.652 M345.142 537.652 C345.142 537.652, 345.142 537.652, 345.142 537.652 M344.68 549.225 C347.022 543.57, 349.091 539.746, 349.027 539.23 M344.79 548.352 C345.93 545.881, 347.399 543.874, 349.554 538.708 M345.622 559.73 C345.403 556.278, 348.469 551.52, 354.656 538.736 M344.465 559.088 C348 551.025, 350.879 542.761, 354.086 537.164 M345.696 570.111 C348.611 560.664, 353.65 550.544, 357.971 536.608 M344.25 570.416 C348.137 560.88, 351.564 553.233, 358.052 537.171 M347.432 577.318 C350.995 566.734, 354.344 560.798, 363.088 536.996 M347.175 577.987 C351.755 564.687, 356.31 550.61, 361.883 537.497 M352.713 578.239 C356.431 564.046, 359.214 552.817, 368.02 535.809 M349.899 576.747 C357.375 561.777, 362.054 547.024, 365.774 537.864 M354.179 575.748 C358.398 565.779, 365.874 552.845, 372.688 540.073 M355.601 577.01 C358.18 569.516, 361.965 560.865, 369.774 538.943 M359.637 578.315 C363.003 564.526, 369.561 553.527, 374.169 537.234 M360.029 576.338 C366.274 560.648, 371.58 546.191, 376.182 537.167 M363.396 576.719 C369.844 561.105, 375.861 544.514, 378.479 538.715 M363.704 578.419 C368.57 565.298, 373.256 554.806, 380.483 537.655 M369.188 577.362 C371.582 568.762, 374.264 554.928, 384.584 538.147 M367.175 576.506 C372.862 563.669, 378.758 550.276, 383.97 539.122 M372.216 576.475 C376.499 565.767, 383.577 553.887, 389.685 538.523 M373.147 577.745 C378.356 563.131, 384.158 547.662, 388.385 538.646 M375.374 579.079 C379.351 568.614, 383.878 560.004, 393.664 536.633 M377.169 578.363 C380.102 568.227, 383.165 559.992, 392.551 538.04 M382.562 575.103 C383.458 566.911, 389.319 555.362, 395.7 537.509 M380.778 577.005 C386.502 565.808, 390.873 554.761, 396.27 537.602 M384.744 577.958 C389.228 565.036, 396.595 550.87, 399.254 539.647 M384.417 575.916 C389.912 565.917, 395.191 553.642, 400.752 536.933 M390.595 577.369 C396.912 562.255, 400.515 549.353, 406.658 538.44 M389.163 577.157 C394.372 562.795, 401.387 549.04, 404.706 538.548 M392.886 575.613 C397.941 566.554, 403.383 552.692, 408.931 536.186 M392.957 576.643 C399.239 564.423, 402.685 553.069, 410.327 538.694 M397.953 575.527 C402.61 570.516, 403.494 562.868, 412.543 537.049 M397.465 577.927 C404.305 563.819, 409.345 549.159, 414.461 537.392 M400.791 577.252 C406.104 568.342, 408.623 559.015, 417.493 536.556 M401.7 578.136 C408.823 562.271, 415.114 546.945, 418.212 538.88 M406.486 575.093 C411.146 563.643, 417.164 549.219, 420.803 536.213 M406.857 576.189 C411.398 567.189, 415.472 557.539, 422.682 537.744 M409.171 577.606 C414.725 567.483, 418.043 556.376, 425.862 537.092 M410.75 576.557 C417.224 563.74, 422.133 551.053, 428.028 538.163 M415.839 576.161 C418.175 567.739, 421.037 558.985, 430.313 538.443 M414.9 577.126 C419.101 567.385, 422.554 559.357, 431.12 538.961 M418.529 574.75 C428.114 563.4, 433.487 547.28, 435.801 536.291 M419.532 576.512 C423.361 567.791, 426.225 560.157, 436.298 538.303 M422.627 578.872 C428.639 567.477, 433.04 559.714, 441.6 537.491 M423.716 577.072 C428.393 564.211, 434.338 550.498, 440.723 538.739 M426.902 576.268 C432.551 562.834, 437.638 549.911, 443.778 538.013 M429.449 576.83 C431.713 567.228, 436.659 558.897, 445.049 537.623 M433.949 577.816 C438.075 570.249, 438.057 560.428, 450.682 537.392 M433.553 578.001 C437.388 565.553, 443.528 553.758, 448.183 537.135 M435.806 577.675 C440.637 567.138, 444.326 561.601, 452.239 536.586 M436.531 577.832 C440.382 568.003, 444.769 560.527, 452.552 537.315 M440.342 578.735 C444.894 563.064, 452.966 553.66, 455.779 537.15 M441.234 577.319 C446.821 561.652, 453.919 548.556, 456.35 537.471 M446.794 579.369 C450.856 569.123, 453.198 557.818, 462.895 538.105 M444.722 577.467 C447.991 568.786, 452.571 559.875, 461.766 537.391 M448.651 576.256 C455.782 567.7, 457.454 554.502, 466.394 539.34 M450.145 577.219 C454.453 567.913, 457.495 557.186, 466.57 538.834 M454.507 575.463 C456.73 568.806, 460.671 557.316, 470.498 539.014 M454.15 576.516 C461.175 562.212, 467.96 545.485, 470.051 538.183 M457.697 579.061 C464.803 560.966, 470.964 548.338, 476.198 539.245 M457.573 578.01 C462.61 570.136, 464.868 560.488, 474.746 539.041 M462.013 577.117 C469.442 563.572, 471.946 551.49, 479.53 536.566 M462.221 576.764 C469.134 562.479, 475.971 546.317, 479.788 538.938 M467.618 575.861 C470.175 568.664, 472.11 560.807, 482.001 535.942 M467.877 576.84 C472.377 564.678, 477.881 552.702, 483.2 537.816 M470.03 575.271 C477.465 564.237, 481.467 547.976, 486.297 537.436 M470.765 577.027 C477.968 563.416, 481.491 552.457, 487.091 539.164 M474.219 577.304 C480 568.257, 482.029 559.56, 491.149 538.09 M476.701 577.392 C478.829 567.567, 483.448 559.21, 491.708 537.416 M480.465 579.181 C484.172 565.554, 487.063 556.1, 498.147 537.245 M480.339 576.872 C485.665 565.439, 488.973 554.136, 495.901 537.737 M486.32 577.992 C489.128 564.324, 494.947 552.845, 500.311 536.942 M484.388 577.074 C489.995 562.467, 496.886 548.976, 500.749 538.243 M490.617 575.63 C492.088 564.832, 499.139 553.708, 506.542 536.616 M488.312 576.001 C491.928 569.52, 496.52 561.771, 503.945 537.092 M491.8 576.813 C499.644 563.467, 505.642 548.707, 509.518 538.568 M493.56 577.979 C499.789 564.058, 504.775 548.614, 509.453 539.05 M496.217 578.667 C500.562 566.22, 508.356 552.72, 515.031 539.547 M497.289 576.173 C501.619 567.936, 503.864 560.28, 513.544 537.582 M501.732 576.512 C507.139 567.829, 509.554 558.964, 517.55 536.966 M500.883 578.287 C505.86 568.014, 508.861 558.727, 518.391 538.416 M504.515 578.143 C509.554 567.787, 513.071 555.493, 523.773 539.372 M505.748 577.352 C510.4 568.137, 514.652 558.645, 521.09 537.583 M510.317 577.071 C515.208 563.78, 520.354 552.959, 526.313 539.35 M510.346 577.497 C514.948 569.05, 516.62 560.793, 527.105 538.848 M513.715 576.304 C521.055 561.724, 528.809 545.896, 529.926 536.714 M514.875 578.132 C521.163 562.235, 526.595 548.014, 531 537.777 M518.204 578.226 C523.807 561.981, 530.172 544.519, 533.63 540.049 M518.448 576.896 C524.856 562.249, 531.439 548.249, 534.712 537.46 M525.232 576.961 C528.39 568.984, 530.142 558.786, 537.725 537.409 M524.315 577.21 C528.525 566.819, 532.624 555.692, 539.363 538.257 M526.586 576.321 C532.476 561.921, 537.793 548.99, 542.889 537.675 M527.11 578.301 C532.538 566.168, 536.678 555.076, 542.629 537.926 M531.082 578.19 C534.533 567.557, 540.096 556.907, 549.496 536.821 M531.454 577.843 C537.484 565.58, 541.54 553.138, 547.588 537.996 M536.001 576.833 C539.874 567.568, 541.863 557.181, 551.087 537.843 M535.621 578.431 C543.178 562.218, 548.092 548.03, 552.705 537.071 M540.877 575.365 C543.388 568.875, 550.185 559.749, 554.868 539.821 M541.354 576.666 C543.425 569.319, 547.256 560.583, 555.81 537.685 M543.259 578.197 C549.989 564.844, 556.388 550.873, 560.085 539.276 M544.174 576.273 C548.807 567.342, 553.982 556.679, 560.229 537.774 M549.07 577.77 C552.214 566.887, 556.459 557.297, 566.867 537.379 M548.271 577.05 C553.923 566.661, 557.422 555.008, 565.028 536.715 M551.785 578.711 C559.799 564.468, 562.365 556.396, 570.53 536.982 M553.533 577.469 C559.169 561.589, 565.42 546.955, 570.264 537.286 M558.58 578.589 C559.672 569.098, 566.074 561.351, 575.252 538.78 M558.091 577.661 C561.736 567.118, 564.251 558.4, 574.579 538.026 M560.814 575.723 C566.51 562.539, 574.129 549.35, 578.904 538.127 M562.231 577.528 C567.879 563.23, 574.126 548.536, 578.5 539.294 M567.221 576.28 C573.794 566.337, 577.893 551.011, 582.088 537.811 M567.014 576.548 C569.391 567.505, 573.048 559.136, 582.647 538.081 M570.63 577.853 C573.958 567.936, 579.731 554.246, 586.591 536.038 M570.509 577.174 C575.382 564.15, 581.533 552.086, 585.965 537.496 M575.399 578.123 C581.539 565.684, 585.846 553.773, 590.15 539.782 M575.805 576.899 C580.837 561.481, 587.25 547.404, 591.19 539.309 M581.576 578.637 C587.577 562.648, 591.496 545.337, 595.086 536.965 M579.243 577.81 C584.289 566.247, 588.079 555.023, 595.266 537.773 M582.964 575.892 C588.641 564.098, 596.661 550.969, 599.183 539.162 M583.174 577.013 C590.044 561.198, 596.06 546.212, 599.76 537.438 M586.886 576.701 C594.89 563.057, 599.023 549.787, 602.399 539.862 M588.995 576.602 C591.535 569.253, 595.576 559.39, 603.124 537.654 M592.522 576.465 C594.469 567.066, 601.191 558.116, 609.969 537.195 M593.35 577.26 C595.232 568.337, 600.031 560.572, 607.961 536.911 M596.018 577.338 C601.434 568.813, 602.898 558.387, 613.135 536.793 M596.266 577.092 C600.366 567.823, 604.296 558.321, 613.222 538.318 M602.9 577.379 C604.744 564.896, 609.878 554.871, 618.729 537.021 M600.928 576.691 C606.267 565.981, 609.158 556.902, 616.909 537.556 M605.917 577.217 C612.243 564.975, 616.151 548.812, 622.968 538.587 M605.441 576.32 C609.312 566.347, 614.097 556.173, 622.45 538.525 M607.839 578.322 C614.142 568.186, 618.005 561.103, 624.983 538.212 M610.008 577.224 C616.613 562.124, 621.878 546.445, 624.82 537.795 M615.975 576.592 C618.558 565.098, 621.696 555.246, 630.253 538.197 M613.452 576.857 C618.251 566.821, 620.248 559.233, 629.416 538.03 M617.061 578.808 C623.513 567.058, 627.844 559.665, 634.997 536.908 M618.264 576.533 C623.384 564.711, 628.105 552.465, 635.093 537.658 M624.391 578.481 C628.02 564.496, 631.784 551.999, 638.316 539.37 M623.654 577.573 C627.057 564.777, 632.807 554.054, 639.246 537.549 M625.178 578.29 C633.302 561.839, 637.965 548.208, 641.681 536.081 M627.461 575.883 C633.015 564.984, 637.446 553.212, 642.662 538.888 M632.811 577.355 C634.98 564.46, 638.749 554.226, 645.672 537.848 M631.307 578.288 C635.357 567.258, 640.021 555.153, 647.11 536.992 M636.157 576.973 C641.083 566.189, 644.721 554.81, 650.179 539.585 M635.529 577.188 C640.006 567.878, 643.243 558.077, 650.859 537.469 M638.234 576.534 C644.126 569.691, 647.707 560.44, 656.298 536.359 M640.624 576.885 C642.87 569.372, 645.777 559.781, 656.299 537.876 M644.847 578.113 C645.856 569.551, 650.253 558.769, 659.583 537.864 M645.246 577.039 C646.226 569.788, 650.261 561.049, 660.674 539.261 M649.004 578.469 C652.872 564.839, 656.512 554.945, 665.664 537.486 M648.634 577.703 C654.07 567.108, 656.835 556.853, 665.463 537.155 M654.379 577.798 C657.947 567.374, 659.872 560.148, 667.496 536.09 M652.952 576.716 C656.178 568.025, 659.552 557.71, 669.61 538.089 M656.613 575.951 C662.627 562.933, 668.384 546.602, 673.602 537.76 M658.137 578.059 C660.89 568.65, 664.018 559.691, 672.106 538.774 M662.64 577.66 C665.345 566.392, 669.707 552.643, 677.93 539.552 M662.417 577.065 C665.835 566.014, 669.397 556.145, 676.792 538.513 M666.171 578.07 C671.548 565.382, 674.018 551.153, 680.587 538.934 M666.519 577.578 C671.615 565.949, 675.159 552.277, 682.149 537.241 M669.639 577.359 C675.755 563.626, 682.69 547.821, 686.079 538.401 M669.319 577.79 C673.681 568.633, 676.391 561.266, 685.409 537.797 M674.431 576.649 C679.195 565.009, 685.91 548.598, 690.146 536.579 M673.853 577.173 C678.291 569.243, 680.541 560.571, 691.372 537.255 M678.82 576.614 C681.846 566.967, 685.75 557.973, 692.8 539.727 M679.541 576.35 C684.726 563.648, 690.861 548.136, 694.409 539.165 M682.034 576.682 C688.172 561.975, 693.709 547.977, 700.753 537.517 M683.264 576.374 C686.446 567.351, 692.324 555.987, 699.191 537.132 M686.901 576.966 C692.546 566.874, 694.207 558.72, 703.724 537.471 M686.87 577.824 C691.612 565.725, 695.941 555.051, 703.048 538.6 M691.319 575.552 C693.104 569.287, 696.31 559.592, 707.806 537.207 M691.309 577.281 C696.474 563.468, 702.911 549.957, 708.281 538.429 M695.554 575.318 C701.791 561.342, 709.922 547.844, 713.221 538.882 M695.737 576.493 C701.061 563.112, 707.729 551.058, 711.162 537.33 M699.175 579.299 C706.168 563.219, 711.794 551.665, 715.582 537.628 M700.373 577.89 C705.716 566.09, 709.648 554.539, 717.251 536.776 M705.315 575.966 C708.963 569.219, 713.942 557.247, 719.368 540.06 M703.941 576.405 C708.986 564.646, 712.98 553.541, 720.197 538.682 M710.948 577.144 C714.309 564.179, 721.269 549.258, 725.959 535.959 M708.88 575.873 C714.422 565.912, 716.963 557.419, 725.303 537.185 M714.315 578.149 C715.34 568.329, 720.173 559.72, 728.001 536.848 M712.543 576.766 C717.141 568.034, 720.92 560.178, 728.49 538.522 M718.394 575.493 C720.501 566.411, 727.542 559.765, 732.092 539.031 M718.493 577.741 C722.093 564.247, 726.538 552.704, 733.469 537.26 M722.878 578.137 C726.486 567.555, 733.298 552.056, 736.835 539.017 M721.96 577.991 C727.423 564.737, 732.022 552.684, 737.605 538.241 M724.503 579.101 C730.735 569.035, 734.134 558.603, 743.471 537.096 M727.201 576.509 C732.167 564.138, 737.885 549.63, 743.023 538.994 M729.993 574.891 C737.609 561.521, 741.906 547.816, 745.046 539.106 M730.13 577.273 C735.335 564.566, 739.965 551.362, 746.523 538.125 M735.113 578.28 C738.347 565.936, 746.889 552.548, 750.707 538.677 M734.598 577.737 C740.83 561.734, 747.726 546.521, 750.135 538.075 M741.183 575.728 C743.595 564.783, 749.517 548.987, 756.981 536.482 M740.134 577.251 C746.051 563.275, 750.638 549, 755.57 537.279 M744.917 575.115 C747.846 561.249, 757.197 545.181, 758.881 536.865 M743.892 576.737 C750.316 561.299, 756.208 547.292, 758.785 537.306 M746.947 576.366 C754.871 564.467, 757.977 550.249, 764.281 539.752 M748.091 577.919 C753.474 562.615, 760.708 546.124, 764.15 539.241 M751.515 578.734 C754.432 568.619, 758.468 559.468, 766.642 537.589 M752.911 576.934 C756.438 565.869, 760.945 555.987, 768.461 538.811 M755.513 577.917 C763.784 562.942, 767.787 547.909, 773.681 536.164 M756.162 577.67 C761.195 567.075, 766.123 555.539, 773.453 538.176 M760.086 576.695 C764.847 565.956, 767.96 556.294, 775.251 540.617 M760.65 577.702 C763.806 569.648, 767.334 560.092, 776.386 540.833 M766.353 578.542 C768.25 568.655, 774.449 558.386, 774.267 553.35 M764.69 576.644 C769.113 569.741, 771.92 562.579, 774.959 551.792 M768.181 576.051 C771.291 572.651, 774.017 564.795, 775.159 560.75 M769.449 576.886 C771.802 570.983, 774.774 565.896, 775.215 561.168 M774.238 577.378 C774.854 575.705, 775.076 573.697, 775.814 572.532 M773.924 576.993 C774.256 575.761, 774.964 574.221, 775.844 572.327" stroke="rgb(255, 245, 173)" stroke-width="2.777" fill="none"></path><path d="M345.5 538.318 C492.716 538.66, 637.602 537.574, 774.79 537.298 M344.594 537.559 C451.411 538.628, 558.082 538.609, 774.506 538.351 M776.119 539.304 C774.87 554.945, 773.257 569.77, 773.411 576.677 M774.696 537.84 C775.407 548.661, 775.722 560.577, 775.171 576.232 M774.697 577.942 C677.984 576.228, 581.558 575.519, 346.001 576.805 M775.383 576.79 C652.896 576.776, 530.053 576.174, 344.884 577.496 M346.758 577.863 C342.691 563.439, 344.214 552.3, 343.294 536.007 M344.652 576.435 C345.689 567.831, 344.707 557.702, 344.498 537.786" stroke="rgb(170, 170, 51)" stroke-width="1" fill="none"></path></g><g class="text-container" transform="matrix(1 0 0 1 95 10)"><text x="465" y="533" text-anchor="middle" dominant-baseline="middle" alignment-baseline="middle" class="noteText" dy="1em" style="font-size: 16px; font-weight: 400;font-style: normal;font-weight: 400;font-size: 16px;font-family: Comic Sans MS, cursive;" stroke="none" stroke-width="1px" fill="rgb(0, 0, 0)"><tspan x="465" stroke="none" stroke-width="1px" fill="rgb(0, 0, 0)" text-anchor="middle" dominant-baseline="middle">发送操作阻塞，等待接收者</tspan></text></g><g><path d="M85.549 367.215 C333.233 368.911, 579.228 368.671, 785.085 367.792" stroke="rgb(218, 206, 243)" stroke-width="2" fill="none" stroke-dasharray="2 2"></path></g><g><path d="M786.07 365.913 C782.522 474.939, 782.35 586.159, 784.12 719.917" stroke="rgb(218, 206, 243)" stroke-width="2" fill="none" stroke-dasharray="2 2"></path></g><g><path d="M85.896 720.408 C358.318 721.397, 631.168 721.535, 784.496 719.247" stroke="rgb(218, 206, 243)" stroke-width="2" fill="none" stroke-dasharray="2 2"></path></g><g><path d="M85.797 365.926 C88.606 454.288, 88.333 538.293, 86.735 720.451" stroke="rgb(218, 206, 243)" stroke-width="2" fill="none" stroke-dasharray="2 2"></path></g><g><path d="M86.219 592.773 C261.419 588.948, 436.204 589.31, 784.436 592.62" stroke="rgb(218, 206, 243)" stroke-width="2" fill="none" stroke-dasharray="3 3"></path></g><g><path d="M85.923 367.095 C85.923 367.095, 85.923 367.095, 85.923 367.095 M85.923 367.095 C85.923 367.095, 85.923 367.095, 85.923 367.095 M86.233 372.276 C87.173 370.041, 88.846 369.744, 89.639 367.054 M85.892 371.754 C87.203 370.385, 89.157 368.27, 90.098 366.824 M86.379 376.18 C89.345 373.954, 91.037 369.439, 92.587 367.559 M86.218 375.761 C88.948 373.383, 91.021 369.94, 93.461 366.593 M87.506 382.486 C89.101 378.375, 91.196 375.087, 97.779 367.917 M85.754 381.766 C88.403 378.696, 91.542 374.508, 97.784 366.688 M84.157 385.643 C90.928 377.981, 98.744 372.007, 101.329 366.372 M85.784 385.577 C91.533 379.173, 97.57 372.582, 101.14 366.016 M88.561 387.685 C94.025 382.143, 98.407 377.796, 103.462 369.11 M87.96 388.31 C94.278 381.686, 100.497 372.449, 104.464 366.759 M92.119 390.296 C98.13 384.097, 100.174 374.959, 110.635 368.585 M91.252 388.291 C96.028 383.725, 99.784 378.28, 108.514 365.758 M94.409 387.638 C98.595 384.202, 104.177 377.176, 114.279 366.694 M95.097 388.85 C101.213 381.711, 106.525 373.708, 112.679 366.183 M98.854 387.214 C105.486 379.231, 112.151 373.629, 117.14 366.32 M99.446 389.339 C103.966 382.756, 109.327 376.864, 116.591 366.978 M105.001 388.587 C110.603 380.543, 114.428 374.985, 119.637 367.826 M102.845 389.376 C106.464 384.337, 111.522 380.473, 120.756 367.392 M108.796 389.574 C111.426 382.886, 116.187 373.965, 122.508 368.594 M106.812 387.655 C113.95 380.542, 120.469 372.199, 124.486 366.505 M111.528 390.164 C115.417 380.065, 122.6 374.293, 129.398 366.384 M111.67 388.999 C115.294 381.742, 122.053 375.408, 127.995 366.728 M115.305 387.659 C121.412 380.877, 123.927 376.771, 132.177 366.361 M115.1 388.149 C119.471 384.261, 123.784 377.457, 132.748 366.978 M119.473 388.811 C122.98 380.79, 128.813 375.349, 136.397 369.195 M119.633 388.486 C124.145 380.822, 132.023 373.057, 136.194 367.989 M121.794 387.547 C126.309 382.071, 131.12 377.621, 134.764 372.604 M121.475 389.063 C127.479 382.491, 131.42 376.903, 135.21 370.939 M128.002 386.498 C128.735 385.328, 131.712 382.871, 135.522 377.766 M127.235 386.509 C130.538 383.422, 133.399 380.944, 135.642 376.131" stroke="rgb(236, 236, 255)" stroke-width="0.979" fill="none"></path><path d="M84.66 365.156 C103.787 365.406, 116.803 368.521, 137.665 365.979 M134.866 365.866 C135.319 372.321, 135.699 375.012, 136.415 380.524 M136.628 379.721 C133.539 382.166, 132.072 383.534, 127.022 387.981 M127.201 388.482 C110.12 389.239, 94.859 387.52, 87.038 385.263 M85.153 386.621 C85.62 383.477, 84.914 377.323, 85.101 368.975" stroke="rgb(218, 206, 243)" stroke-width="1" fill="none"></path></g><g class="text-container" transform="matrix(1 0 0 1 95 10)"><text x="16" y="370" text-anchor="middle" dominant-baseline="middle" alignment-baseline="middle" class="labelText" style="font-size: 16px; font-weight: 400;font-style: normal;font-weight: 400;font-size: 16px;font-family: Comic Sans MS, cursive;" stroke="none" stroke-width="1px" fill="rgb(0, 0, 0)">par</text></g><g class="text-container" transform="matrix(1 0 0 1 95 10)"><text x="365.5" y="375" text-anchor="middle" class="loopText" style="font-size: 16px; font-weight: 400;font-style: normal;font-weight: 400;font-size: 16px;font-family: Comic Sans MS, cursive;" stroke="none" stroke-width="1px" fill="rgb(0, 0, 0)" dominant-baseline="auto"><tspan x="365.5" stroke="none" stroke-width="1px" fill="rgb(0, 0, 0)" text-anchor="middle" dominant-baseline="auto">[并行执行]</tspan></text></g><g class="text-container" transform="matrix(1 0 0 1 95 10)"><text x="76" y="80" text-anchor="middle" dominant-baseline="middle" alignment-baseline="middle" class="messageText" dy="1em" style="font-size: 16px; font-weight: 400;font-style: normal;font-weight: 400;font-size: 16px;font-family: Comic Sans MS, cursive;" stroke="none" stroke-width="1px" fill="rgb(51, 51, 51)">创建同步通道 (sender, receiver)</text></g><g><path d="M171 123 C230.697 113.363, 232.438 152.965, 171 143" stroke="rgb(51, 51, 51)" stroke-width="1.5" fill="none"></path></g><g><path d="M166.209 134.748 C166.209 134.748, 166.209 134.748, 166.209 134.748 M166.209 134.748 C166.209 134.748, 166.209 134.748, 166.209 134.748 M167.123 137.623 C167.144 136.673, 167.481 136.118, 168.249 134.702 M166.972 137.583 C167.344 136.713, 167.747 136.232, 168.581 134.781 M167.591 138.881 C168.984 138.122, 170.472 135.7, 170.97 134.329 M168.323 139.289 C169.068 137.801, 169.711 136.595, 171.127 134.098 M169.135 141.968 C171.188 139.22, 171.893 136.889, 173.399 133.731 M169.503 141.633 C170.522 138.86, 172.103 136.556, 173.436 134.712 M169.133 143.254 C172.051 141.223, 173.805 138.527, 175.056 134.613 M169.719 143.893 C172.187 140.694, 173.827 137.821, 176.006 134.331" stroke="rgb(51, 51, 51)" stroke-width="1.064" fill="none"></path><path d="M176.48 134.811 C174.378 137.406, 174.531 138.463, 171.749 146.19 M170.577 144.641 C170.56 143.749, 168.022 139.924, 166.997 134.087 M165.187 135.242 C170.066 134.276, 173.566 133.499, 176.641 133.97" stroke="rgb(51, 51, 51)" stroke-width="1" fill="none"></path></g><g class="text-container" transform="matrix(1 0 0 1 95 10)"><text x="174" y="158" text-anchor="middle" dominant-baseline="middle" alignment-baseline="middle" class="messageText" dy="1em" style="font-size: 16px; font-weight: 400;font-style: normal;font-weight: 400;font-size: 16px;font-family: Comic Sans MS, cursive;" stroke="none" stroke-width="1px" fill="rgb(51, 51, 51)">启动子线程</text></g><g><path d="M172.092 199.7 C246.982 202.086, 319.968 200.502, 366.699 199.932 M171.71 201.236 C214.604 199.744, 258.99 199.434, 366.978 201.124" stroke="rgb(51, 51, 51)" stroke-width="1.5" fill="none"></path></g><g><path d="M356.896 196.274 C356.896 196.274, 356.896 196.274, 356.896 196.274 M356.896 196.274 C356.896 196.274, 356.896 196.274, 356.896 196.274 M357.382 199.225 C357.928 198.432, 358.676 197.051, 358.968 196.393 M357.206 199.11 C357.874 198.117, 358.601 197.436, 359.01 196.811 M357.39 201.386 C358.111 200.7, 359.416 199.713, 360.757 198.023 M357.554 201.879 C358.663 200.808, 359.015 200.124, 360.557 197.817 M358.235 204.855 C359.247 203.613, 359.763 201.284, 362.81 198.431 M358.122 204.76 C360.005 202.469, 361.961 199.995, 362.905 197.919 M360.882 205.648 C361.373 203.586, 362.476 203.286, 363.823 199.045 M360.08 205.364 C361.652 203.242, 363.64 200.75, 364.36 199.238 M364.061 202.674 C364.881 201.912, 366.109 200.319, 366.695 200.232 M364.437 203.205 C365.001 202.181, 365.374 201.763, 366.865 200.017" stroke="rgb(51, 51, 51)" stroke-width="1.488" fill="none"></path><path d="M357.352 196.208 C360.552 197.441, 363.405 198.328, 368.344 201.572 M367.447 201.264 C365.178 203.413, 359.485 204.941, 357.873 205.699 M358.644 206.424 C356.996 203.099, 356.456 198.869, 356.192 196.74" stroke="rgb(51, 51, 51)" stroke-width="1" fill="none"></path></g><g class="text-container" transform="matrix(1 0 0 1 95 10)"><text x="76" y="206" text-anchor="middle" dominant-baseline="middle" alignment-baseline="middle" class="messageText" dy="1em" style="font-size: 16px; font-weight: 400;font-style: normal;font-weight: 400;font-size: 16px;font-family: Comic Sans MS, cursive;" stroke="none" stroke-width="1px" fill="rgb(51, 51, 51)">打印 "睡眠前"</text></g><g><path d="M171 249 C230.372 239.896, 232.324 280.233, 171 269" stroke="rgb(51, 51, 51)" stroke-width="1.5" fill="none"></path></g><g><path d="M165.981 261.13 C165.981 261.13, 165.981 261.13, 165.981 261.13 M165.981 261.13 C165.981 261.13, 165.981 261.13, 165.981 261.13 M167.125 264.126 C168.52 263.409, 168.624 261.753, 169.399 260.987 M167.504 264.521 C168.259 263.535, 168.617 262.539, 169.661 261.101 M168.289 267.117 C170.059 265.478, 170.72 264.939, 174.367 259.381 M168.856 267.686 C169.849 265.619, 171.875 264.157, 173.487 260.172 M170.701 270.474 C171.453 269.348, 171.962 267.774, 172.94 266.753 M170.808 270.277 C171.775 268.923, 172.333 268.194, 172.985 266.823" stroke="rgb(51, 51, 51)" stroke-width="1.18" fill="none"></path><path d="M175.643 258.933 C174.859 264.046, 174.095 265.983, 170.364 270.825 M171.808 271.282 C168.942 269.301, 167.931 266.153, 164.911 261.516 M165.47 260.69 C169.896 261.451, 174.618 259.437, 176.804 261.006" stroke="rgb(51, 51, 51)" stroke-width="1" fill="none"></path></g><g class="text-container" transform="matrix(1 0 0 1 95 10)"><text x="76" y="284" text-anchor="middle" dominant-baseline="middle" alignment-baseline="middle" class="messageText" dy="1em" style="font-size: 16px; font-weight: 400;font-style: normal;font-weight: 400;font-size: 16px;font-family: Comic Sans MS, cursive;" stroke="none" stroke-width="1px" fill="rgb(51, 51, 51)">睡眠 1000ms</text></g><g><path d="M171 327 C231.856 315.415, 232.173 355.415, 171 347" stroke="rgb(51, 51, 51)" stroke-width="1.5" fill="none"></path></g><g><path d="M166.259 338.78 C166.259 338.78, 166.259 338.78, 166.259 338.78 M166.259 338.78 C166.259 338.78, 166.259 338.78, 166.259 338.78 M166.363 340.002 C166.634 339.79, 166.907 339.167, 167.766 338.505 M166.439 340.279 C166.811 339.571, 167.465 339.067, 167.58 338.582 M167.454 340.909 C167.551 340.088, 168.48 339.642, 169.13 338.574 M167.08 340.794 C167.563 340.325, 168.222 339.482, 169.188 338.416 M167.569 341.976 C168.86 340.422, 169.901 338.918, 170.466 338.259 M167.532 342.407 C168.09 341.197, 169.186 340.095, 170.578 338.359 M167.747 343.316 C169.44 341.398, 171.116 339.255, 172.07 337.987 M167.91 343.052 C169.477 341.185, 170.873 339.938, 172.072 337.972 M168.037 344.084 C169.546 343.616, 170.012 342.228, 172.998 337.468 M168.022 344.418 C169.67 343.338, 170.043 341.732, 173.368 337.941 M168.232 344.941 C170.375 342.194, 172.155 340.241, 174.217 337.208 M168.805 344.905 C171.43 342.175, 172.775 340.216, 174.328 338.082 M169.156 347.285 C170.025 344.303, 172.381 342.653, 177.068 336.876 M168.711 346.646 C170.514 343.577, 173.227 341.367, 176.24 337.681 M169.99 347.7 C170.719 344.541, 173.439 342.926, 176.172 337.891 M169.663 347.423 C172.319 343.666, 174.519 340.881, 176.539 338.841 M170.787 348.194 C170.825 346.95, 171.855 346.121, 175.915 342.395 M169.922 348.522 C172.32 345.99, 173.724 343.512, 174.814 342.401 M170.816 349.012 C171.341 347.694, 172.288 346.76, 173.266 345.817 M171.067 349.038 C171.315 348.09, 171.95 347.623, 173.306 345.826" stroke="rgb(51, 51, 51)" stroke-width="0.51" fill="none"></path><path d="M175.201 337.627 C174.985 342.791, 171.874 345.853, 170.493 348.686 M170.791 349.659 C170.256 345.476, 167.668 342.489, 165.643 340.198 M165.871 339.722 C169.105 339.348, 172.505 338.504, 175.322 337.907" stroke="rgb(51, 51, 51)" stroke-width="1" fill="none"></path></g><g class="text-container" transform="matrix(1 0 0 1 95 10)"><text x="276" y="407" text-anchor="middle" dominant-baseline="middle" alignment-baseline="middle" class="messageText" dy="1em" style="font-size: 16px; font-weight: 400;font-style: normal;font-weight: 400;font-size: 16px;font-family: Comic Sans MS, cursive;" stroke="none" stroke-width="1px" fill="rgb(51, 51, 51)">打印 "发送前"</text></g><g><path d="M371 450 C431.883 439.552, 431.727 479.952, 371 470" stroke="rgb(51, 51, 51)" stroke-width="1.5" fill="none"></path></g><g><path d="M365.813 462.399 C365.813 462.399, 365.813 462.399, 365.813 462.399 M365.813 462.399 C365.813 462.399, 365.813 462.399, 365.813 462.399 M366.675 462.869 C366.839 462.617, 366.973 462.342, 367.11 462.057 M366.68 462.89 C366.826 462.568, 367.084 462.268, 367.233 462.087 M367.152 464.17 C367.27 463.555, 367.866 463.014, 368.373 461.851 M367.026 464.273 C367.382 463.822, 367.594 463.167, 368.652 461.846 M368.131 465.024 C368.832 464.02, 368.882 462.622, 370.129 461.21 M367.999 464.856 C368.517 463.86, 369.12 462.977, 370.022 461.253 M367.837 466.182 C369.527 464.576, 370.259 463.736, 370.961 461.987 M368.023 466.033 C368.817 464.964, 369.759 463.162, 370.834 462.137 M368.292 467.123 C369.693 466.501, 370.411 464.887, 372.154 462.167 M368.443 467.925 C368.976 466.427, 370.051 465.303, 371.833 461.351 M369.344 467.329 C370.761 465.115, 372.455 463.527, 373.897 461.089 M369.503 468.051 C370.496 466.349, 372.201 463.639, 373.834 461.271 M369.819 470.087 C372.339 466.401, 373.479 464.576, 375.387 461.232 M369.76 469.072 C370.837 467.309, 372.206 466.194, 375.375 461.271 M370.988 470.051 C372.477 467.529, 374.789 462.362, 375.933 461.876 M369.587 470.327 C371.208 468.474, 373.051 465.128, 376.131 461.138 M371.123 471.75 C371.533 470.579, 371.704 469.161, 373.087 468.365 M370.96 471.473 C371.251 470.45, 372.059 469.418, 372.716 467.947" stroke="rgb(51, 51, 51)" stroke-width="1.287" fill="none"></path><path d="M376.185 461.601 C375.477 462.821, 374.748 466.777, 370.206 471.528 M372.052 472.332 C370.035 468.004, 367.554 464.391, 365.137 462.841 M365 462.965 C368.134 461.089, 371.414 461.323, 375.897 461.073" stroke="rgb(51, 51, 51)" stroke-width="1" fill="none"></path></g><g class="text-container" transform="matrix(1 0 0 1 95 10)"><text x="464" y="485" text-anchor="middle" dominant-baseline="middle" alignment-baseline="middle" class="messageText" dy="1em" style="font-size: 16px; font-weight: 400;font-style: normal;font-weight: 400;font-size: 16px;font-family: Comic Sans MS, cursive;" stroke="none" stroke-width="1px" fill="rgb(51, 51, 51)">sender.send("Hello, world!") [阻塞等待]</text></g><g><path d="M370.155 527.251 C513.448 524.746, 654.878 525.045, 746.11 527.199" stroke="rgb(51, 51, 51)" stroke-width="1.5" fill="none"></path></g><g><path d="M736.921 523.186 C736.921 523.186, 736.921 523.186, 736.921 523.186 M736.921 523.186 C736.921 523.186, 736.921 523.186, 736.921 523.186 M736.876 524.726 C737.581 524.324, 737.798 523.79, 738.187 523.168 M737.028 524.657 C737.443 524.1, 738.073 523.41, 738.293 523.238 M737.51 525.41 C737.863 524.915, 738.379 524.727, 739.087 523.792 M737.654 525.344 C738.116 524.634, 738.772 524.108, 739.148 523.766 M737.556 526.785 C738.558 525.794, 739.019 525.27, 739.479 524.727 M737.601 526.732 C738.566 525.728, 739.324 524.889, 739.888 524.451 M737.788 528.335 C738.151 527.217, 739.021 526.397, 741.352 524.293 M737.95 528.177 C738.875 527.087, 739.781 526.052, 741.364 524.272 M738.238 529.248 C738.32 528.083, 739.527 527.166, 742.429 525.706 M737.912 529.564 C738.825 528.262, 739.769 527.134, 741.757 525.022 M737.115 530.404 C738.836 529.461, 740.603 528.806, 743.288 525.377 M737.576 530.81 C739.358 528.936, 741.199 527.521, 742.458 525.828 M737.406 532.907 C739.052 530.051, 739.818 528.735, 743.946 525.866 M738.112 532.07 C740.347 529.953, 742.873 527.405, 743.822 525.595 M738.37 533.45 C740.062 530.51, 743.029 527.347, 745.195 526.801 M738.708 533.055 C741.028 530.566, 743.592 528.309, 744.964 526.841 M740.763 531.344 C742.127 531.014, 743.298 529.721, 745.326 527.841 M741.619 531.764 C742.127 530.978, 743.322 530.086, 745.689 527.488 M743.638 530.822 C744.506 529.992, 744.907 528.868, 746.572 527.336 M743.442 530.623 C744.538 529.487, 746.185 528.161, 746.934 527.405 M746.192 529.51 C746.441 528.991, 746.947 528.815, 747.772 527.976 M746.319 529.383 C746.71 528.899, 747.047 528.586, 747.598 527.84" stroke="rgb(51, 51, 51)" stroke-width="1.613" fill="none"></path><path d="M735.973 523.416 C740.886 524.382, 744.771 525.059, 747.197 528.781 M748.546 529.024 C743.823 528.946, 740.513 531.279, 737.503 534.11 M738.318 533.078 C738.276 529.541, 737.715 528.514, 737.77 523.829" stroke="rgb(51, 51, 51)" stroke-width="1" fill="none"></path></g><g class="text-container" transform="matrix(1 0 0 1 95 10)"><text x="76" y="607" text-anchor="middle" dominant-baseline="middle" alignment-baseline="middle" class="messageText" dy="1em" style="font-size: 16px; font-weight: 400;font-style: normal;font-weight: 400;font-size: 16px;font-family: Comic Sans MS, cursive;" stroke="none" stroke-width="1px" fill="rgb(51, 51, 51)">等待睡眠结束</text></g><g><path d="M171 650 C231.084 639.416, 229.59 679.97, 171 670" stroke="rgb(51, 51, 51)" stroke-width="1.5" fill="none"></path></g><g><path d="M166.209 661.921 C166.209 661.921, 166.209 661.921, 166.209 661.921 M166.209 661.921 C166.209 661.921, 166.209 661.921, 166.209 661.921 M167.654 664.4 C169.012 663.193, 170.346 662.217, 170.776 661.442 M167.409 664.658 C168.905 663.634, 170.241 662.528, 171.37 661.676 M168.151 668.497 C170.372 665.975, 173.99 663.593, 176.674 660.531 M168.118 667.508 C171.036 665.173, 173.931 662.822, 176.22 661.335 M169.301 670.261 C171.397 669.095, 172.838 668.264, 174.059 667.918 M169.841 670.554 C170.936 670.031, 171.657 669.196, 173.618 667.384" stroke="rgb(51, 51, 51)" stroke-width="1.009" fill="none"></path><path d="M177.02 661.539 C173.689 664.976, 173.154 669.413, 170.163 672.539 M175.554 660.771 C175.086 663.602, 174.507 665.017, 171.504 672.522 M171.475 672.014 C169.273 669.11, 167.123 665.867, 165.346 661.984 M171.343 672.411 C169.169 667.835, 167.336 664.273, 165.961 662.259 M165.539 661.379 C169.965 661.215, 173.268 661.352, 175.007 661.13 M166.228 661.612 C169.322 661.932, 173.714 660.806, 176.185 661.576" stroke="rgb(51, 51, 51)" stroke-width="1" fill="none"></path></g><g class="text-container" transform="matrix(1 0 0 1 95 10)"><text x="76" y="725" text-anchor="middle" dominant-baseline="middle" alignment-baseline="middle" class="messageText" dy="1em" style="font-size: 16px; font-weight: 400;font-style: normal;font-weight: 400;font-size: 16px;font-family: Comic Sans MS, cursive;" stroke="none" stroke-width="1px" fill="rgb(51, 51, 51)">打印 "睡眠后"</text></g><g><path d="M171 768 C232.321 756.027, 231.891 796.363, 171 788 M171 768 C233.151 757.048, 233.13 796.03, 171 788" stroke="rgb(51, 51, 51)" stroke-width="1.5" fill="none"></path></g><g><path d="M166.149 779.964 C166.149 779.964, 166.149 779.964, 166.149 779.964 M166.149 779.964 C166.149 779.964, 166.149 779.964, 166.149 779.964 M167.238 782.665 C168.354 781.537, 169.733 781.176, 171.152 779.969 M167.653 782.833 C168.318 782.139, 169.553 780.897, 170.938 779.687 M169.563 786.625 C170.164 784.462, 172.017 783.243, 176.386 778.395 M169.029 785.843 C170.418 784.106, 172.324 782.071, 175.76 778.813 M169.409 789.164 C170.6 787.694, 172.496 786.232, 174.155 784.734 M169.814 788.373 C170.882 787.938, 171.939 786.863, 174.142 784.381" stroke="rgb(51, 51, 51)" stroke-width="1.218" fill="none"></path><path d="M176.375 780.222 C173.572 782.617, 172.501 786.124, 170.516 789.054 M176.205 778.851 C175.248 781.491, 173.665 784.489, 171.217 789.929 M171.214 789.928 C169.142 787.735, 169.611 784.827, 166.834 779.27 M171.467 790.261 C169.557 787.43, 168.542 785.421, 165.575 779.61 M166.011 779.594 C168.59 780.465, 171.235 778.845, 176.79 778.479 M165.977 779.649 C168.685 780.257, 170.804 779.796, 175.525 779.501" stroke="rgb(51, 51, 51)" stroke-width="1" fill="none"></path></g><g class="text-container" transform="matrix(1 0 0 1 95 10)"><text x="364" y="803" text-anchor="middle" dominant-baseline="middle" alignment-baseline="middle" class="messageText" dy="1em" style="font-size: 16px; font-weight: 400;font-style: normal;font-weight: 400;font-size: 16px;font-family: Comic Sans MS, cursive;" stroke="none" stroke-width="1px" fill="rgb(51, 51, 51)">receiver.recv()</text></g><g><path d="M171.117 846.511 C319.88 846.537, 467.824 845.758, 746.389 846.554" stroke="rgb(51, 51, 51)" stroke-width="1.5" fill="none"></path></g><g><path d="M737.165 840.919 C737.165 840.919, 737.165 840.919, 737.165 840.919 M737.165 840.919 C737.165 840.919, 737.165 840.919, 737.165 840.919 M737.714 844.811 C738.378 844.248, 739.549 842.339, 740.363 841.854 M737.619 845.135 C738.24 844.296, 739.124 843.22, 740.134 841.96 M738.56 848.752 C739.533 848.069, 741.656 844.934, 742.279 843.823 M738.392 849.607 C739.763 847.713, 740.917 845.593, 742.417 843.556 M741.474 849.908 C741.369 849.658, 743.438 848.033, 745.698 845.107 M740.874 850.229 C742.13 848.735, 743.867 847.281, 745.78 845.273" stroke="rgb(51, 51, 51)" stroke-width="0.69" fill="none"></path><path d="M736.016 840.701 C741.164 842.42, 744.965 845.262, 748.549 844.828 M737.575 841.597 C739.531 841.691, 742.23 843.689, 747.586 845.902 M749.011 845.148 C746.346 846.101, 742.611 847.449, 738.25 850.651 M748.517 846.334 C745.493 847.401, 741.317 849.618, 738.562 850.985 M737.324 851.513 C738.384 848.046, 738.19 843.011, 738.09 841.643 M737.649 850.951 C737.435 847.857, 737.506 844.488, 736.676 840.68" stroke="rgb(51, 51, 51)" stroke-width="1" fill="none"></path></g><g class="text-container" transform="matrix(1 0 0 1 95 10)"><text x="467" y="851" text-anchor="middle" dominant-baseline="middle" alignment-baseline="middle" class="messageText" dy="1em" style="font-size: 16px; font-weight: 400;font-style: normal;font-weight: 400;font-size: 16px;font-family: Comic Sans MS, cursive;" stroke="none" stroke-width="1px" fill="rgb(51, 51, 51)">解除发送阻塞</text></g><g><path d="M749.62 892.969 C655.059 894.222, 562.244 893.996, 375.135 893.24" stroke="rgb(51, 51, 51)" stroke-width="1.5" fill="none" stroke-dasharray="3 3"></path></g><g><path d="M371.93 893.952 C371.93 893.952, 371.93 893.952, 371.93 893.952 M371.93 893.952 C371.93 893.952, 371.93 893.952, 371.93 893.952 M373.577 894.989 C374.209 894.006, 374.63 893.308, 375.154 892.333 M373.585 894.997 C373.791 894.637, 374.323 894.064, 375.252 892.544 M374.691 895.48 C376.188 893.768, 378.793 891.553, 379.519 890.823 M375.334 896.137 C376.065 894.344, 377.648 892.982, 378.704 890.431 M377.271 896.306 C379.236 893.219, 381.55 890.521, 381.399 888.765 M377.51 896.055 C379.216 893.718, 380.007 891.59, 381.483 889.567 M379.809 897.813 C379.758 896.488, 380.975 895.699, 382.186 892.234 M379.305 897.2 C380.567 895.588, 381.73 893.195, 382.671 892.053 M380.684 898.562 C381.35 897.308, 381.714 896.55, 382.516 895.63 M380.909 898.4 C381.47 897.364, 382.182 896.62, 382.555 895.928" stroke="rgb(51, 51, 51)" stroke-width="1.209" fill="none"></path><path d="M383.763 900.029 C379.119 896.769, 374 895.11, 372.975 893.793 M371.776 893.274 C375.395 891.582, 379.516 890.538, 382.733 889.717 M382.113 889.279 C381.395 891.377, 382.093 893.63, 382.636 899.835" stroke="rgb(51, 51, 51)" stroke-width="1" fill="none"></path></g><g class="text-container" transform="matrix(1 0 0 1 95 10)"><text x="276" y="899" text-anchor="middle" dominant-baseline="middle" alignment-baseline="middle" class="messageText" dy="1em" style="font-size: 16px; font-weight: 400;font-style: normal;font-weight: 400;font-size: 16px;font-family: Comic Sans MS, cursive;" stroke="none" stroke-width="1px" fill="rgb(51, 51, 51)">打印 "发送后"</text></g><g><path d="M371 942 C430.483 930.221, 429.526 973.011, 371 962" stroke="rgb(51, 51, 51)" stroke-width="1.5" fill="none"></path></g><g><path d="M366.255 953.701 C366.255 953.701, 366.255 953.701, 366.255 953.701 M366.255 953.701 C366.255 953.701, 366.255 953.701, 366.255 953.701 M366.505 955.027 C366.652 954.79, 366.896 954.499, 367.102 954.158 M366.593 955.124 C366.704 954.836, 366.931 954.532, 367.052 954.261 M366.676 956.465 C367.356 955.317, 367.925 954.582, 368.506 953.942 M366.773 956.517 C367.341 955.903, 367.66 955.481, 368.458 953.888 M367.758 956.617 C368.127 956.174, 368.918 955.409, 370.247 953.988 M367.585 957.124 C368.172 956.068, 368.917 955.056, 369.981 953.725 M368.11 958.039 C368.386 957.267, 369.502 955.869, 370.685 953.52 M368.305 958.409 C369.149 956.062, 370.802 954.254, 371.338 953.538 M369.026 959.377 C369.724 957.924, 370.841 956.22, 371.843 953.637 M368.773 959.003 C369.698 957.737, 370.34 956.627, 372.225 953.746 M368.66 959.707 C370.198 957.695, 372.201 954.76, 373.354 954.185 M369.128 960.001 C370.224 958.13, 371.503 956.034, 373.18 953.233 M369.358 962.018 C370.669 959.101, 372.538 957.195, 374.148 952.936 M369.164 962.11 C371.253 959.11, 372.154 957.337, 375.031 953.314 M370.757 962.879 C372.032 958.811, 375.797 955.308, 376.194 953.295 M370.113 962.736 C372.528 958.587, 375.359 954.591, 376.738 953.141 M371.096 963.851 C371.184 962.319, 372.04 960.808, 373.655 959.634 M370.416 963.61 C371.579 962.363, 372.546 960.69, 373.21 959.395" stroke="rgb(51, 51, 51)" stroke-width="1.434" fill="none"></path><path d="M376.979 953.908 C373.73 956.932, 371.412 962.254, 370.906 963.108 M371.001 964.334 C370.63 962.614, 367.748 960.107, 365.505 953.884 M366.12 953.374 C368.724 953.584, 373.13 952.631, 375.017 952.563" stroke="rgb(51, 51, 51)" stroke-width="1" fill="none"></path></g><g class="text-container" transform="matrix(1 0 0 1 95 10)"><text x="367" y="977" text-anchor="middle" dominant-baseline="middle" alignment-baseline="middle" class="messageText" dy="1em" style="font-size: 16px; font-weight: 400;font-style: normal;font-weight: 400;font-size: 16px;font-family: Comic Sans MS, cursive;" stroke="none" stroke-width="1px" fill="rgb(51, 51, 51)">返回 "Hello, world!"</text></g><g><path d="M749.564 1019.897 C628.976 1022.34, 510.554 1022.198, 173.317 1019.267 M748.712 1020.265 C618.357 1020.13, 488.603 1019.681, 173.933 1020.052" stroke="rgb(51, 51, 51)" stroke-width="1.5" fill="none" stroke-dasharray="3 3"></path></g><g><path d="M171.764 1020.159 C171.764 1020.159, 171.764 1020.159, 171.764 1020.159 M171.764 1020.159 C171.764 1020.159, 171.764 1020.159, 171.764 1020.159 M174.415 1021.064 C175.44 1019.563, 177.43 1018.964, 178.11 1016.587 M174.584 1021.305 C175.252 1020.219, 176.166 1019.436, 178.571 1016.5 M176.901 1023.407 C178.524 1021.073, 181.342 1018.948, 184.345 1016.459 M177.373 1022.615 C179.543 1019.928, 182.226 1017.558, 183.693 1016.037 M180.851 1023.756 C182.004 1022.085, 182.948 1020.573, 183.448 1020.279 M180.595 1023.869 C181.964 1022.533, 182.834 1020.904, 183.845 1019.78" stroke="rgb(51, 51, 51)" stroke-width="0.908" fill="none"></path><path d="M181.702 1025.818 C179.334 1022.485, 175.942 1022.316, 170.917 1019.123 M183.092 1025.223 C178.465 1023.373, 173.864 1021.562, 172.087 1019.897 M172.702 1020.116 C174.915 1017.837, 177.616 1017.251, 182.113 1014.504 M171.643 1020.529 C173.951 1019.336, 175.901 1018.478, 181.702 1015.296 M182.663 1014.941 C183.14 1018.073, 182.313 1022.231, 183.666 1024.255 M182.355 1015.071 C182.524 1017.208, 182.052 1019.352, 183.2 1025.324" stroke="rgb(51, 51, 51)" stroke-width="1" fill="none"></path></g><g class="text-container" transform="matrix(1 0 0 1 95 10)"><text x="76" y="1025" text-anchor="middle" dominant-baseline="middle" alignment-baseline="middle" class="messageText" dy="1em" style="font-size: 16px; font-weight: 400;font-style: normal;font-weight: 400;font-size: 16px;font-family: Comic Sans MS, cursive;" stroke="none" stroke-width="1px" fill="rgb(51, 51, 51)">打印 "Hello, world!"</text></g><g><path d="M171 1068 C230.918 1058.442, 229.986 1097.836, 171 1088 M171 1068 C230.587 1058.329, 232.468 1095.875, 171 1088" stroke="rgb(51, 51, 51)" stroke-width="1.5" fill="none"></path></g><g><path d="M165.967 1080.138 C165.967 1080.138, 165.967 1080.138, 165.967 1080.138 M165.967 1080.138 C165.967 1080.138, 165.967 1080.138, 165.967 1080.138 M166.689 1080.828 C167.016 1080.441, 167.228 1080.168, 167.445 1080.124 M166.716 1080.771 C166.872 1080.593, 167.14 1080.411, 167.394 1080.018 M166.836 1082.041 C167.574 1081.257, 167.988 1080.992, 168.789 1079.883 M166.921 1082.081 C167.605 1081.48, 168.07 1080.727, 168.677 1079.931 M167.702 1082.577 C168.245 1082.029, 169.045 1081.313, 170.32 1080.033 M167.734 1082.906 C168.38 1081.909, 169.489 1080.641, 170.009 1080.043 M167.591 1084.794 C168.08 1083.853, 169.868 1082.422, 172.134 1079.969 M167.455 1084.384 C169.299 1082.635, 170.395 1081.462, 171.651 1079.637 M168.069 1084.709 C169.429 1082.648, 171.544 1081.849, 173.602 1079.007 M168.183 1085.124 C170.028 1083.39, 171.478 1081.183, 173.093 1079.617 M169.623 1085.379 C170.842 1084.323, 172.234 1082.276, 174.052 1079.75 M169.359 1085.302 C170.991 1083.076, 173.425 1081.122, 174.372 1079.62 M169.3 1086.335 C170.185 1085.873, 172.184 1083.979, 175.523 1079.496 M169.219 1086.795 C171.662 1084.604, 174.1 1081.631, 175.753 1079.882 M170.553 1087.231 C171.929 1086.583, 172.645 1085.59, 174.711 1082.846 M169.966 1087.432 C171.656 1086.244, 173.341 1083.979, 174.716 1082.534 M170.586 1089.098 C171.079 1087.796, 171.402 1087.466, 172.919 1084.903 M170.237 1088.839 C171.376 1087.658, 172.485 1086.273, 173.428 1085.264 M170.926 1089.768 C171.015 1089.523, 171.142 1089.291, 171.456 1088.983 M170.878 1089.696 C170.981 1089.576, 171.216 1089.43, 171.481 1088.96" stroke="rgb(51, 51, 51)" stroke-width="1.616" fill="none"></path><path d="M176.605 1078.299 C175.067 1082.959, 172.982 1085.879, 171.227 1089.243 M171.496 1089.733 C169.829 1087.177, 167.287 1082.447, 164.895 1080.742 M166.905 1080.24 C168.968 1079.273, 172.626 1079.327, 175.363 1079.212" stroke="rgb(51, 51, 51)" stroke-width="1" fill="none"></path></g></svg>