<svg xmlns="http://www.w3.org/2000/svg" xmlns:xlink="http://www.w3.org/1999/xlink" width="307pt" height="133pt" viewBox="0 0 307.32 132.8"><g id="graph0" class="graph" transform="scale(1 1) rotate(0) translate(4 128.8)"><title>References</title><polygon fill="#fff" stroke="none" points="-4 4 -4 -128.8 303.32 -128.8 303.32 4 -4 4"/><g id="node1" class="node"><title>a</title><ellipse cx="27" cy="-106.8" fill="none" stroke="#000" rx="27" ry="18"/><text x="27" y="-102.6" font-family="Times,serif" font-size="14" text-anchor="middle">a</text></g><g id="node2" class="node"><title>data</title><ellipse cx="139" cy="-18" fill="none" stroke="#000" rx="64.25" ry="18"/><text x="139" y="-13.8" font-family="Times,serif" font-size="14" text-anchor="middle">String &quot;hello&quot;</text></g><g id="edge1" class="edge"><title>a-&gt;data</title><path fill="none" stroke="#000" d="M35.05,-89.58C41.27,-78.4 50.77,-63.83 62.44,-54 70.16,-47.5 79.28,-41.97 88.49,-37.34"/><polygon fill="#000" stroke="#000" points="89.89 -40.55 97.48 -33.15 86.93 -34.2 89.89 -40.55"/><text x="77.22" y="-58.2" font-family="Times,serif" font-size="14" text-anchor="middle">owns</text></g><g id="node3" class="node"><title>a1</title><ellipse cx="99" cy="-106.8" fill="none" stroke="#000" rx="27" ry="18"/><text x="99" y="-102.6" font-family="Times,serif" font-size="14" text-anchor="middle">a1</text></g><g id="edge2" class="edge"><title>a1-&gt;data</title><path fill="none" stroke="#000" d="M96.22,-88.71C95.29,-78.22 95.54,-64.79 100.5,-54 102.26,-50.16 104.66,-46.56 107.42,-43.23"/><polygon fill="#000" stroke="#000" points="109.8 -45.8 114.25 -36.19 104.78 -40.93 109.8 -45.8"/><text x="129.25" y="-58.2" font-family="Times,serif" font-size="14" text-anchor="middle">references</text></g><g id="node4" class="node"><title>a2</title><ellipse cx="180" cy="-106.8" fill="none" stroke="#000" rx="27" ry="18"/><text x="180" y="-102.6" font-family="Times,serif" font-size="14" text-anchor="middle">a2</text></g><g id="edge3" class="edge"><title>a2-&gt;data</title><path fill="none" stroke="#000" d="M173.46,-89.29C169.28,-79.03 163.6,-65.62 158,-54 156.76,-51.44 155.44,-48.8 154.08,-46.17"/><polygon fill="#000" stroke="#000" points="157.31 -44.79 149.52 -37.61 151.13 -48.08 157.31 -44.79"/><text x="193.84" y="-58.2" font-family="Times,serif" font-size="14" text-anchor="middle">references</text></g><g id="node5" class="node"><title>a3</title><ellipse cx="261" cy="-106.8" fill="none" stroke="#000" rx="27" ry="18"/><text x="261" y="-102.6" font-family="Times,serif" font-size="14" text-anchor="middle">a3</text></g><g id="edge4" class="edge"><title>a3-&gt;data</title><path fill="none" stroke="#000" d="M253.57,-89.4C247.74,-78.12 238.67,-63.52 227,-54 217.54,-46.28 206.16,-40.1 194.77,-35.2"/><polygon fill="#000" stroke="#000" points="196.36 -32.07 185.78 -31.63 193.78 -38.57 196.36 -32.07"/><text x="270.57" y="-58.2" font-family="Times,serif" font-size="14" text-anchor="middle">references</text></g></g></svg>